  0
SECTION
  2
HEADER
  9
$ACADVER
  1
AC1032
  9
$ACADMAINTVER
 90
      205
  9
$DWGCODEPAGE
  3
ANSI_1252
  9
$LASTSAVEDBY
  1
TADo
  9
$REQUIREDVERSIONS
160
                 0
  9
$INSBASE
 10
0.0
 20
0.0
 30
0.0
  9
$EXTMIN
 10
-63.04504050878449
 20
-9.032956469842247
 30
-0.0015258207003583
  9
$EXTMAX
 10
1413.045047381945
 20
1071.032961498984
 30
0.0000000349246037
  9
$LIMMIN
 10
0.0
 20
0.0
  9
$LIMMAX
 10
12.0
 20
9.0
  9
$ORTHOMODE
 70
     1
  9
$REGENMODE
 70
     1
  9
$FILLMODE
 70
     1
  9
$QTEXTMODE
 70
     0
  9
$MIRRTEXT
 70
     1
  9
$LTSCALE
 40
1.0
  9
$ATTMODE
 70
     1
  9
$TEXTSIZE
 40
0.2
  9
$TRACEWID
 40
0.05
  9
$TEXTSTYLE
  7
STANDARD
  9
$CLAYER
  8
WALL X
  9
$CELTYPE
  6
BYLAYER
  9
$CECOLOR
 62
   256
  9
$CELTSCALE
 40
1.0
  9
$DISPSILH
 70
     0
  9
$DIMSCALE
 40
1.0
  9
$DIMASZ
 40
0.18
  9
$DIMEXO
 40
0.0625
  9
$DIMDLI
 40
0.38
  9
$DIMRND
 40
0.0
  9
$DIMDLE
 40
0.0
  9
$DIMEXE
 40
0.18
  9
$DIMTP
 40
0.0
  9
$DIMTM
 40
0.0
  9
$DIMTXT
 40
0.18
  9
$DIMCEN
 40
0.09
  9
$DIMTSZ
 40
0.0
  9
$DIMTOL
 70
     0
  9
$DIMLIM
 70
     0
  9
$DIMTIH
 70
     1
  9
$DIMTOH
 70
     1
  9
$DIMSE1
 70
     0
  9
$DIMSE2
 70
     0
  9
$DIMTAD
 70
     0
  9
$DIMZIN
 70
     0
  9
$DIMBLK
  1

  9
$DIMASO
 70
     1
  9
$DIMSHO
 70
     1
  9
$DIMPOST
  1

  9
$DIMAPOST
  1

  9
$DIMALT
 70
     0
  9
$DIMALTD
 70
     2
  9
$DIMALTF
 40
25.4
  9
$DIMLFAC
 40
1.0
  9
$DIMTOFL
 70
     0
  9
$DIMTVP
 40
0.0
  9
$DIMTIX
 70
     0
  9
$DIMSOXD
 70
     0
  9
$DIMSAH
 70
     0
  9
$DIMBLK1
  1

  9
$DIMBLK2
  1

  9
$DIMSTYLE
  2
STANDARD
  9
$DIMCLRD
 70
     0
  9
$DIMCLRE
 70
     0
  9
$DIMCLRT
 70
     0
  9
$DIMTFAC
 40
1.0
  9
$DIMGAP
 40
0.09
  9
$DIMJUST
 70
     0
  9
$DIMSD1
 70
     0
  9
$DIMSD2
 70
     0
  9
$DIMTOLJ
 70
     1
  9
$DIMTZIN
 70
     0
  9
$DIMALTZ
 70
     0
  9
$DIMALTTZ
 70
     0
  9
$DIMUPT
 70
     0
  9
$DIMDEC
 70
     4
  9
$DIMTDEC
 70
     4
  9
$DIMALTU
 70
     2
  9
$DIMALTTD
 70
     2
  9
$DIMTXSTY
  7
STANDARD
  9
$DIMAUNIT
 70
     0
  9
$DIMADEC
 70
     0
  9
$DIMALTRND
 40
0.0
  9
$DIMAZIN
 70
     0
  9
$DIMDSEP
 70
    46
  9
$DIMATFIT
 70
     3
  9
$DIMFRAC
 70
     0
  9
$DIMLDRBLK
  1

  9
$DIMLUNIT
 70
     2
  9
$DIMLWD
 70
    -2
  9
$DIMLWE
 70
    -2
  9
$DIMTMOVE
 70
     0
  9
$DIMFXL
 40
1.0
  9
$DIMFXLON
 70
     0
  9
$DIMJOGANG
 40
0.7853981633974483
  9
$DIMTFILL
 70
     0
  9
$DIMTFILLCLR
 70
     0
  9
$DIMARCSYM
 70
     0
  9
$DIMLTYPE
  6

  9
$DIMLTEX1
  6

  9
$DIMLTEX2
  6

  9
$DIMTXTDIRECTION
 70
     0
  9
$LUNITS
 70
     2
  9
$LUPREC
 70
     4
  9
$SKETCHINC
 40
0.1
  9
$FILLETRAD
 40
0.0
  9
$AUNITS
 70
     0
  9
$AUPREC
 70
     0
  9
$MENU
  1
.
  9
$ELEVATION
 40
0.0
  9
$PELEVATION
 40
0.0
  9
$THICKNESS
 40
0.0
  9
$LIMCHECK
 70
     0
  9
$CHAMFERA
 40
0.5
  9
$CHAMFERB
 40
0.5
  9
$CHAMFERC
 40
1.0
  9
$CHAMFERD
 40
0.0
  9
$SKPOLY
 70
     1
  9
$TDCREATE
 40
2451008.519965278
  9
$TDUCREATE
 40
2451008.228298611
  9
$TDUPDATE
 40
2460944.650381945
  9
$TDUUPDATE
 40
2460944.358715277
  9
$TDINDWG
 40
2.0785745370
  9
$TDUSRTIMER
 40
2.0785745370
  9
$USRTIMER
 70
     1
  9
$ANGBASE
 50
0.0
  9
$ANGDIR
 70
     0
  9
$PDMODE
 70
     3
  9
$PDSIZE
 40
0.0
  9
$PLINEWID
 40
0.0
  9
$SPLFRAME
 70
     0
  9
$SPLINETYPE
 70
     6
  9
$SPLINESEGS
 70
     8
  9
$HANDSEED
  5
680
  9
$SURFTAB1
 70
     6
  9
$SURFTAB2
 70
     6
  9
$SURFTYPE
 70
     6
  9
$SURFU
 70
     6
  9
$SURFV
 70
     6
  9
$UCSBASE
  2

  9
$UCSNAME
  2

  9
$UCSORG
 10
0.0
 20
0.0
 30
0.0
  9
$UCSXDIR
 10
1.0
 20
0.0
 30
0.0
  9
$UCSYDIR
 10
0.0
 20
1.0
 30
0.0
  9
$UCSORTHOREF
  2

  9
$UCSORTHOVIEW
 70
     0
  9
$UCSORGTOP
 10
0.0
 20
0.0
 30
0.0
  9
$UCSORGBOTTOM
 10
0.0
 20
0.0
 30
0.0
  9
$UCSORGLEFT
 10
0.0
 20
0.0
 30
0.0
  9
$UCSORGRIGHT
 10
0.0
 20
0.0
 30
0.0
  9
$UCSORGFRONT
 10
0.0
 20
0.0
 30
0.0
  9
$UCSORGBACK
 10
0.0
 20
0.0
 30
0.0
  9
$PUCSBASE
  2

  9
$PUCSNAME
  2

  9
$PUCSORG
 10
0.0
 20
0.0
 30
0.0
  9
$PUCSXDIR
 10
1.0
 20
0.0
 30
0.0
  9
$PUCSYDIR
 10
0.0
 20
1.0
 30
0.0
  9
$PUCSORTHOREF
  2

  9
$PUCSORTHOVIEW
 70
     0
  9
$PUCSORGTOP
 10
0.0
 20
0.0
 30
0.0
  9
$PUCSORGBOTTOM
 10
0.0
 20
0.0
 30
0.0
  9
$PUCSORGLEFT
 10
0.0
 20
0.0
 30
0.0
  9
$PUCSORGRIGHT
 10
0.0
 20
0.0
 30
0.0
  9
$PUCSORGFRONT
 10
0.0
 20
0.0
 30
0.0
  9
$PUCSORGBACK
 10
0.0
 20
0.0
 30
0.0
  9
$USERI1
 70
     0
  9
$USERI2
 70
     0
  9
$USERI3
 70
     0
  9
$USERI4
 70
     0
  9
$USERI5
 70
     0
  9
$USERR1
 40
0.0
  9
$USERR2
 40
0.0
  9
$USERR3
 40
0.0
  9
$USERR4
 40
0.0
  9
$USERR5
 40
0.0
  9
$WORLDVIEW
 70
     1
  9
$SHADEDGE
 70
     3
  9
$SHADEDIF
 70
    70
  9
$TILEMODE
 70
     1
  9
$MAXACTVP
 70
    48
  9
$PINSBASE
 10
0.0
 20
0.0
 30
0.0
  9
$PLIMCHECK
 70
     0
  9
$PEXTMIN
 10
1.000000000000000E+20
 20
1.000000000000000E+20
 30
1.000000000000000E+20
  9
$PEXTMAX
 10
-1.000000000000000E+20
 20
-1.000000000000000E+20
 30
-1.000000000000000E+20
  9
$PLIMMIN
 10
0.0
 20
0.0
  9
$PLIMMAX
 10
12.0
 20
9.0
  9
$UNITMODE
 70
     0
  9
$VISRETAIN
 70
     1
  9
$PLINEGEN
 70
     0
  9
$PSLTSCALE
 70
     1
  9
$TREEDEPTH
 70
  3020
  9
$CMLSTYLE
  2
STANDARD
  9
$CMLJUST
 70
     0
  9
$CMLSCALE
 40
1.0
  9
$PROXYGRAPHICS
 70
     1
  9
$MEASUREMENT
 70
     0
  9
$CELWEIGHT
370
    -1
  9
$ENDCAPS
280
     0
  9
$JOINSTYLE
280
     0
  9
$LWDISPLAY
290
     0
  9
$INSUNITS
 70
     0
  9
$HYPERLINKBASE
  1

  9
$STYLESHEET
  1

  9
$XEDIT
290
     1
  9
$CEPSNTYPE
380
     0
  9
$PSTYLEMODE
290
     1
  9
$FINGERPRINTGUID
  2
{222B0336-2842-5F4D-8EBA-19EDDEF1CD78}
  9
$VERSIONGUID
  2
{5D345EFF-90A3-C540-BF81-D7D4CA0A01A9}
  9
$EXTNAMES
290
     1
  9
$PSVPSCALE
 40
0.0
  9
$OLESTARTUP
290
     0
  9
$SORTENTS
280
   127
  9
$INDEXCTL
280
     0
  9
$HIDETEXT
280
     0
  9
$XCLIPFRAME
280
     2
  9
$HALOGAP
280
     0
  9
$OBSCOLOR
 70
   257
  9
$OBSLTYPE
280
     0
  9
$INTERSECTIONDISPLAY
280
     0
  9
$INTERSECTIONCOLOR
 70
   257
  9
$DIMASSOC
280
     1
  9
$PROJECTNAME
  1

  9
$CAMERADISPLAY
290
     0
  9
$LENSLENGTH
 40
50.0
  9
$CAMERAHEIGHT
 40
0.0
  9
$STEPSPERSEC
 40
2.0
  9
$STEPSIZE
 40
6.0
  9
$3DDWFPREC
 40
2.0
  9
$PSOLWIDTH
 40
0.25
  9
$PSOLHEIGHT
 40
4.0
  9
$LOFTANG1
 40
1.570796326794896
  9
$LOFTANG2
 40
1.570796326794896
  9
$LOFTMAG1
 40
0.0
  9
$LOFTMAG2
 40
0.0
  9
$LOFTPARAM
 70
     7
  9
$LOFTNORMALS
280
     1
  9
$LATITUDE
 40
37.795
  9
$LONGITUDE
 40
-122.394
  9
$NORTHDIRECTION
 40
0.0
  9
$TIMEZONE
 70
 -8000
  9
$LIGHTGLYPHDISPLAY
280
     1
  9
$TILEMODELIGHTSYNCH
280
     1
  9
$CMATERIAL
347
4BA
  9
$SOLIDHIST
280
     0
  9
$SHOWHIST
280
     1
  9
$DWFFRAME
280
     2
  9
$DGNFRAME
280
     0
  9
$REALWORLDSCALE
290
     1
  9
$INTERFERECOLOR
 62
     1
  9
$INTERFEREOBJVS
345
4DC
  9
$INTERFEREVPVS
346
4D9
  9
$CSHADOW
280
     0
  9
$SHADOWPLANELOCATION
 40
0.0
  0
ENDSEC
  0
SECTION
  2
CLASSES
  0
CLASS
  1
ACDBDICTIONARYWDFLT
  2
AcDbDictionaryWithDefault
  3
ObjectDBX Classes
 90
        0
 91
        1
280
     0
281
     0
  0
CLASS
  1
MATERIAL
  2
AcDbMaterial
  3
ObjectDBX Classes
 90
     1153
 91
        3
280
     0
281
     0
  0
CLASS
  1
VISUALSTYLE
  2
AcDbVisualStyle
  3
ObjectDBX Classes
 90
     4095
 91
       24
280
     0
281
     0
  0
CLASS
  1
TABLESTYLE
  2
AcDbTableStyle
  3
ObjectDBX Classes
 90
     4095
 91
        1
280
     0
281
     0
  0
CLASS
  1
SCALE
  2
AcDbScale
  3
ObjectDBX Classes
 90
     1153
 91
       17
280
     0
281
     0
  0
CLASS
  1
MLEADERSTYLE
  2
AcDbMLeaderStyle
  3
ACDB_MLEADERSTYLE_CLASS
 90
     4095
 91
        1
280
     0
281
     0
  0
CLASS
  1
ACDBSECTIONVIEWSTYLE
  2
AcDbSectionViewStyle
  3
ObjectDBX Classes
 90
     1025
 91
        1
280
     0
281
     0
  0
CLASS
  1
ACDBDETAILVIEWSTYLE
  2
AcDbDetailViewStyle
  3
ObjectDBX Classes
 90
     1025
 91
        1
280
     0
281
     0
  0
CLASS
  1
DICTIONARYVAR
  2
AcDbDictionaryVar
  3
ObjectDBX Classes
 90
        0
 91
        9
280
     0
281
     0
  0
CLASS
  1
CELLSTYLEMAP
  2
AcDbCellStyleMap
  3
ObjectDBX Classes
 90
     1152
 91
        3
280
     0
281
     0
  0
CLASS
  1
SOLID_BACKGROUND
  2
AcDbSolidBackground
  3
SCENEOE
 90
     4095
 91
        1
280
     0
281
     0
  0
CLASS
  1
NPOCOLLECTION
  2
AcDbImpNonPersistentObjectsCollection
  3
ObjectDBX Classes
 90
     1153
 91
        1
280
     0
281
     0
  0
CLASS
  1
GROUND_PLANE_BACKGROUND
  2
AcDbGroundPlaneBackground
  3
SCENEOE
 90
     4095
 91
        0
280
     0
281
     0
  0
CLASS
  1
SORTENTSTABLE
  2
AcDbSortentsTable
  3
ObjectDBX Classes
 90
        0
 91
        1
280
     0
281
     0
  0
ENDSEC
  0
SECTION
  2
TABLES
  0
TABLE
  2
VPORT
  5
8
330
0
100
AcDbSymbolTable
 70
     1
  0
VPORT
  5
5A
330
8
100
AcDbSymbolTableRecord
100
AcDbViewportTableRecord
  2
*ACTIVE
 70
     0
 10
0.0
 20
0.0
 11
1.0
 21
1.0
 12
-0.0203727688636946
 22
0.0000325553121456
 13
0.0
 23
0.0
 14
0.5
 24
0.5
 15
0.5
 25
0.5
 16
-0.0000000000013642
 26
0.0
 36
6198.750639618936
 17
675.0203762054443
 27
530.999969959259
 37
0.0
 40
1088.706445312577
 41
2.562082777036048
 42
50.0
 43
0.0
 44
0.0
 50
0.0
 51
0.0
 71
     0
 72
   100
 73
     1
 74
     1
 75
     0
 76
     0
 77
     0
 78
     0
281
     0
 65
     1
110
0.0
120
0.0
130
0.0
111
1.0
121
0.0
131
0.0
112
0.0
122
1.0
132
0.0
 79
     0
146
0.0
348
4D8
 60
     3
 61
     5
292
     1
282
     1
141
0.0
142
0.0
 63
   250
421
  3355443
1001
ACAD_NAV_VCDISPLAY
1070
     3
  0
ENDTAB
  0
TABLE
  2
LTYPE
  5
5
330
0
100
AcDbSymbolTable
 70
     5
  0
LTYPE
  5
13
330
5
100
AcDbSymbolTableRecord
100
AcDbLinetypeTableRecord
  2
BYBLOCK
 70
     0
  3

 72
    65
 73
     0
 40
0.0
  0
LTYPE
  5
14
330
5
100
AcDbSymbolTableRecord
100
AcDbLinetypeTableRecord
  2
BYLAYER
 70
     0
  3

 72
    65
 73
     0
 40
0.0
  0
LTYPE
  5
15
330
5
100
AcDbSymbolTableRecord
100
AcDbLinetypeTableRecord
  2
CONTINUOUS
 70
     0
  3
Solid line
 72
    65
 73
     0
 40
0.0
  0
LTYPE
  5
4C
330
5
100
AcDbSymbolTableRecord
100
AcDbLinetypeTableRecord
  2
CENTER
 70
     0
  3
Center ____ _ ____ _ ____ _ ____ _ ____ _ ____
 72
    65
 73
     4
 40
2.0
 49
1.25
 74
     0
 49
-0.25
 74
     0
 49
0.25
 74
     0
 49
-0.25
 74
     0
  0
LTYPE
  5
4D
330
5
100
AcDbSymbolTableRecord
100
AcDbLinetypeTableRecord
  2
DASHED
 70
     0
  3
Dashed __ __ __ __ __ __ __ __ __ __ __ __ __ _
 72
    65
 73
     2
 40
0.75
 49
0.5
 74
     0
 49
-0.25
 74
     0
  0
LTYPE
  5
4E
330
5
100
AcDbSymbolTableRecord
100
AcDbLinetypeTableRecord
  2
HIDDEN
 70
     0
  3
Hidden __ __ __ __ __ __ __ __ __ __ __ __ __ _
 72
    65
 73
     2
 40
0.375
 49
0.25
 74
     0
 49
-0.125
 74
     0
  0
ENDTAB
  0
TABLE
  2
LAYER
  5
2
102
{ACAD_XDICTIONARY
360
50C
102
}
330
0
100
AcDbSymbolTable
 70
    16
  0
LAYER
  5
F
102
{ACAD_XDICTIONARY
360
53D
102
}
330
2
100
AcDbSymbolTableRecord
100
AcDbLayerTableRecord
  2
0
 70
     0
 62
     7
  6
CONTINUOUS
370
    -3
390
4B8
347
4CA
348
0
  0
LAYER
  5
50
102
{ACAD_XDICTIONARY
360
53F
102
}
330
2
100
AcDbSymbolTableRecord
100
AcDbLayerTableRecord
  2
GRID
 70
     0
 62
     1
  6
CONTINUOUS
370
    -3
390
4B8
347
4CA
348
0
  0
LAYER
  5
51
102
{ACAD_XDICTIONARY
360
541
102
}
330
2
100
AcDbSymbolTableRecord
100
AcDbLayerTableRecord
  2
REC COLS
 70
     0
 62
    51
  6
CONTINUOUS
370
    -3
390
4B8
347
4CA
348
0
  0
LAYER
  5
52
102
{ACAD_XDICTIONARY
360
543
102
}
330
2
100
AcDbSymbolTableRecord
100
AcDbLayerTableRecord
  2
BEAM
 70
     0
 62
     5
  6
CONTINUOUS
370
    -3
390
4B8
347
4CA
348
0
  0
LAYER
  5
53
102
{ACAD_XDICTIONARY
360
545
102
}
330
2
100
AcDbSymbolTableRecord
100
AcDbLayerTableRecord
  2
BRAC
 70
     0
 62
     5
  6
CONTINUOUS
370
    -3
390
4B8
347
4CA
348
0
  0
LAYER
  5
54
102
{ACAD_XDICTIONARY
360
547
102
}
330
2
100
AcDbSymbolTableRecord
100
AcDbLayerTableRecord
  2
WALL X
 70
     0
 62
    40
  6
CONTINUOUS
370
    -3
390
4B8
347
4CA
348
0
  0
LAYER
  5
55
102
{ACAD_XDICTIONARY
360
549
102
}
330
2
100
AcDbSymbolTableRecord
100
AcDbLayerTableRecord
  2
SLAB
 70
     0
 62
     6
  6
CONTINUOUS
370
    -3
390
4B8
347
4CA
348
0
  0
LAYER
  5
56
102
{ACAD_XDICTIONARY
360
54B
102
}
330
2
100
AcDbSymbolTableRecord
100
AcDbLayerTableRecord
  2
TEXT
 70
     0
 62
     5
  6
CONTINUOUS
370
    -3
390
4B8
347
4CA
348
0
  0
LAYER
  5
57
102
{ACAD_XDICTIONARY
360
54D
102
}
330
2
100
AcDbSymbolTableRecord
100
AcDbLayerTableRecord
  2
DIMENSIONS
 70
     0
 62
     4
  6
CONTINUOUS
370
    -3
390
4B8
347
4CA
348
0
  0
LAYER
  5
58
102
{ACAD_XDICTIONARY
360
54F
102
}
330
2
100
AcDbSymbolTableRecord
100
AcDbLayerTableRecord
  2
CENTERLINES
 70
     0
 62
     7
  6
CONTINUOUS
370
    -3
390
4B8
347
4CA
348
0
  0
LAYER
  5
59
102
{ACAD_XDICTIONARY
360
551
102
}
330
2
100
AcDbSymbolTableRecord
100
AcDbLayerTableRecord
  2
SECTIONS
 70
     0
 62
     7
  6
CONTINUOUS
370
    -3
390
4B8
347
4CA
348
0
  0
LAYER
  5
57F
330
2
100
AcDbSymbolTableRecord
100
AcDbLayerTableRecord
  2
CIR COLS
 70
     0
 62
    90
  6
CONTINUOUS
370
    -3
390
4B8
347
4CA
348
0
1001
AcAecLayerStandard
1000

1000

1001
AcCmTransparency
1071
        0
  0
LAYER
  5
5D8
330
2
100
AcDbSymbolTableRecord
100
AcDbLayerTableRecord
  2
CB X
 70
     0
 62
    11
  6
CONTINUOUS
370
    -3
390
4B8
347
4CA
348
0
1001
AcAecLayerStandard
1000

1000

1001
AcCmTransparency
1071
        0
  0
LAYER
  5
5D9
330
2
100
AcDbSymbolTableRecord
100
AcDbLayerTableRecord
  2
CB Y
 70
     0
 62
   161
  6
CONTINUOUS
370
    -3
390
4B8
347
4CA
348
0
1001
AcAecLayerStandard
1000

1000

1001
AcCmTransparency
1071
        0
  0
LAYER
  5
66E
330
2
100
AcDbSymbolTableRecord
100
AcDbLayerTableRecord
  2
WALL Y
 70
     0
 62
    21
  6
CONTINUOUS
370
    -3
390
4B8
347
4CA
348
0
1001
AcAecLayerStandard
1000

1000

1001
AcCmTransparency
1071
        0
  0
LAYER
  5
670
330
2
100
AcDbSymbolTableRecord
100
AcDbLayerTableRecord
  2
Defpoints
 70
     0
 62
     7
  6
CONTINUOUS
290
     0
370
    -3
390
4B8
347
4CA
348
0
  0
ENDTAB
  0
TABLE
  2
STYLE
  5
3
330
0
100
AcDbSymbolTable
 70
     1
  0
STYLE
  5
10
330
3
100
AcDbSymbolTableRecord
100
AcDbTextStyleTableRecord
  2
STANDARD
 70
     0
 40
0.0
 41
1.0
 50
0.0
 71
     0
 42
0.2
  3
txt
  4

  0
ENDTAB
  0
TABLE
  2
VIEW
  5
6
330
0
100
AcDbSymbolTable
 70
     1
  0
ENDTAB
  0
TABLE
  2
UCS
  5
7
330
0
100
AcDbSymbolTable
 70
     0
  0
ENDTAB
  0
TABLE
  2
APPID
  5
9
330
0
100
AcDbSymbolTable
 70
     6
  0
APPID
  5
11
330
9
100
AcDbSymbolTableRecord
100
AcDbRegAppTableRecord
  2
ACAD
 70
     0
  0
APPID
  5
511
330
9
100
AcDbSymbolTableRecord
100
AcDbRegAppTableRecord
  2
AcLayerTools
 70
     0
  0
APPID
  5
512
330
9
100
AcDbSymbolTableRecord
100
AcDbRegAppTableRecord
  2
ACAD_EXEMPT_FROM_CAD_STANDARDS
 70
     0
  0
APPID
  5
532
330
9
100
AcDbSymbolTableRecord
100
AcDbRegAppTableRecord
  2
ACAD_NAV_VCDISPLAY
 70
     0
  0
APPID
  5
580
330
9
100
AcDbSymbolTableRecord
100
AcDbRegAppTableRecord
  2
AcAecLayerStandard
 70
     0
  0
APPID
  5
581
330
9
100
AcDbSymbolTableRecord
100
AcDbRegAppTableRecord
  2
AcCmTransparency
 70
     0
  0
ENDTAB
  0
TABLE
  2
DIMSTYLE
  5
A
330
0
100
AcDbSymbolTable
 70
     2
100
AcDbDimStyleTable
 71
     1
340
1D
  0
DIMSTYLE
105
1D
330
A
100
AcDbSymbolTableRecord
100
AcDbDimStyleTableRecord
  2
STANDARD
 70
     0
340
10
  0
ENDTAB
  0
TABLE
  2
BLOCK_RECORD
  5
1
330
0
100
AcDbSymbolTable
 70
    28
  0
BLOCK_RECORD
  5
19
102
{ACAD_XDICTIONARY
360
5BE
102
}
330
1
100
AcDbSymbolTableRecord
100
AcDbBlockTableRecord
  2
*MODEL_SPACE
340
508
 70
     0
280
     1
281
     0
  0
BLOCK_RECORD
  5
16
330
1
100
AcDbSymbolTableRecord
100
AcDbBlockTableRecord
  2
*PAPER_SPACE
340
509
 70
     0
280
     1
281
     0
  0
BLOCK_RECORD
  5
61
330
1
100
AcDbSymbolTableRecord
100
AcDbBlockTableRecord
  2
BOX
340
0
 70
     0
280
     1
281
     0
  0
BLOCK_RECORD
  5
66
330
1
100
AcDbSymbolTableRecord
100
AcDbBlockTableRecord
  2
SPHERE
340
0
 70
     0
280
     1
281
     0
  0
BLOCK_RECORD
  5
A2
330
1
100
AcDbSymbolTableRecord
100
AcDbBlockTableRecord
  2
UX
340
0
 70
     0
280
     1
281
     0
  0
BLOCK_RECORD
  5
B7
330
1
100
AcDbSymbolTableRecord
100
AcDbBlockTableRecord
  2
UY
340
0
 70
     0
280
     1
281
     0
  0
BLOCK_RECORD
  5
CC
330
1
100
AcDbSymbolTableRecord
100
AcDbBlockTableRecord
  2
UZ
340
0
 70
     0
280
     1
281
     0
  0
BLOCK_RECORD
  5
1B8
330
1
100
AcDbSymbolTableRecord
100
AcDbBlockTableRecord
  2
RX
340
0
 70
     0
280
     1
281
     0
  0
BLOCK_RECORD
  5
1FF
330
1
100
AcDbSymbolTableRecord
100
AcDbBlockTableRecord
  2
RY
340
0
 70
     0
280
     1
281
     0
  0
BLOCK_RECORD
  5
246
330
1
100
AcDbSymbolTableRecord
100
AcDbBlockTableRecord
  2
RZ
340
0
 70
     0
280
     1
281
     0
  0
BLOCK_RECORD
  5
2F9
330
1
100
AcDbSymbolTableRecord
100
AcDbBlockTableRecord
  2
XAXIS
340
0
 70
     0
280
     1
281
     0
  0
BLOCK_RECORD
  5
31F
330
1
100
AcDbSymbolTableRecord
100
AcDbBlockTableRecord
  2
YAXIS
340
0
 70
     0
280
     1
281
     0
  0
BLOCK_RECORD
  5
345
330
1
100
AcDbSymbolTableRecord
100
AcDbBlockTableRecord
  2
ZAXIS
340
0
 70
     0
280
     1
281
     0
  0
BLOCK_RECORD
  5
3B4
330
1
100
AcDbSymbolTableRecord
100
AcDbBlockTableRecord
  2
*D11
340
0
 70
     0
280
     1
281
     0
  0
BLOCK_RECORD
  5
3BE
330
1
100
AcDbSymbolTableRecord
100
AcDbBlockTableRecord
  2
*D12
340
0
 70
     0
280
     1
281
     0
  0
BLOCK_RECORD
  5
3C8
330
1
100
AcDbSymbolTableRecord
100
AcDbBlockTableRecord
  2
*D13
340
0
 70
     0
280
     1
281
     0
  0
BLOCK_RECORD
  5
3D2
330
1
100
AcDbSymbolTableRecord
100
AcDbBlockTableRecord
  2
*D14
340
0
 70
     0
280
     1
281
     0
  0
BLOCK_RECORD
  5
3DC
330
1
100
AcDbSymbolTableRecord
100
AcDbBlockTableRecord
  2
*D15
340
0
 70
     0
280
     1
281
     0
  0
BLOCK_RECORD
  5
3E6
330
1
100
AcDbSymbolTableRecord
100
AcDbBlockTableRecord
  2
*D16
340
0
 70
     0
280
     1
281
     0
  0
BLOCK_RECORD
  5
3F0
330
1
100
AcDbSymbolTableRecord
100
AcDbBlockTableRecord
  2
*D17
340
0
 70
     0
280
     1
281
     0
  0
BLOCK_RECORD
  5
3FA
330
1
100
AcDbSymbolTableRecord
100
AcDbBlockTableRecord
  2
*D18
340
0
 70
     0
280
     1
281
     0
  0
BLOCK_RECORD
  5
404
330
1
100
AcDbSymbolTableRecord
100
AcDbBlockTableRecord
  2
*D19
340
0
 70
     0
280
     1
281
     0
  0
BLOCK_RECORD
  5
40E
330
1
100
AcDbSymbolTableRecord
100
AcDbBlockTableRecord
  2
*D20
340
0
 70
     0
280
     1
281
     0
  0
BLOCK_RECORD
  5
418
330
1
100
AcDbSymbolTableRecord
100
AcDbBlockTableRecord
  2
*D21
340
0
 70
     0
280
     1
281
     0
  0
BLOCK_RECORD
  5
422
330
1
100
AcDbSymbolTableRecord
100
AcDbBlockTableRecord
  2
*D22
340
0
 70
     0
280
     1
281
     0
  0
BLOCK_RECORD
  5
42C
330
1
100
AcDbSymbolTableRecord
100
AcDbBlockTableRecord
  2
*D23
340
0
 70
     0
280
     1
281
     0
  0
BLOCK_RECORD
  5
436
330
1
100
AcDbSymbolTableRecord
100
AcDbBlockTableRecord
  2
*D24
340
0
 70
     0
280
     1
281
     0
  0
BLOCK_RECORD
  5
440
330
1
100
AcDbSymbolTableRecord
100
AcDbBlockTableRecord
  2
*D25
340
0
 70
     0
280
     1
281
     0
  0
BLOCK_RECORD
  5
671
330
1
100
AcDbSymbolTableRecord
100
AcDbBlockTableRecord
  2
*D27
340
0
 70
     0
280
     1
281
     0
  0
ENDTAB
  0
ENDSEC
  0
SECTION
  2
BLOCKS
  0
BLOCK
  5
1A
330
19
100
AcDbEntity
  8
0
100
AcDbBlockBegin
  2
*MODEL_SPACE
 70
     0
 10
0.0
 20
0.0
 30
0.0
  3
*MODEL_SPACE
  1

  0
ENDBLK
  5
1B
330
19
100
AcDbEntity
  8
0
100
AcDbBlockEnd
  0
BLOCK
  5
17
330
16
100
AcDbEntity
 67
     1
  8
0
100
AcDbBlockBegin
  2
*PAPER_SPACE
 70
     0
 10
0.0
 20
0.0
 30
0.0
  3
*PAPER_SPACE
  1

  0
ENDBLK
  5
18
330
16
100
AcDbEntity
 67
     1
  8
0
100
AcDbBlockEnd
  0
BLOCK
  5
62
330
61
100
AcDbEntity
  8
0
100
AcDbBlockBegin
  2
BOX
 70
     0
 10
0.0
 20
0.0
 30
0.0
  3
BOX
  1

  0
3DSOLID
  5
63
330
61
100
AcDbEntity
  8
0
100
AcDbModelerGeometry
290
     1
  2
{4a930557-e00c-194f-a30e-bbc003781a43}
100
AcDb3dSolid
350
0
  0
ENDBLK
  5
64
330
61
100
AcDbEntity
  8
0
100
AcDbBlockEnd
  0
BLOCK
  5
67
330
66
100
AcDbEntity
  8
0
100
AcDbBlockBegin
  2
SPHERE
 70
     0
 10
0.0
 20
0.0
 30
0.0
  3
SPHERE
  1

  0
3DSOLID
  5
68
330
66
100
AcDbEntity
  8
0
100
AcDbModelerGeometry
290
     1
  2
{6fa94369-911d-7e48-b80c-1452d8d57114}
100
AcDb3dSolid
350
0
  0
ENDBLK
  5
69
330
66
100
AcDbEntity
  8
0
100
AcDbBlockEnd
  0
BLOCK
  5
A3
330
A2
100
AcDbEntity
  8
0
100
AcDbBlockBegin
  2
UX
 70
     0
 10
0.0
 20
0.0
 30
0.0
  3
UX
  1

  0
POLYLINE
  5
A4
330
A2
100
AcDbEntity
  8
0
100
AcDbPolygonMesh
 66
     1
 10
0.0
 20
0.0
 30
0.0
 70
    16
 71
     4
 72
     4
  0
VERTEX
  5
A5
330
A4
100
AcDbEntity
  8
0
100
AcDbVertex
100
AcDbPolygonMeshVertex
 10
0.0
 20
0.0
 30
0.0
 70
    64
  0
VERTEX
  5
A6
330
A4
100
AcDbEntity
  8
0
100
AcDbVertex
100
AcDbPolygonMeshVertex
 10
0.0
 20
0.0
 30
0.0
 70
    64
  0
VERTEX
  5
A7
330
A4
100
AcDbEntity
  8
0
100
AcDbVertex
100
AcDbPolygonMeshVertex
 10
0.0
 20
0.0
 30
0.0
 70
    64
  0
VERTEX
  5
A8
330
A4
100
AcDbEntity
  8
0
100
AcDbVertex
100
AcDbPolygonMeshVertex
 10
0.0
 20
0.0
 30
0.0
 70
    64
  0
VERTEX
  5
A9
330
A4
100
AcDbEntity
  8
0
100
AcDbVertex
100
AcDbPolygonMeshVertex
 10
0.0
 20
0.0
 30
0.0
 70
    64
  0
VERTEX
  5
AA
330
A4
100
AcDbEntity
  8
0
100
AcDbVertex
100
AcDbPolygonMeshVertex
 10
-1.0
 20
0.5
 30
0.5
 70
    64
  0
VERTEX
  5
AB
330
A4
100
AcDbEntity
  8
0
100
AcDbVertex
100
AcDbPolygonMeshVertex
 10
-1.0
 20
0.5
 30
-0.5
 70
    64
  0
VERTEX
  5
AC
330
A4
100
AcDbEntity
  8
0
100
AcDbVertex
100
AcDbPolygonMeshVertex
 10
0.0
 20
0.0
 30
0.0
 70
    64
  0
VERTEX
  5
AD
330
A4
100
AcDbEntity
  8
0
100
AcDbVertex
100
AcDbPolygonMeshVertex
 10
0.0
 20
0.0
 30
0.0
 70
    64
  0
VERTEX
  5
AE
330
A4
100
AcDbEntity
  8
0
100
AcDbVertex
100
AcDbPolygonMeshVertex
 10
-1.0
 20
-0.5
 30
0.5
 70
    64
  0
VERTEX
  5
AF
330
A4
100
AcDbEntity
  8
0
100
AcDbVertex
100
AcDbPolygonMeshVertex
 10
-1.0
 20
-0.5
 30
-0.5
 70
    64
  0
VERTEX
  5
B0
330
A4
100
AcDbEntity
  8
0
100
AcDbVertex
100
AcDbPolygonMeshVertex
 10
0.0
 20
0.0
 30
0.0
 70
    64
  0
VERTEX
  5
B1
330
A4
100
AcDbEntity
  8
0
100
AcDbVertex
100
AcDbPolygonMeshVertex
 10
0.0
 20
0.0
 30
0.0
 70
    64
  0
VERTEX
  5
B2
330
A4
100
AcDbEntity
  8
0
100
AcDbVertex
100
AcDbPolygonMeshVertex
 10
0.0
 20
0.0
 30
0.0
 70
    64
  0
VERTEX
  5
B3
330
A4
100
AcDbEntity
  8
0
100
AcDbVertex
100
AcDbPolygonMeshVertex
 10
0.0
 20
0.0
 30
0.0
 70
    64
  0
VERTEX
  5
B4
330
A4
100
AcDbEntity
  8
0
100
AcDbVertex
100
AcDbPolygonMeshVertex
 10
0.0
 20
0.0
 30
0.0
 70
    64
  0
SEQEND
  5
B5
330
A4
100
AcDbEntity
  8
0
  0
ENDBLK
  5
B6
330
A2
100
AcDbEntity
  8
0
100
AcDbBlockEnd
  0
BLOCK
  5
B8
330
B7
100
AcDbEntity
  8
0
100
AcDbBlockBegin
  2
UY
 70
     0
 10
0.0
 20
0.0
 30
0.0
  3
UY
  1

  0
POLYLINE
  5
B9
330
B7
100
AcDbEntity
  8
0
100
AcDbPolygonMesh
 66
     1
 10
0.0
 20
0.0
 30
0.0
 70
    16
 71
     4
 72
     4
  0
VERTEX
  5
BA
330
B9
100
AcDbEntity
  8
0
100
AcDbVertex
100
AcDbPolygonMeshVertex
 10
0.0
 20
0.0
 30
0.0
 70
    64
  0
VERTEX
  5
BB
330
B9
100
AcDbEntity
  8
0
100
AcDbVertex
100
AcDbPolygonMeshVertex
 10
0.0
 20
0.0
 30
0.0
 70
    64
  0
VERTEX
  5
BC
330
B9
100
AcDbEntity
  8
0
100
AcDbVertex
100
AcDbPolygonMeshVertex
 10
0.0
 20
0.0
 30
0.0
 70
    64
  0
VERTEX
  5
BD
330
B9
100
AcDbEntity
  8
0
100
AcDbVertex
100
AcDbPolygonMeshVertex
 10
0.0
 20
0.0
 30
0.0
 70
    64
  0
VERTEX
  5
BE
330
B9
100
AcDbEntity
  8
0
100
AcDbVertex
100
AcDbPolygonMeshVertex
 10
0.0
 20
0.0
 30
0.0
 70
    64
  0
VERTEX
  5
BF
330
B9
100
AcDbEntity
  8
0
100
AcDbVertex
100
AcDbPolygonMeshVertex
 10
-0.5
 20
-1.0
 30
0.5
 70
    64
  0
VERTEX
  5
C0
330
B9
100
AcDbEntity
  8
0
100
AcDbVertex
100
AcDbPolygonMeshVertex
 10
-0.5
 20
-1.0
 30
-0.5
 70
    64
  0
VERTEX
  5
C1
330
B9
100
AcDbEntity
  8
0
100
AcDbVertex
100
AcDbPolygonMeshVertex
 10
0.0
 20
0.0
 30
0.0
 70
    64
  0
VERTEX
  5
C2
330
B9
100
AcDbEntity
  8
0
100
AcDbVertex
100
AcDbPolygonMeshVertex
 10
0.0
 20
0.0
 30
0.0
 70
    64
  0
VERTEX
  5
C3
330
B9
100
AcDbEntity
  8
0
100
AcDbVertex
100
AcDbPolygonMeshVertex
 10
0.5
 20
-1.0
 30
0.5
 70
    64
  0
VERTEX
  5
C4
330
B9
100
AcDbEntity
  8
0
100
AcDbVertex
100
AcDbPolygonMeshVertex
 10
0.5
 20
-1.0
 30
-0.5
 70
    64
  0
VERTEX
  5
C5
330
B9
100
AcDbEntity
  8
0
100
AcDbVertex
100
AcDbPolygonMeshVertex
 10
0.0
 20
0.0
 30
0.0
 70
    64
  0
VERTEX
  5
C6
330
B9
100
AcDbEntity
  8
0
100
AcDbVertex
100
AcDbPolygonMeshVertex
 10
0.0
 20
0.0
 30
0.0
 70
    64
  0
VERTEX
  5
C7
330
B9
100
AcDbEntity
  8
0
100
AcDbVertex
100
AcDbPolygonMeshVertex
 10
0.0
 20
0.0
 30
0.0
 70
    64
  0
VERTEX
  5
C8
330
B9
100
AcDbEntity
  8
0
100
AcDbVertex
100
AcDbPolygonMeshVertex
 10
0.0
 20
0.0
 30
0.0
 70
    64
  0
VERTEX
  5
C9
330
B9
100
AcDbEntity
  8
0
100
AcDbVertex
100
AcDbPolygonMeshVertex
 10
0.0
 20
0.0
 30
0.0
 70
    64
  0
SEQEND
  5
CA
330
B9
100
AcDbEntity
  8
0
  0
ENDBLK
  5
CB
330
B7
100
AcDbEntity
  8
0
100
AcDbBlockEnd
  0
BLOCK
  5
CD
330
CC
100
AcDbEntity
  8
0
100
AcDbBlockBegin
  2
UZ
 70
     0
 10
0.0
 20
0.0
 30
0.0
  3
UZ
  1

  0
POLYLINE
  5
CE
330
CC
100
AcDbEntity
  8
0
100
AcDbPolygonMesh
 66
     1
 10
0.0
 20
0.0
 30
0.0
 70
    16
 71
     4
 72
     4
  0
VERTEX
  5
CF
330
CE
100
AcDbEntity
  8
0
100
AcDbVertex
100
AcDbPolygonMeshVertex
 10
0.0
 20
0.0
 30
0.0
 70
    64
  0
VERTEX
  5
D0
330
CE
100
AcDbEntity
  8
0
100
AcDbVertex
100
AcDbPolygonMeshVertex
 10
0.0
 20
0.0
 30
0.0
 70
    64
  0
VERTEX
  5
D1
330
CE
100
AcDbEntity
  8
0
100
AcDbVertex
100
AcDbPolygonMeshVertex
 10
0.0
 20
0.0
 30
0.0
 70
    64
  0
VERTEX
  5
D2
330
CE
100
AcDbEntity
  8
0
100
AcDbVertex
100
AcDbPolygonMeshVertex
 10
0.0
 20
0.0
 30
0.0
 70
    64
  0
VERTEX
  5
D3
330
CE
100
AcDbEntity
  8
0
100
AcDbVertex
100
AcDbPolygonMeshVertex
 10
0.0
 20
0.0
 30
0.0
 70
    64
  0
VERTEX
  5
D4
330
CE
100
AcDbEntity
  8
0
100
AcDbVertex
100
AcDbPolygonMeshVertex
 10
-0.5
 20
0.5
 30
-1.0
 70
    64
  0
VERTEX
  5
D5
330
CE
100
AcDbEntity
  8
0
100
AcDbVertex
100
AcDbPolygonMeshVertex
 10
0.5
 20
0.5
 30
-1.0
 70
    64
  0
VERTEX
  5
D6
330
CE
100
AcDbEntity
  8
0
100
AcDbVertex
100
AcDbPolygonMeshVertex
 10
0.0
 20
0.0
 30
0.0
 70
    64
  0
VERTEX
  5
D7
330
CE
100
AcDbEntity
  8
0
100
AcDbVertex
100
AcDbPolygonMeshVertex
 10
0.0
 20
0.0
 30
0.0
 70
    64
  0
VERTEX
  5
D8
330
CE
100
AcDbEntity
  8
0
100
AcDbVertex
100
AcDbPolygonMeshVertex
 10
-0.5
 20
-0.5
 30
-1.0
 70
    64
  0
VERTEX
  5
D9
330
CE
100
AcDbEntity
  8
0
100
AcDbVertex
100
AcDbPolygonMeshVertex
 10
0.5
 20
-0.5
 30
-1.0
 70
    64
  0
VERTEX
  5
DA
330
CE
100
AcDbEntity
  8
0
100
AcDbVertex
100
AcDbPolygonMeshVertex
 10
0.0
 20
0.0
 30
0.0
 70
    64
  0
VERTEX
  5
DB
330
CE
100
AcDbEntity
  8
0
100
AcDbVertex
100
AcDbPolygonMeshVertex
 10
0.0
 20
0.0
 30
0.0
 70
    64
  0
VERTEX
  5
DC
330
CE
100
AcDbEntity
  8
0
100
AcDbVertex
100
AcDbPolygonMeshVertex
 10
0.0
 20
0.0
 30
0.0
 70
    64
  0
VERTEX
  5
DD
330
CE
100
AcDbEntity
  8
0
100
AcDbVertex
100
AcDbPolygonMeshVertex
 10
0.0
 20
0.0
 30
0.0
 70
    64
  0
VERTEX
  5
DE
330
CE
100
AcDbEntity
  8
0
100
AcDbVertex
100
AcDbPolygonMeshVertex
 10
0.0
 20
0.0
 30
0.0
 70
    64
  0
SEQEND
  5
DF
330
CE
100
AcDbEntity
  8
0
  0
ENDBLK
  5
E0
330
CC
100
AcDbEntity
  8
0
100
AcDbBlockEnd
  0
BLOCK
  5
1B9
330
1B8
100
AcDbEntity
  8
0
100
AcDbBlockBegin
  2
RX
 70
     0
 10
0.0
 20
0.0
 30
0.0
  3
RX
  1

  0
POLYLINE
  5
1BA
330
1B8
100
AcDbEntity
  8
0
100
AcDbPolygonMesh
 66
     1
 10
0.0
 20
0.0
 30
0.0
 70
    48
 71
     2
 72
    16
  0
VERTEX
  5
1BB
330
1BA
100
AcDbEntity
  8
0
100
AcDbVertex
100
AcDbPolygonMeshVertex
 10
-1.0
 20
0.0
 30
-0.5
 70
    64
  0
VERTEX
  5
1BC
330
1BA
100
AcDbEntity
  8
0
100
AcDbVertex
100
AcDbPolygonMeshVertex
 10
-1.0
 20
0.191342
 30
-0.46194
 70
    64
  0
VERTEX
  5
1BD
330
1BA
100
AcDbEntity
  8
0
100
AcDbVertex
100
AcDbPolygonMeshVertex
 10
-1.0
 20
0.353553
 30
-0.353553
 70
    64
  0
VERTEX
  5
1BE
330
1BA
100
AcDbEntity
  8
0
100
AcDbVertex
100
AcDbPolygonMeshVertex
 10
-1.0
 20
0.46194
 30
-0.191342
 70
    64
  0
VERTEX
  5
1BF
330
1BA
100
AcDbEntity
  8
0
100
AcDbVertex
100
AcDbPolygonMeshVertex
 10
-1.0
 20
0.5
 30
0.0
 70
    64
  0
VERTEX
  5
1C0
330
1BA
100
AcDbEntity
  8
0
100
AcDbVertex
100
AcDbPolygonMeshVertex
 10
-1.0
 20
0.46194
 30
0.191342
 70
    64
  0
VERTEX
  5
1C1
330
1BA
100
AcDbEntity
  8
0
100
AcDbVertex
100
AcDbPolygonMeshVertex
 10
-1.0
 20
0.353553
 30
0.353553
 70
    64
  0
VERTEX
  5
1C2
330
1BA
100
AcDbEntity
  8
0
100
AcDbVertex
100
AcDbPolygonMeshVertex
 10
-1.0
 20
0.191342
 30
0.46194
 70
    64
  0
VERTEX
  5
1C3
330
1BA
100
AcDbEntity
  8
0
100
AcDbVertex
100
AcDbPolygonMeshVertex
 10
-1.0
 20
0.0
 30
0.5
 70
    64
  0
VERTEX
  5
1C4
330
1BA
100
AcDbEntity
  8
0
100
AcDbVertex
100
AcDbPolygonMeshVertex
 10
-1.0
 20
-0.191342
 30
0.46194
 70
    64
  0
VERTEX
  5
1C5
330
1BA
100
AcDbEntity
  8
0
100
AcDbVertex
100
AcDbPolygonMeshVertex
 10
-1.0
 20
-0.353553
 30
0.353553
 70
    64
  0
VERTEX
  5
1C6
330
1BA
100
AcDbEntity
  8
0
100
AcDbVertex
100
AcDbPolygonMeshVertex
 10
-1.0
 20
-0.46194
 30
0.191342
 70
    64
  0
VERTEX
  5
1C7
330
1BA
100
AcDbEntity
  8
0
100
AcDbVertex
100
AcDbPolygonMeshVertex
 10
-1.0
 20
-0.5
 30
0.0
 70
    64
  0
VERTEX
  5
1C8
330
1BA
100
AcDbEntity
  8
0
100
AcDbVertex
100
AcDbPolygonMeshVertex
 10
-1.0
 20
-0.46194
 30
-0.191342
 70
    64
  0
VERTEX
  5
1C9
330
1BA
100
AcDbEntity
  8
0
100
AcDbVertex
100
AcDbPolygonMeshVertex
 10
-1.0
 20
-0.353553
 30
-0.353553
 70
    64
  0
VERTEX
  5
1CA
330
1BA
100
AcDbEntity
  8
0
100
AcDbVertex
100
AcDbPolygonMeshVertex
 10
-1.0
 20
-0.191342
 30
-0.46194
 70
    64
  0
VERTEX
  5
1CB
330
1BA
100
AcDbEntity
  8
0
100
AcDbVertex
100
AcDbPolygonMeshVertex
 10
0.0
 20
0.0
 30
0.0
 70
    64
  0
VERTEX
  5
1CC
330
1BA
100
AcDbEntity
  8
0
100
AcDbVertex
100
AcDbPolygonMeshVertex
 10
0.0
 20
0.0
 30
0.0
 70
    64
  0
VERTEX
  5
1CD
330
1BA
100
AcDbEntity
  8
0
100
AcDbVertex
100
AcDbPolygonMeshVertex
 10
0.0
 20
0.0
 30
0.0
 70
    64
  0
VERTEX
  5
1CE
330
1BA
100
AcDbEntity
  8
0
100
AcDbVertex
100
AcDbPolygonMeshVertex
 10
0.0
 20
0.0
 30
0.0
 70
    64
  0
VERTEX
  5
1CF
330
1BA
100
AcDbEntity
  8
0
100
AcDbVertex
100
AcDbPolygonMeshVertex
 10
0.0
 20
0.0
 30
0.0
 70
    64
  0
VERTEX
  5
1D0
330
1BA
100
AcDbEntity
  8
0
100
AcDbVertex
100
AcDbPolygonMeshVertex
 10
0.0
 20
0.0
 30
0.0
 70
    64
  0
VERTEX
  5
1D1
330
1BA
100
AcDbEntity
  8
0
100
AcDbVertex
100
AcDbPolygonMeshVertex
 10
0.0
 20
0.0
 30
0.0
 70
    64
  0
VERTEX
  5
1D2
330
1BA
100
AcDbEntity
  8
0
100
AcDbVertex
100
AcDbPolygonMeshVertex
 10
0.0
 20
0.0
 30
0.0
 70
    64
  0
VERTEX
  5
1D3
330
1BA
100
AcDbEntity
  8
0
100
AcDbVertex
100
AcDbPolygonMeshVertex
 10
0.0
 20
0.0
 30
0.0
 70
    64
  0
VERTEX
  5
1D4
330
1BA
100
AcDbEntity
  8
0
100
AcDbVertex
100
AcDbPolygonMeshVertex
 10
0.0
 20
0.0
 30
0.0
 70
    64
  0
VERTEX
  5
1D5
330
1BA
100
AcDbEntity
  8
0
100
AcDbVertex
100
AcDbPolygonMeshVertex
 10
0.0
 20
0.0
 30
0.0
 70
    64
  0
VERTEX
  5
1D6
330
1BA
100
AcDbEntity
  8
0
100
AcDbVertex
100
AcDbPolygonMeshVertex
 10
0.0
 20
0.0
 30
0.0
 70
    64
  0
VERTEX
  5
1D7
330
1BA
100
AcDbEntity
  8
0
100
AcDbVertex
100
AcDbPolygonMeshVertex
 10
0.0
 20
0.0
 30
0.0
 70
    64
  0
VERTEX
  5
1D8
330
1BA
100
AcDbEntity
  8
0
100
AcDbVertex
100
AcDbPolygonMeshVertex
 10
0.0
 20
0.0
 30
0.0
 70
    64
  0
VERTEX
  5
1D9
330
1BA
100
AcDbEntity
  8
0
100
AcDbVertex
100
AcDbPolygonMeshVertex
 10
0.0
 20
0.0
 30
0.0
 70
    64
  0
VERTEX
  5
1DA
330
1BA
100
AcDbEntity
  8
0
100
AcDbVertex
100
AcDbPolygonMeshVertex
 10
0.0
 20
0.0
 30
0.0
 70
    64
  0
SEQEND
  5
1DB
330
1BA
100
AcDbEntity
  8
0
  0
POLYLINE
  5
1DC
330
1B8
100
AcDbEntity
  8
0
100
AcDbPolygonMesh
 66
     1
 10
0.0
 20
0.0
 30
0.0
 70
    48
 71
     2
 72
    16
  0
VERTEX
  5
1DD
330
1DC
100
AcDbEntity
  8
0
100
AcDbVertex
100
AcDbPolygonMeshVertex
 10
-2.0
 20
0.0
 30
-0.5
 70
    64
  0
VERTEX
  5
1DE
330
1DC
100
AcDbEntity
  8
0
100
AcDbVertex
100
AcDbPolygonMeshVertex
 10
-2.0
 20
0.191342
 30
-0.46194
 70
    64
  0
VERTEX
  5
1DF
330
1DC
100
AcDbEntity
  8
0
100
AcDbVertex
100
AcDbPolygonMeshVertex
 10
-2.0
 20
0.353553
 30
-0.353553
 70
    64
  0
VERTEX
  5
1E0
330
1DC
100
AcDbEntity
  8
0
100
AcDbVertex
100
AcDbPolygonMeshVertex
 10
-2.0
 20
0.46194
 30
-0.191342
 70
    64
  0
VERTEX
  5
1E1
330
1DC
100
AcDbEntity
  8
0
100
AcDbVertex
100
AcDbPolygonMeshVertex
 10
-2.0
 20
0.5
 30
0.0
 70
    64
  0
VERTEX
  5
1E2
330
1DC
100
AcDbEntity
  8
0
100
AcDbVertex
100
AcDbPolygonMeshVertex
 10
-2.0
 20
0.46194
 30
0.191342
 70
    64
  0
VERTEX
  5
1E3
330
1DC
100
AcDbEntity
  8
0
100
AcDbVertex
100
AcDbPolygonMeshVertex
 10
-2.0
 20
0.353553
 30
0.353553
 70
    64
  0
VERTEX
  5
1E4
330
1DC
100
AcDbEntity
  8
0
100
AcDbVertex
100
AcDbPolygonMeshVertex
 10
-2.0
 20
0.191342
 30
0.46194
 70
    64
  0
VERTEX
  5
1E5
330
1DC
100
AcDbEntity
  8
0
100
AcDbVertex
100
AcDbPolygonMeshVertex
 10
-2.0
 20
0.0
 30
0.5
 70
    64
  0
VERTEX
  5
1E6
330
1DC
100
AcDbEntity
  8
0
100
AcDbVertex
100
AcDbPolygonMeshVertex
 10
-2.0
 20
-0.191342
 30
0.46194
 70
    64
  0
VERTEX
  5
1E7
330
1DC
100
AcDbEntity
  8
0
100
AcDbVertex
100
AcDbPolygonMeshVertex
 10
-2.0
 20
-0.353553
 30
0.353553
 70
    64
  0
VERTEX
  5
1E8
330
1DC
100
AcDbEntity
  8
0
100
AcDbVertex
100
AcDbPolygonMeshVertex
 10
-2.0
 20
-0.46194
 30
0.191342
 70
    64
  0
VERTEX
  5
1E9
330
1DC
100
AcDbEntity
  8
0
100
AcDbVertex
100
AcDbPolygonMeshVertex
 10
-2.0
 20
-0.5
 30
0.0
 70
    64
  0
VERTEX
  5
1EA
330
1DC
100
AcDbEntity
  8
0
100
AcDbVertex
100
AcDbPolygonMeshVertex
 10
-2.0
 20
-0.46194
 30
-0.191342
 70
    64
  0
VERTEX
  5
1EB
330
1DC
100
AcDbEntity
  8
0
100
AcDbVertex
100
AcDbPolygonMeshVertex
 10
-2.0
 20
-0.353553
 30
-0.353553
 70
    64
  0
VERTEX
  5
1EC
330
1DC
100
AcDbEntity
  8
0
100
AcDbVertex
100
AcDbPolygonMeshVertex
 10
-2.0
 20
-0.191342
 30
-0.46194
 70
    64
  0
VERTEX
  5
1ED
330
1DC
100
AcDbEntity
  8
0
100
AcDbVertex
100
AcDbPolygonMeshVertex
 10
-1.0
 20
0.0
 30
0.0
 70
    64
  0
VERTEX
  5
1EE
330
1DC
100
AcDbEntity
  8
0
100
AcDbVertex
100
AcDbPolygonMeshVertex
 10
-1.0
 20
0.0
 30
0.0
 70
    64
  0
VERTEX
  5
1EF
330
1DC
100
AcDbEntity
  8
0
100
AcDbVertex
100
AcDbPolygonMeshVertex
 10
-1.0
 20
0.0
 30
0.0
 70
    64
  0
VERTEX
  5
1F0
330
1DC
100
AcDbEntity
  8
0
100
AcDbVertex
100
AcDbPolygonMeshVertex
 10
-1.0
 20
0.0
 30
0.0
 70
    64
  0
VERTEX
  5
1F1
330
1DC
100
AcDbEntity
  8
0
100
AcDbVertex
100
AcDbPolygonMeshVertex
 10
-1.0
 20
0.0
 30
0.0
 70
    64
  0
VERTEX
  5
1F2
330
1DC
100
AcDbEntity
  8
0
100
AcDbVertex
100
AcDbPolygonMeshVertex
 10
-1.0
 20
0.0
 30
0.0
 70
    64
  0
VERTEX
  5
1F3
330
1DC
100
AcDbEntity
  8
0
100
AcDbVertex
100
AcDbPolygonMeshVertex
 10
-1.0
 20
0.0
 30
0.0
 70
    64
  0
VERTEX
  5
1F4
330
1DC
100
AcDbEntity
  8
0
100
AcDbVertex
100
AcDbPolygonMeshVertex
 10
-1.0
 20
0.0
 30
0.0
 70
    64
  0
VERTEX
  5
1F5
330
1DC
100
AcDbEntity
  8
0
100
AcDbVertex
100
AcDbPolygonMeshVertex
 10
-1.0
 20
0.0
 30
0.0
 70
    64
  0
VERTEX
  5
1F6
330
1DC
100
AcDbEntity
  8
0
100
AcDbVertex
100
AcDbPolygonMeshVertex
 10
-1.0
 20
0.0
 30
0.0
 70
    64
  0
VERTEX
  5
1F7
330
1DC
100
AcDbEntity
  8
0
100
AcDbVertex
100
AcDbPolygonMeshVertex
 10
-1.0
 20
0.0
 30
0.0
 70
    64
  0
VERTEX
  5
1F8
330
1DC
100
AcDbEntity
  8
0
100
AcDbVertex
100
AcDbPolygonMeshVertex
 10
-1.0
 20
0.0
 30
0.0
 70
    64
  0
VERTEX
  5
1F9
330
1DC
100
AcDbEntity
  8
0
100
AcDbVertex
100
AcDbPolygonMeshVertex
 10
-1.0
 20
0.0
 30
0.0
 70
    64
  0
VERTEX
  5
1FA
330
1DC
100
AcDbEntity
  8
0
100
AcDbVertex
100
AcDbPolygonMeshVertex
 10
-1.0
 20
0.0
 30
0.0
 70
    64
  0
VERTEX
  5
1FB
330
1DC
100
AcDbEntity
  8
0
100
AcDbVertex
100
AcDbPolygonMeshVertex
 10
-1.0
 20
0.0
 30
0.0
 70
    64
  0
VERTEX
  5
1FC
330
1DC
100
AcDbEntity
  8
0
100
AcDbVertex
100
AcDbPolygonMeshVertex
 10
-1.0
 20
0.0
 30
0.0
 70
    64
  0
SEQEND
  5
1FD
330
1DC
100
AcDbEntity
  8
0
  0
ENDBLK
  5
1FE
330
1B8
100
AcDbEntity
  8
0
100
AcDbBlockEnd
  0
BLOCK
  5
200
330
1FF
100
AcDbEntity
  8
0
100
AcDbBlockBegin
  2
RY
 70
     0
 10
0.0
 20
0.0
 30
0.0
  3
RY
  1

  0
POLYLINE
  5
201
330
1FF
100
AcDbEntity
  8
0
100
AcDbPolygonMesh
 66
     1
 10
0.0
 20
0.0
 30
0.0
 70
    48
 71
     2
 72
    16
  0
VERTEX
  5
202
330
201
100
AcDbEntity
  8
0
100
AcDbVertex
100
AcDbPolygonMeshVertex
 10
0.0
 20
-1.0
 30
-0.5
 70
    64
  0
VERTEX
  5
203
330
201
100
AcDbEntity
  8
0
100
AcDbVertex
100
AcDbPolygonMeshVertex
 10
-0.191342
 20
-1.0
 30
-0.46194
 70
    64
  0
VERTEX
  5
204
330
201
100
AcDbEntity
  8
0
100
AcDbVertex
100
AcDbPolygonMeshVertex
 10
-0.353553
 20
-1.0
 30
-0.353553
 70
    64
  0
VERTEX
  5
205
330
201
100
AcDbEntity
  8
0
100
AcDbVertex
100
AcDbPolygonMeshVertex
 10
-0.46194
 20
-1.0
 30
-0.191342
 70
    64
  0
VERTEX
  5
206
330
201
100
AcDbEntity
  8
0
100
AcDbVertex
100
AcDbPolygonMeshVertex
 10
-0.5
 20
-1.0
 30
0.0
 70
    64
  0
VERTEX
  5
207
330
201
100
AcDbEntity
  8
0
100
AcDbVertex
100
AcDbPolygonMeshVertex
 10
-0.46194
 20
-1.0
 30
0.191342
 70
    64
  0
VERTEX
  5
208
330
201
100
AcDbEntity
  8
0
100
AcDbVertex
100
AcDbPolygonMeshVertex
 10
-0.353553
 20
-1.0
 30
0.353553
 70
    64
  0
VERTEX
  5
209
330
201
100
AcDbEntity
  8
0
100
AcDbVertex
100
AcDbPolygonMeshVertex
 10
-0.191342
 20
-1.0
 30
0.46194
 70
    64
  0
VERTEX
  5
20A
330
201
100
AcDbEntity
  8
0
100
AcDbVertex
100
AcDbPolygonMeshVertex
 10
0.0
 20
-1.0
 30
0.5
 70
    64
  0
VERTEX
  5
20B
330
201
100
AcDbEntity
  8
0
100
AcDbVertex
100
AcDbPolygonMeshVertex
 10
0.191342
 20
-1.0
 30
0.46194
 70
    64
  0
VERTEX
  5
20C
330
201
100
AcDbEntity
  8
0
100
AcDbVertex
100
AcDbPolygonMeshVertex
 10
0.353553
 20
-1.0
 30
0.353553
 70
    64
  0
VERTEX
  5
20D
330
201
100
AcDbEntity
  8
0
100
AcDbVertex
100
AcDbPolygonMeshVertex
 10
0.46194
 20
-1.0
 30
0.191342
 70
    64
  0
VERTEX
  5
20E
330
201
100
AcDbEntity
  8
0
100
AcDbVertex
100
AcDbPolygonMeshVertex
 10
0.5
 20
-1.0
 30
0.0
 70
    64
  0
VERTEX
  5
20F
330
201
100
AcDbEntity
  8
0
100
AcDbVertex
100
AcDbPolygonMeshVertex
 10
0.46194
 20
-1.0
 30
-0.191342
 70
    64
  0
VERTEX
  5
210
330
201
100
AcDbEntity
  8
0
100
AcDbVertex
100
AcDbPolygonMeshVertex
 10
0.353553
 20
-1.0
 30
-0.353553
 70
    64
  0
VERTEX
  5
211
330
201
100
AcDbEntity
  8
0
100
AcDbVertex
100
AcDbPolygonMeshVertex
 10
0.191342
 20
-1.0
 30
-0.46194
 70
    64
  0
VERTEX
  5
212
330
201
100
AcDbEntity
  8
0
100
AcDbVertex
100
AcDbPolygonMeshVertex
 10
0.0
 20
0.0
 30
0.0
 70
    64
  0
VERTEX
  5
213
330
201
100
AcDbEntity
  8
0
100
AcDbVertex
100
AcDbPolygonMeshVertex
 10
0.0
 20
0.0
 30
0.0
 70
    64
  0
VERTEX
  5
214
330
201
100
AcDbEntity
  8
0
100
AcDbVertex
100
AcDbPolygonMeshVertex
 10
0.0
 20
0.0
 30
0.0
 70
    64
  0
VERTEX
  5
215
330
201
100
AcDbEntity
  8
0
100
AcDbVertex
100
AcDbPolygonMeshVertex
 10
0.0
 20
0.0
 30
0.0
 70
    64
  0
VERTEX
  5
216
330
201
100
AcDbEntity
  8
0
100
AcDbVertex
100
AcDbPolygonMeshVertex
 10
0.0
 20
0.0
 30
0.0
 70
    64
  0
VERTEX
  5
217
330
201
100
AcDbEntity
  8
0
100
AcDbVertex
100
AcDbPolygonMeshVertex
 10
0.0
 20
0.0
 30
0.0
 70
    64
  0
VERTEX
  5
218
330
201
100
AcDbEntity
  8
0
100
AcDbVertex
100
AcDbPolygonMeshVertex
 10
0.0
 20
0.0
 30
0.0
 70
    64
  0
VERTEX
  5
219
330
201
100
AcDbEntity
  8
0
100
AcDbVertex
100
AcDbPolygonMeshVertex
 10
0.0
 20
0.0
 30
0.0
 70
    64
  0
VERTEX
  5
21A
330
201
100
AcDbEntity
  8
0
100
AcDbVertex
100
AcDbPolygonMeshVertex
 10
0.0
 20
0.0
 30
0.0
 70
    64
  0
VERTEX
  5
21B
330
201
100
AcDbEntity
  8
0
100
AcDbVertex
100
AcDbPolygonMeshVertex
 10
0.0
 20
0.0
 30
0.0
 70
    64
  0
VERTEX
  5
21C
330
201
100
AcDbEntity
  8
0
100
AcDbVertex
100
AcDbPolygonMeshVertex
 10
0.0
 20
0.0
 30
0.0
 70
    64
  0
VERTEX
  5
21D
330
201
100
AcDbEntity
  8
0
100
AcDbVertex
100
AcDbPolygonMeshVertex
 10
0.0
 20
0.0
 30
0.0
 70
    64
  0
VERTEX
  5
21E
330
201
100
AcDbEntity
  8
0
100
AcDbVertex
100
AcDbPolygonMeshVertex
 10
0.0
 20
0.0
 30
0.0
 70
    64
  0
VERTEX
  5
21F
330
201
100
AcDbEntity
  8
0
100
AcDbVertex
100
AcDbPolygonMeshVertex
 10
0.0
 20
0.0
 30
0.0
 70
    64
  0
VERTEX
  5
220
330
201
100
AcDbEntity
  8
0
100
AcDbVertex
100
AcDbPolygonMeshVertex
 10
0.0
 20
0.0
 30
0.0
 70
    64
  0
VERTEX
  5
221
330
201
100
AcDbEntity
  8
0
100
AcDbVertex
100
AcDbPolygonMeshVertex
 10
0.0
 20
0.0
 30
0.0
 70
    64
  0
SEQEND
  5
222
330
201
100
AcDbEntity
  8
0
  0
POLYLINE
  5
223
330
1FF
100
AcDbEntity
  8
0
100
AcDbPolygonMesh
 66
     1
 10
0.0
 20
0.0
 30
0.0
 70
    48
 71
     2
 72
    16
  0
VERTEX
  5
224
330
223
100
AcDbEntity
  8
0
100
AcDbVertex
100
AcDbPolygonMeshVertex
 10
0.0
 20
-2.0
 30
-0.5
 70
    64
  0
VERTEX
  5
225
330
223
100
AcDbEntity
  8
0
100
AcDbVertex
100
AcDbPolygonMeshVertex
 10
-0.191342
 20
-2.0
 30
-0.46194
 70
    64
  0
VERTEX
  5
226
330
223
100
AcDbEntity
  8
0
100
AcDbVertex
100
AcDbPolygonMeshVertex
 10
-0.353553
 20
-2.0
 30
-0.353553
 70
    64
  0
VERTEX
  5
227
330
223
100
AcDbEntity
  8
0
100
AcDbVertex
100
AcDbPolygonMeshVertex
 10
-0.46194
 20
-2.0
 30
-0.191342
 70
    64
  0
VERTEX
  5
228
330
223
100
AcDbEntity
  8
0
100
AcDbVertex
100
AcDbPolygonMeshVertex
 10
-0.5
 20
-2.0
 30
0.0
 70
    64
  0
VERTEX
  5
229
330
223
100
AcDbEntity
  8
0
100
AcDbVertex
100
AcDbPolygonMeshVertex
 10
-0.46194
 20
-2.0
 30
0.191342
 70
    64
  0
VERTEX
  5
22A
330
223
100
AcDbEntity
  8
0
100
AcDbVertex
100
AcDbPolygonMeshVertex
 10
-0.353553
 20
-2.0
 30
0.353553
 70
    64
  0
VERTEX
  5
22B
330
223
100
AcDbEntity
  8
0
100
AcDbVertex
100
AcDbPolygonMeshVertex
 10
-0.191342
 20
-2.0
 30
0.46194
 70
    64
  0
VERTEX
  5
22C
330
223
100
AcDbEntity
  8
0
100
AcDbVertex
100
AcDbPolygonMeshVertex
 10
0.0
 20
-2.0
 30
0.5
 70
    64
  0
VERTEX
  5
22D
330
223
100
AcDbEntity
  8
0
100
AcDbVertex
100
AcDbPolygonMeshVertex
 10
0.191342
 20
-2.0
 30
0.46194
 70
    64
  0
VERTEX
  5
22E
330
223
100
AcDbEntity
  8
0
100
AcDbVertex
100
AcDbPolygonMeshVertex
 10
0.353553
 20
-2.0
 30
0.353553
 70
    64
  0
VERTEX
  5
22F
330
223
100
AcDbEntity
  8
0
100
AcDbVertex
100
AcDbPolygonMeshVertex
 10
0.46194
 20
-2.0
 30
0.191342
 70
    64
  0
VERTEX
  5
230
330
223
100
AcDbEntity
  8
0
100
AcDbVertex
100
AcDbPolygonMeshVertex
 10
0.5
 20
-2.0
 30
0.0
 70
    64
  0
VERTEX
  5
231
330
223
100
AcDbEntity
  8
0
100
AcDbVertex
100
AcDbPolygonMeshVertex
 10
0.46194
 20
-2.0
 30
-0.191342
 70
    64
  0
VERTEX
  5
232
330
223
100
AcDbEntity
  8
0
100
AcDbVertex
100
AcDbPolygonMeshVertex
 10
0.353553
 20
-2.0
 30
-0.353553
 70
    64
  0
VERTEX
  5
233
330
223
100
AcDbEntity
  8
0
100
AcDbVertex
100
AcDbPolygonMeshVertex
 10
0.191342
 20
-2.0
 30
-0.46194
 70
    64
  0
VERTEX
  5
234
330
223
100
AcDbEntity
  8
0
100
AcDbVertex
100
AcDbPolygonMeshVertex
 10
0.0
 20
-1.0
 30
0.0
 70
    64
  0
VERTEX
  5
235
330
223
100
AcDbEntity
  8
0
100
AcDbVertex
100
AcDbPolygonMeshVertex
 10
0.0
 20
-1.0
 30
0.0
 70
    64
  0
VERTEX
  5
236
330
223
100
AcDbEntity
  8
0
100
AcDbVertex
100
AcDbPolygonMeshVertex
 10
0.0
 20
-1.0
 30
0.0
 70
    64
  0
VERTEX
  5
237
330
223
100
AcDbEntity
  8
0
100
AcDbVertex
100
AcDbPolygonMeshVertex
 10
0.0
 20
-1.0
 30
0.0
 70
    64
  0
VERTEX
  5
238
330
223
100
AcDbEntity
  8
0
100
AcDbVertex
100
AcDbPolygonMeshVertex
 10
0.0
 20
-1.0
 30
0.0
 70
    64
  0
VERTEX
  5
239
330
223
100
AcDbEntity
  8
0
100
AcDbVertex
100
AcDbPolygonMeshVertex
 10
0.0
 20
-1.0
 30
0.0
 70
    64
  0
VERTEX
  5
23A
330
223
100
AcDbEntity
  8
0
100
AcDbVertex
100
AcDbPolygonMeshVertex
 10
0.0
 20
-1.0
 30
0.0
 70
    64
  0
VERTEX
  5
23B
330
223
100
AcDbEntity
  8
0
100
AcDbVertex
100
AcDbPolygonMeshVertex
 10
0.0
 20
-1.0
 30
0.0
 70
    64
  0
VERTEX
  5
23C
330
223
100
AcDbEntity
  8
0
100
AcDbVertex
100
AcDbPolygonMeshVertex
 10
0.0
 20
-1.0
 30
0.0
 70
    64
  0
VERTEX
  5
23D
330
223
100
AcDbEntity
  8
0
100
AcDbVertex
100
AcDbPolygonMeshVertex
 10
0.0
 20
-1.0
 30
0.0
 70
    64
  0
VERTEX
  5
23E
330
223
100
AcDbEntity
  8
0
100
AcDbVertex
100
AcDbPolygonMeshVertex
 10
0.0
 20
-1.0
 30
0.0
 70
    64
  0
VERTEX
  5
23F
330
223
100
AcDbEntity
  8
0
100
AcDbVertex
100
AcDbPolygonMeshVertex
 10
0.0
 20
-1.0
 30
0.0
 70
    64
  0
VERTEX
  5
240
330
223
100
AcDbEntity
  8
0
100
AcDbVertex
100
AcDbPolygonMeshVertex
 10
0.0
 20
-1.0
 30
0.0
 70
    64
  0
VERTEX
  5
241
330
223
100
AcDbEntity
  8
0
100
AcDbVertex
100
AcDbPolygonMeshVertex
 10
0.0
 20
-1.0
 30
0.0
 70
    64
  0
VERTEX
  5
242
330
223
100
AcDbEntity
  8
0
100
AcDbVertex
100
AcDbPolygonMeshVertex
 10
0.0
 20
-1.0
 30
0.0
 70
    64
  0
VERTEX
  5
243
330
223
100
AcDbEntity
  8
0
100
AcDbVertex
100
AcDbPolygonMeshVertex
 10
0.0
 20
-1.0
 30
0.0
 70
    64
  0
SEQEND
  5
244
330
223
100
AcDbEntity
  8
0
  0
ENDBLK
  5
245
330
1FF
100
AcDbEntity
  8
0
100
AcDbBlockEnd
  0
BLOCK
  5
247
330
246
100
AcDbEntity
  8
0
100
AcDbBlockBegin
  2
RZ
 70
     0
 10
0.0
 20
0.0
 30
0.0
  3
RZ
  1

  0
POLYLINE
  5
248
330
246
100
AcDbEntity
  8
0
100
AcDbPolygonMesh
 66
     1
 10
0.0
 20
0.0
 30
0.0
 70
    48
 71
     2
 72
    16
  0
VERTEX
  5
249
330
248
100
AcDbEntity
  8
0
100
AcDbVertex
100
AcDbPolygonMeshVertex
 10
0.5
 20
0.0
 30
-1.0
 70
    64
  0
VERTEX
  5
24A
330
248
100
AcDbEntity
  8
0
100
AcDbVertex
100
AcDbPolygonMeshVertex
 10
0.46194
 20
0.191342
 30
-1.0
 70
    64
  0
VERTEX
  5
24B
330
248
100
AcDbEntity
  8
0
100
AcDbVertex
100
AcDbPolygonMeshVertex
 10
0.353553
 20
0.353553
 30
-1.0
 70
    64
  0
VERTEX
  5
24C
330
248
100
AcDbEntity
  8
0
100
AcDbVertex
100
AcDbPolygonMeshVertex
 10
0.191342
 20
0.46194
 30
-1.0
 70
    64
  0
VERTEX
  5
24D
330
248
100
AcDbEntity
  8
0
100
AcDbVertex
100
AcDbPolygonMeshVertex
 10
0.0
 20
0.5
 30
-1.0
 70
    64
  0
VERTEX
  5
24E
330
248
100
AcDbEntity
  8
0
100
AcDbVertex
100
AcDbPolygonMeshVertex
 10
-0.191342
 20
0.46194
 30
-1.0
 70
    64
  0
VERTEX
  5
24F
330
248
100
AcDbEntity
  8
0
100
AcDbVertex
100
AcDbPolygonMeshVertex
 10
-0.353553
 20
0.353553
 30
-1.0
 70
    64
  0
VERTEX
  5
250
330
248
100
AcDbEntity
  8
0
100
AcDbVertex
100
AcDbPolygonMeshVertex
 10
-0.46194
 20
0.191342
 30
-1.0
 70
    64
  0
VERTEX
  5
251
330
248
100
AcDbEntity
  8
0
100
AcDbVertex
100
AcDbPolygonMeshVertex
 10
-0.5
 20
0.0
 30
-1.0
 70
    64
  0
VERTEX
  5
252
330
248
100
AcDbEntity
  8
0
100
AcDbVertex
100
AcDbPolygonMeshVertex
 10
-0.46194
 20
-0.191342
 30
-1.0
 70
    64
  0
VERTEX
  5
253
330
248
100
AcDbEntity
  8
0
100
AcDbVertex
100
AcDbPolygonMeshVertex
 10
-0.353553
 20
-0.353553
 30
-1.0
 70
    64
  0
VERTEX
  5
254
330
248
100
AcDbEntity
  8
0
100
AcDbVertex
100
AcDbPolygonMeshVertex
 10
-0.191342
 20
-0.46194
 30
-1.0
 70
    64
  0
VERTEX
  5
255
330
248
100
AcDbEntity
  8
0
100
AcDbVertex
100
AcDbPolygonMeshVertex
 10
0.0
 20
-0.5
 30
-1.0
 70
    64
  0
VERTEX
  5
256
330
248
100
AcDbEntity
  8
0
100
AcDbVertex
100
AcDbPolygonMeshVertex
 10
0.191342
 20
-0.46194
 30
-1.0
 70
    64
  0
VERTEX
  5
257
330
248
100
AcDbEntity
  8
0
100
AcDbVertex
100
AcDbPolygonMeshVertex
 10
0.353553
 20
-0.353553
 30
-1.0
 70
    64
  0
VERTEX
  5
258
330
248
100
AcDbEntity
  8
0
100
AcDbVertex
100
AcDbPolygonMeshVertex
 10
0.46194
 20
-0.191342
 30
-1.0
 70
    64
  0
VERTEX
  5
259
330
248
100
AcDbEntity
  8
0
100
AcDbVertex
100
AcDbPolygonMeshVertex
 10
0.0
 20
0.0
 30
0.0
 70
    64
  0
VERTEX
  5
25A
330
248
100
AcDbEntity
  8
0
100
AcDbVertex
100
AcDbPolygonMeshVertex
 10
0.0
 20
0.0
 30
0.0
 70
    64
  0
VERTEX
  5
25B
330
248
100
AcDbEntity
  8
0
100
AcDbVertex
100
AcDbPolygonMeshVertex
 10
0.0
 20
0.0
 30
0.0
 70
    64
  0
VERTEX
  5
25C
330
248
100
AcDbEntity
  8
0
100
AcDbVertex
100
AcDbPolygonMeshVertex
 10
0.0
 20
0.0
 30
0.0
 70
    64
  0
VERTEX
  5
25D
330
248
100
AcDbEntity
  8
0
100
AcDbVertex
100
AcDbPolygonMeshVertex
 10
0.0
 20
0.0
 30
0.0
 70
    64
  0
VERTEX
  5
25E
330
248
100
AcDbEntity
  8
0
100
AcDbVertex
100
AcDbPolygonMeshVertex
 10
0.0
 20
0.0
 30
0.0
 70
    64
  0
VERTEX
  5
25F
330
248
100
AcDbEntity
  8
0
100
AcDbVertex
100
AcDbPolygonMeshVertex
 10
0.0
 20
0.0
 30
0.0
 70
    64
  0
VERTEX
  5
260
330
248
100
AcDbEntity
  8
0
100
AcDbVertex
100
AcDbPolygonMeshVertex
 10
0.0
 20
0.0
 30
0.0
 70
    64
  0
VERTEX
  5
261
330
248
100
AcDbEntity
  8
0
100
AcDbVertex
100
AcDbPolygonMeshVertex
 10
0.0
 20
0.0
 30
0.0
 70
    64
  0
VERTEX
  5
262
330
248
100
AcDbEntity
  8
0
100
AcDbVertex
100
AcDbPolygonMeshVertex
 10
0.0
 20
0.0
 30
0.0
 70
    64
  0
VERTEX
  5
263
330
248
100
AcDbEntity
  8
0
100
AcDbVertex
100
AcDbPolygonMeshVertex
 10
0.0
 20
0.0
 30
0.0
 70
    64
  0
VERTEX
  5
264
330
248
100
AcDbEntity
  8
0
100
AcDbVertex
100
AcDbPolygonMeshVertex
 10
0.0
 20
0.0
 30
0.0
 70
    64
  0
VERTEX
  5
265
330
248
100
AcDbEntity
  8
0
100
AcDbVertex
100
AcDbPolygonMeshVertex
 10
0.0
 20
0.0
 30
0.0
 70
    64
  0
VERTEX
  5
266
330
248
100
AcDbEntity
  8
0
100
AcDbVertex
100
AcDbPolygonMeshVertex
 10
0.0
 20
0.0
 30
0.0
 70
    64
  0
VERTEX
  5
267
330
248
100
AcDbEntity
  8
0
100
AcDbVertex
100
AcDbPolygonMeshVertex
 10
0.0
 20
0.0
 30
0.0
 70
    64
  0
VERTEX
  5
268
330
248
100
AcDbEntity
  8
0
100
AcDbVertex
100
AcDbPolygonMeshVertex
 10
0.0
 20
0.0
 30
0.0
 70
    64
  0
SEQEND
  5
269
330
248
100
AcDbEntity
  8
0
  0
POLYLINE
  5
26A
330
246
100
AcDbEntity
  8
0
100
AcDbPolygonMesh
 66
     1
 10
0.0
 20
0.0
 30
0.0
 70
    48
 71
     2
 72
    16
  0
VERTEX
  5
26B
330
26A
100
AcDbEntity
  8
0
100
AcDbVertex
100
AcDbPolygonMeshVertex
 10
0.5
 20
0.0
 30
-2.0
 70
    64
  0
VERTEX
  5
26C
330
26A
100
AcDbEntity
  8
0
100
AcDbVertex
100
AcDbPolygonMeshVertex
 10
0.46194
 20
0.191342
 30
-2.0
 70
    64
  0
VERTEX
  5
26D
330
26A
100
AcDbEntity
  8
0
100
AcDbVertex
100
AcDbPolygonMeshVertex
 10
0.353553
 20
0.353553
 30
-2.0
 70
    64
  0
VERTEX
  5
26E
330
26A
100
AcDbEntity
  8
0
100
AcDbVertex
100
AcDbPolygonMeshVertex
 10
0.191342
 20
0.46194
 30
-2.0
 70
    64
  0
VERTEX
  5
26F
330
26A
100
AcDbEntity
  8
0
100
AcDbVertex
100
AcDbPolygonMeshVertex
 10
0.0
 20
0.5
 30
-2.0
 70
    64
  0
VERTEX
  5
270
330
26A
100
AcDbEntity
  8
0
100
AcDbVertex
100
AcDbPolygonMeshVertex
 10
-0.191342
 20
0.46194
 30
-2.0
 70
    64
  0
VERTEX
  5
271
330
26A
100
AcDbEntity
  8
0
100
AcDbVertex
100
AcDbPolygonMeshVertex
 10
-0.353553
 20
0.353553
 30
-2.0
 70
    64
  0
VERTEX
  5
272
330
26A
100
AcDbEntity
  8
0
100
AcDbVertex
100
AcDbPolygonMeshVertex
 10
-0.46194
 20
0.191342
 30
-2.0
 70
    64
  0
VERTEX
  5
273
330
26A
100
AcDbEntity
  8
0
100
AcDbVertex
100
AcDbPolygonMeshVertex
 10
-0.5
 20
0.0
 30
-2.0
 70
    64
  0
VERTEX
  5
274
330
26A
100
AcDbEntity
  8
0
100
AcDbVertex
100
AcDbPolygonMeshVertex
 10
-0.46194
 20
-0.191342
 30
-2.0
 70
    64
  0
VERTEX
  5
275
330
26A
100
AcDbEntity
  8
0
100
AcDbVertex
100
AcDbPolygonMeshVertex
 10
-0.353553
 20
-0.353553
 30
-2.0
 70
    64
  0
VERTEX
  5
276
330
26A
100
AcDbEntity
  8
0
100
AcDbVertex
100
AcDbPolygonMeshVertex
 10
-0.191342
 20
-0.46194
 30
-2.0
 70
    64
  0
VERTEX
  5
277
330
26A
100
AcDbEntity
  8
0
100
AcDbVertex
100
AcDbPolygonMeshVertex
 10
0.0
 20
-0.5
 30
-2.0
 70
    64
  0
VERTEX
  5
278
330
26A
100
AcDbEntity
  8
0
100
AcDbVertex
100
AcDbPolygonMeshVertex
 10
0.191342
 20
-0.46194
 30
-2.0
 70
    64
  0
VERTEX
  5
279
330
26A
100
AcDbEntity
  8
0
100
AcDbVertex
100
AcDbPolygonMeshVertex
 10
0.353553
 20
-0.353553
 30
-2.0
 70
    64
  0
VERTEX
  5
27A
330
26A
100
AcDbEntity
  8
0
100
AcDbVertex
100
AcDbPolygonMeshVertex
 10
0.46194
 20
-0.191342
 30
-2.0
 70
    64
  0
VERTEX
  5
27B
330
26A
100
AcDbEntity
  8
0
100
AcDbVertex
100
AcDbPolygonMeshVertex
 10
0.0
 20
0.0
 30
-1.0
 70
    64
  0
VERTEX
  5
27C
330
26A
100
AcDbEntity
  8
0
100
AcDbVertex
100
AcDbPolygonMeshVertex
 10
0.0
 20
0.0
 30
-1.0
 70
    64
  0
VERTEX
  5
27D
330
26A
100
AcDbEntity
  8
0
100
AcDbVertex
100
AcDbPolygonMeshVertex
 10
0.0
 20
0.0
 30
-1.0
 70
    64
  0
VERTEX
  5
27E
330
26A
100
AcDbEntity
  8
0
100
AcDbVertex
100
AcDbPolygonMeshVertex
 10
0.0
 20
0.0
 30
-1.0
 70
    64
  0
VERTEX
  5
27F
330
26A
100
AcDbEntity
  8
0
100
AcDbVertex
100
AcDbPolygonMeshVertex
 10
0.0
 20
0.0
 30
-1.0
 70
    64
  0
VERTEX
  5
280
330
26A
100
AcDbEntity
  8
0
100
AcDbVertex
100
AcDbPolygonMeshVertex
 10
0.0
 20
0.0
 30
-1.0
 70
    64
  0
VERTEX
  5
281
330
26A
100
AcDbEntity
  8
0
100
AcDbVertex
100
AcDbPolygonMeshVertex
 10
0.0
 20
0.0
 30
-1.0
 70
    64
  0
VERTEX
  5
282
330
26A
100
AcDbEntity
  8
0
100
AcDbVertex
100
AcDbPolygonMeshVertex
 10
0.0
 20
0.0
 30
-1.0
 70
    64
  0
VERTEX
  5
283
330
26A
100
AcDbEntity
  8
0
100
AcDbVertex
100
AcDbPolygonMeshVertex
 10
0.0
 20
0.0
 30
-1.0
 70
    64
  0
VERTEX
  5
284
330
26A
100
AcDbEntity
  8
0
100
AcDbVertex
100
AcDbPolygonMeshVertex
 10
0.0
 20
0.0
 30
-1.0
 70
    64
  0
VERTEX
  5
285
330
26A
100
AcDbEntity
  8
0
100
AcDbVertex
100
AcDbPolygonMeshVertex
 10
0.0
 20
0.0
 30
-1.0
 70
    64
  0
VERTEX
  5
286
330
26A
100
AcDbEntity
  8
0
100
AcDbVertex
100
AcDbPolygonMeshVertex
 10
0.0
 20
0.0
 30
-1.0
 70
    64
  0
VERTEX
  5
287
330
26A
100
AcDbEntity
  8
0
100
AcDbVertex
100
AcDbPolygonMeshVertex
 10
0.0
 20
0.0
 30
-1.0
 70
    64
  0
VERTEX
  5
288
330
26A
100
AcDbEntity
  8
0
100
AcDbVertex
100
AcDbPolygonMeshVertex
 10
0.0
 20
0.0
 30
-1.0
 70
    64
  0
VERTEX
  5
289
330
26A
100
AcDbEntity
  8
0
100
AcDbVertex
100
AcDbPolygonMeshVertex
 10
0.0
 20
0.0
 30
-1.0
 70
    64
  0
VERTEX
  5
28A
330
26A
100
AcDbEntity
  8
0
100
AcDbVertex
100
AcDbPolygonMeshVertex
 10
0.0
 20
0.0
 30
-1.0
 70
    64
  0
SEQEND
  5
28B
330
26A
100
AcDbEntity
  8
0
  0
ENDBLK
  5
28C
330
246
100
AcDbEntity
  8
0
100
AcDbBlockEnd
  0
BLOCK
  5
2FA
330
2F9
100
AcDbEntity
  8
0
100
AcDbBlockBegin
  2
XAXIS
 70
     0
 10
0.0
 20
0.0
 30
0.0
  3
XAXIS
  1

  0
3DSOLID
  5
2FB
330
2F9
100
AcDbEntity
  8
0
100
AcDbModelerGeometry
290
     1
  2
{b53c0e2b-efe0-0e4c-b6f0-78a8e9f3aae2}
100
AcDb3dSolid
350
0
  0
POLYLINE
  5
2FC
330
2F9
100
AcDbEntity
  8
0
100
AcDbPolygonMesh
 66
     1
 10
0.0
 20
0.0
 30
0.0
 70
    48
 71
     2
 72
    16
  0
VERTEX
  5
2FD
330
2FC
100
AcDbEntity
  8
0
100
AcDbVertex
100
AcDbPolygonMeshVertex
 10
2.0
 20
0.0
 30
-0.2
 70
    64
  0
VERTEX
  5
2FE
330
2FC
100
AcDbEntity
  8
0
100
AcDbVertex
100
AcDbPolygonMeshVertex
 10
2.0
 20
0.076537
 30
-0.184776
 70
    64
  0
VERTEX
  5
2FF
330
2FC
100
AcDbEntity
  8
0
100
AcDbVertex
100
AcDbPolygonMeshVertex
 10
2.0
 20
0.141421
 30
-0.141421
 70
    64
  0
VERTEX
  5
300
330
2FC
100
AcDbEntity
  8
0
100
AcDbVertex
100
AcDbPolygonMeshVertex
 10
2.0
 20
0.184776
 30
-0.076537
 70
    64
  0
VERTEX
  5
301
330
2FC
100
AcDbEntity
  8
0
100
AcDbVertex
100
AcDbPolygonMeshVertex
 10
2.0
 20
0.2
 30
0.0
 70
    64
  0
VERTEX
  5
302
330
2FC
100
AcDbEntity
  8
0
100
AcDbVertex
100
AcDbPolygonMeshVertex
 10
2.0
 20
0.184776
 30
0.076537
 70
    64
  0
VERTEX
  5
303
330
2FC
100
AcDbEntity
  8
0
100
AcDbVertex
100
AcDbPolygonMeshVertex
 10
2.0
 20
0.141421
 30
0.141421
 70
    64
  0
VERTEX
  5
304
330
2FC
100
AcDbEntity
  8
0
100
AcDbVertex
100
AcDbPolygonMeshVertex
 10
2.0
 20
0.076537
 30
0.184776
 70
    64
  0
VERTEX
  5
305
330
2FC
100
AcDbEntity
  8
0
100
AcDbVertex
100
AcDbPolygonMeshVertex
 10
2.0
 20
0.0
 30
0.2
 70
    64
  0
VERTEX
  5
306
330
2FC
100
AcDbEntity
  8
0
100
AcDbVertex
100
AcDbPolygonMeshVertex
 10
2.0
 20
-0.076537
 30
0.184776
 70
    64
  0
VERTEX
  5
307
330
2FC
100
AcDbEntity
  8
0
100
AcDbVertex
100
AcDbPolygonMeshVertex
 10
2.0
 20
-0.141421
 30
0.141421
 70
    64
  0
VERTEX
  5
308
330
2FC
100
AcDbEntity
  8
0
100
AcDbVertex
100
AcDbPolygonMeshVertex
 10
2.0
 20
-0.184776
 30
0.076537
 70
    64
  0
VERTEX
  5
309
330
2FC
100
AcDbEntity
  8
0
100
AcDbVertex
100
AcDbPolygonMeshVertex
 10
2.0
 20
-0.2
 30
0.0
 70
    64
  0
VERTEX
  5
30A
330
2FC
100
AcDbEntity
  8
0
100
AcDbVertex
100
AcDbPolygonMeshVertex
 10
2.0
 20
-0.184776
 30
-0.076537
 70
    64
  0
VERTEX
  5
30B
330
2FC
100
AcDbEntity
  8
0
100
AcDbVertex
100
AcDbPolygonMeshVertex
 10
2.0
 20
-0.141421
 30
-0.141421
 70
    64
  0
VERTEX
  5
30C
330
2FC
100
AcDbEntity
  8
0
100
AcDbVertex
100
AcDbPolygonMeshVertex
 10
2.0
 20
-0.076537
 30
-0.184776
 70
    64
  0
VERTEX
  5
30D
330
2FC
100
AcDbEntity
  8
0
100
AcDbVertex
100
AcDbPolygonMeshVertex
 10
3.0
 20
0.0
 30
0.0
 70
    64
  0
VERTEX
  5
30E
330
2FC
100
AcDbEntity
  8
0
100
AcDbVertex
100
AcDbPolygonMeshVertex
 10
3.0
 20
0.0
 30
0.0
 70
    64
  0
VERTEX
  5
30F
330
2FC
100
AcDbEntity
  8
0
100
AcDbVertex
100
AcDbPolygonMeshVertex
 10
3.0
 20
0.0
 30
0.0
 70
    64
  0
VERTEX
  5
310
330
2FC
100
AcDbEntity
  8
0
100
AcDbVertex
100
AcDbPolygonMeshVertex
 10
3.0
 20
0.0
 30
0.0
 70
    64
  0
VERTEX
  5
311
330
2FC
100
AcDbEntity
  8
0
100
AcDbVertex
100
AcDbPolygonMeshVertex
 10
3.0
 20
0.0
 30
0.0
 70
    64
  0
VERTEX
  5
312
330
2FC
100
AcDbEntity
  8
0
100
AcDbVertex
100
AcDbPolygonMeshVertex
 10
3.0
 20
0.0
 30
0.0
 70
    64
  0
VERTEX
  5
313
330
2FC
100
AcDbEntity
  8
0
100
AcDbVertex
100
AcDbPolygonMeshVertex
 10
3.0
 20
0.0
 30
0.0
 70
    64
  0
VERTEX
  5
314
330
2FC
100
AcDbEntity
  8
0
100
AcDbVertex
100
AcDbPolygonMeshVertex
 10
3.0
 20
0.0
 30
0.0
 70
    64
  0
VERTEX
  5
315
330
2FC
100
AcDbEntity
  8
0
100
AcDbVertex
100
AcDbPolygonMeshVertex
 10
3.0
 20
0.0
 30
0.0
 70
    64
  0
VERTEX
  5
316
330
2FC
100
AcDbEntity
  8
0
100
AcDbVertex
100
AcDbPolygonMeshVertex
 10
3.0
 20
0.0
 30
0.0
 70
    64
  0
VERTEX
  5
317
330
2FC
100
AcDbEntity
  8
0
100
AcDbVertex
100
AcDbPolygonMeshVertex
 10
3.0
 20
0.0
 30
0.0
 70
    64
  0
VERTEX
  5
318
330
2FC
100
AcDbEntity
  8
0
100
AcDbVertex
100
AcDbPolygonMeshVertex
 10
3.0
 20
0.0
 30
0.0
 70
    64
  0
VERTEX
  5
319
330
2FC
100
AcDbEntity
  8
0
100
AcDbVertex
100
AcDbPolygonMeshVertex
 10
3.0
 20
0.0
 30
0.0
 70
    64
  0
VERTEX
  5
31A
330
2FC
100
AcDbEntity
  8
0
100
AcDbVertex
100
AcDbPolygonMeshVertex
 10
3.0
 20
0.0
 30
0.0
 70
    64
  0
VERTEX
  5
31B
330
2FC
100
AcDbEntity
  8
0
100
AcDbVertex
100
AcDbPolygonMeshVertex
 10
3.0
 20
0.0
 30
0.0
 70
    64
  0
VERTEX
  5
31C
330
2FC
100
AcDbEntity
  8
0
100
AcDbVertex
100
AcDbPolygonMeshVertex
 10
3.0
 20
0.0
 30
0.0
 70
    64
  0
SEQEND
  5
31D
330
2FC
100
AcDbEntity
  8
0
  0
ENDBLK
  5
31E
330
2F9
100
AcDbEntity
  8
0
100
AcDbBlockEnd
  0
BLOCK
  5
320
330
31F
100
AcDbEntity
  8
0
100
AcDbBlockBegin
  2
YAXIS
 70
     0
 10
0.0
 20
0.0
 30
0.0
  3
YAXIS
  1

  0
3DSOLID
  5
321
330
31F
100
AcDbEntity
  8
0
100
AcDbModelerGeometry
290
     1
  2
{c820e2d5-43b2-f443-a959-16da7f69fb81}
100
AcDb3dSolid
350
0
  0
POLYLINE
  5
322
330
31F
100
AcDbEntity
  8
0
100
AcDbPolygonMesh
 66
     1
 10
0.0
 20
0.0
 30
0.0
 70
    48
 71
     2
 72
    16
  0
VERTEX
  5
323
330
322
100
AcDbEntity
  8
0
100
AcDbVertex
100
AcDbPolygonMeshVertex
 10
0.0
 20
2.0
 30
-0.2
 70
    64
  0
VERTEX
  5
324
330
322
100
AcDbEntity
  8
0
100
AcDbVertex
100
AcDbPolygonMeshVertex
 10
-0.076537
 20
2.0
 30
-0.184776
 70
    64
  0
VERTEX
  5
325
330
322
100
AcDbEntity
  8
0
100
AcDbVertex
100
AcDbPolygonMeshVertex
 10
-0.141421
 20
2.0
 30
-0.141421
 70
    64
  0
VERTEX
  5
326
330
322
100
AcDbEntity
  8
0
100
AcDbVertex
100
AcDbPolygonMeshVertex
 10
-0.184776
 20
2.0
 30
-0.076537
 70
    64
  0
VERTEX
  5
327
330
322
100
AcDbEntity
  8
0
100
AcDbVertex
100
AcDbPolygonMeshVertex
 10
-0.2
 20
2.0
 30
0.0
 70
    64
  0
VERTEX
  5
328
330
322
100
AcDbEntity
  8
0
100
AcDbVertex
100
AcDbPolygonMeshVertex
 10
-0.184776
 20
2.0
 30
0.076537
 70
    64
  0
VERTEX
  5
329
330
322
100
AcDbEntity
  8
0
100
AcDbVertex
100
AcDbPolygonMeshVertex
 10
-0.141421
 20
2.0
 30
0.141421
 70
    64
  0
VERTEX
  5
32A
330
322
100
AcDbEntity
  8
0
100
AcDbVertex
100
AcDbPolygonMeshVertex
 10
-0.076537
 20
2.0
 30
0.184776
 70
    64
  0
VERTEX
  5
32B
330
322
100
AcDbEntity
  8
0
100
AcDbVertex
100
AcDbPolygonMeshVertex
 10
0.0
 20
2.0
 30
0.2
 70
    64
  0
VERTEX
  5
32C
330
322
100
AcDbEntity
  8
0
100
AcDbVertex
100
AcDbPolygonMeshVertex
 10
0.076537
 20
2.0
 30
0.184776
 70
    64
  0
VERTEX
  5
32D
330
322
100
AcDbEntity
  8
0
100
AcDbVertex
100
AcDbPolygonMeshVertex
 10
0.141421
 20
2.0
 30
0.141421
 70
    64
  0
VERTEX
  5
32E
330
322
100
AcDbEntity
  8
0
100
AcDbVertex
100
AcDbPolygonMeshVertex
 10
0.184776
 20
2.0
 30
0.076537
 70
    64
  0
VERTEX
  5
32F
330
322
100
AcDbEntity
  8
0
100
AcDbVertex
100
AcDbPolygonMeshVertex
 10
0.2
 20
2.0
 30
0.0
 70
    64
  0
VERTEX
  5
330
330
322
100
AcDbEntity
  8
0
100
AcDbVertex
100
AcDbPolygonMeshVertex
 10
0.184776
 20
2.0
 30
-0.076537
 70
    64
  0
VERTEX
  5
331
330
322
100
AcDbEntity
  8
0
100
AcDbVertex
100
AcDbPolygonMeshVertex
 10
0.141421
 20
2.0
 30
-0.141421
 70
    64
  0
VERTEX
  5
332
330
322
100
AcDbEntity
  8
0
100
AcDbVertex
100
AcDbPolygonMeshVertex
 10
0.076537
 20
2.0
 30
-0.184776
 70
    64
  0
VERTEX
  5
333
330
322
100
AcDbEntity
  8
0
100
AcDbVertex
100
AcDbPolygonMeshVertex
 10
0.0
 20
3.0
 30
0.0
 70
    64
  0
VERTEX
  5
334
330
322
100
AcDbEntity
  8
0
100
AcDbVertex
100
AcDbPolygonMeshVertex
 10
0.0
 20
3.0
 30
0.0
 70
    64
  0
VERTEX
  5
335
330
322
100
AcDbEntity
  8
0
100
AcDbVertex
100
AcDbPolygonMeshVertex
 10
0.0
 20
3.0
 30
0.0
 70
    64
  0
VERTEX
  5
336
330
322
100
AcDbEntity
  8
0
100
AcDbVertex
100
AcDbPolygonMeshVertex
 10
0.0
 20
3.0
 30
0.0
 70
    64
  0
VERTEX
  5
337
330
322
100
AcDbEntity
  8
0
100
AcDbVertex
100
AcDbPolygonMeshVertex
 10
0.0
 20
3.0
 30
0.0
 70
    64
  0
VERTEX
  5
338
330
322
100
AcDbEntity
  8
0
100
AcDbVertex
100
AcDbPolygonMeshVertex
 10
0.0
 20
3.0
 30
0.0
 70
    64
  0
VERTEX
  5
339
330
322
100
AcDbEntity
  8
0
100
AcDbVertex
100
AcDbPolygonMeshVertex
 10
0.0
 20
3.0
 30
0.0
 70
    64
  0
VERTEX
  5
33A
330
322
100
AcDbEntity
  8
0
100
AcDbVertex
100
AcDbPolygonMeshVertex
 10
0.0
 20
3.0
 30
0.0
 70
    64
  0
VERTEX
  5
33B
330
322
100
AcDbEntity
  8
0
100
AcDbVertex
100
AcDbPolygonMeshVertex
 10
0.0
 20
3.0
 30
0.0
 70
    64
  0
VERTEX
  5
33C
330
322
100
AcDbEntity
  8
0
100
AcDbVertex
100
AcDbPolygonMeshVertex
 10
0.0
 20
3.0
 30
0.0
 70
    64
  0
VERTEX
  5
33D
330
322
100
AcDbEntity
  8
0
100
AcDbVertex
100
AcDbPolygonMeshVertex
 10
0.0
 20
3.0
 30
0.0
 70
    64
  0
VERTEX
  5
33E
330
322
100
AcDbEntity
  8
0
100
AcDbVertex
100
AcDbPolygonMeshVertex
 10
0.0
 20
3.0
 30
0.0
 70
    64
  0
VERTEX
  5
33F
330
322
100
AcDbEntity
  8
0
100
AcDbVertex
100
AcDbPolygonMeshVertex
 10
0.0
 20
3.0
 30
0.0
 70
    64
  0
VERTEX
  5
340
330
322
100
AcDbEntity
  8
0
100
AcDbVertex
100
AcDbPolygonMeshVertex
 10
0.0
 20
3.0
 30
0.0
 70
    64
  0
VERTEX
  5
341
330
322
100
AcDbEntity
  8
0
100
AcDbVertex
100
AcDbPolygonMeshVertex
 10
0.0
 20
3.0
 30
0.0
 70
    64
  0
VERTEX
  5
342
330
322
100
AcDbEntity
  8
0
100
AcDbVertex
100
AcDbPolygonMeshVertex
 10
0.0
 20
3.0
 30
0.0
 70
    64
  0
SEQEND
  5
343
330
322
100
AcDbEntity
  8
0
  0
ENDBLK
  5
344
330
31F
100
AcDbEntity
  8
0
100
AcDbBlockEnd
  0
BLOCK
  5
346
330
345
100
AcDbEntity
  8
0
100
AcDbBlockBegin
  2
ZAXIS
 70
     0
 10
0.0
 20
0.0
 30
0.0
  3
ZAXIS
  1

  0
3DSOLID
  5
347
330
345
100
AcDbEntity
  8
0
100
AcDbModelerGeometry
290
     1
  2
{4d3b09d1-1938-9449-8822-c023605c5377}
100
AcDb3dSolid
350
0
  0
POLYLINE
  5
348
330
345
100
AcDbEntity
  8
0
100
AcDbPolygonMesh
 66
     1
 10
0.0
 20
0.0
 30
0.0
 70
    48
 71
     2
 72
    16
  0
VERTEX
  5
349
330
348
100
AcDbEntity
  8
0
100
AcDbVertex
100
AcDbPolygonMeshVertex
 10
0.2
 20
0.0
 30
2.0
 70
    64
  0
VERTEX
  5
34A
330
348
100
AcDbEntity
  8
0
100
AcDbVertex
100
AcDbPolygonMeshVertex
 10
0.184776
 20
0.076537
 30
2.0
 70
    64
  0
VERTEX
  5
34B
330
348
100
AcDbEntity
  8
0
100
AcDbVertex
100
AcDbPolygonMeshVertex
 10
0.141421
 20
0.141421
 30
2.0
 70
    64
  0
VERTEX
  5
34C
330
348
100
AcDbEntity
  8
0
100
AcDbVertex
100
AcDbPolygonMeshVertex
 10
0.076537
 20
0.184776
 30
2.0
 70
    64
  0
VERTEX
  5
34D
330
348
100
AcDbEntity
  8
0
100
AcDbVertex
100
AcDbPolygonMeshVertex
 10
0.0
 20
0.2
 30
2.0
 70
    64
  0
VERTEX
  5
34E
330
348
100
AcDbEntity
  8
0
100
AcDbVertex
100
AcDbPolygonMeshVertex
 10
-0.076537
 20
0.184776
 30
2.0
 70
    64
  0
VERTEX
  5
34F
330
348
100
AcDbEntity
  8
0
100
AcDbVertex
100
AcDbPolygonMeshVertex
 10
-0.141421
 20
0.141421
 30
2.0
 70
    64
  0
VERTEX
  5
350
330
348
100
AcDbEntity
  8
0
100
AcDbVertex
100
AcDbPolygonMeshVertex
 10
-0.184776
 20
0.076537
 30
2.0
 70
    64
  0
VERTEX
  5
351
330
348
100
AcDbEntity
  8
0
100
AcDbVertex
100
AcDbPolygonMeshVertex
 10
-0.2
 20
0.0
 30
2.0
 70
    64
  0
VERTEX
  5
352
330
348
100
AcDbEntity
  8
0
100
AcDbVertex
100
AcDbPolygonMeshVertex
 10
-0.184776
 20
-0.076537
 30
2.0
 70
    64
  0
VERTEX
  5
353
330
348
100
AcDbEntity
  8
0
100
AcDbVertex
100
AcDbPolygonMeshVertex
 10
-0.141421
 20
-0.141421
 30
2.0
 70
    64
  0
VERTEX
  5
354
330
348
100
AcDbEntity
  8
0
100
AcDbVertex
100
AcDbPolygonMeshVertex
 10
-0.076537
 20
-0.184776
 30
2.0
 70
    64
  0
VERTEX
  5
355
330
348
100
AcDbEntity
  8
0
100
AcDbVertex
100
AcDbPolygonMeshVertex
 10
0.0
 20
-0.2
 30
2.0
 70
    64
  0
VERTEX
  5
356
330
348
100
AcDbEntity
  8
0
100
AcDbVertex
100
AcDbPolygonMeshVertex
 10
0.076537
 20
-0.184776
 30
2.0
 70
    64
  0
VERTEX
  5
357
330
348
100
AcDbEntity
  8
0
100
AcDbVertex
100
AcDbPolygonMeshVertex
 10
0.141421
 20
-0.141421
 30
2.0
 70
    64
  0
VERTEX
  5
358
330
348
100
AcDbEntity
  8
0
100
AcDbVertex
100
AcDbPolygonMeshVertex
 10
0.184776
 20
-0.076537
 30
2.0
 70
    64
  0
VERTEX
  5
359
330
348
100
AcDbEntity
  8
0
100
AcDbVertex
100
AcDbPolygonMeshVertex
 10
0.0
 20
0.0
 30
3.0
 70
    64
  0
VERTEX
  5
35A
330
348
100
AcDbEntity
  8
0
100
AcDbVertex
100
AcDbPolygonMeshVertex
 10
0.0
 20
0.0
 30
3.0
 70
    64
  0
VERTEX
  5
35B
330
348
100
AcDbEntity
  8
0
100
AcDbVertex
100
AcDbPolygonMeshVertex
 10
0.0
 20
0.0
 30
3.0
 70
    64
  0
VERTEX
  5
35C
330
348
100
AcDbEntity
  8
0
100
AcDbVertex
100
AcDbPolygonMeshVertex
 10
0.0
 20
0.0
 30
3.0
 70
    64
  0
VERTEX
  5
35D
330
348
100
AcDbEntity
  8
0
100
AcDbVertex
100
AcDbPolygonMeshVertex
 10
0.0
 20
0.0
 30
3.0
 70
    64
  0
VERTEX
  5
35E
330
348
100
AcDbEntity
  8
0
100
AcDbVertex
100
AcDbPolygonMeshVertex
 10
0.0
 20
0.0
 30
3.0
 70
    64
  0
VERTEX
  5
35F
330
348
100
AcDbEntity
  8
0
100
AcDbVertex
100
AcDbPolygonMeshVertex
 10
0.0
 20
0.0
 30
3.0
 70
    64
  0
VERTEX
  5
360
330
348
100
AcDbEntity
  8
0
100
AcDbVertex
100
AcDbPolygonMeshVertex
 10
0.0
 20
0.0
 30
3.0
 70
    64
  0
VERTEX
  5
361
330
348
100
AcDbEntity
  8
0
100
AcDbVertex
100
AcDbPolygonMeshVertex
 10
0.0
 20
0.0
 30
3.0
 70
    64
  0
VERTEX
  5
362
330
348
100
AcDbEntity
  8
0
100
AcDbVertex
100
AcDbPolygonMeshVertex
 10
0.0
 20
0.0
 30
3.0
 70
    64
  0
VERTEX
  5
363
330
348
100
AcDbEntity
  8
0
100
AcDbVertex
100
AcDbPolygonMeshVertex
 10
0.0
 20
0.0
 30
3.0
 70
    64
  0
VERTEX
  5
364
330
348
100
AcDbEntity
  8
0
100
AcDbVertex
100
AcDbPolygonMeshVertex
 10
0.0
 20
0.0
 30
3.0
 70
    64
  0
VERTEX
  5
365
330
348
100
AcDbEntity
  8
0
100
AcDbVertex
100
AcDbPolygonMeshVertex
 10
0.0
 20
0.0
 30
3.0
 70
    64
  0
VERTEX
  5
366
330
348
100
AcDbEntity
  8
0
100
AcDbVertex
100
AcDbPolygonMeshVertex
 10
0.0
 20
0.0
 30
3.0
 70
    64
  0
VERTEX
  5
367
330
348
100
AcDbEntity
  8
0
100
AcDbVertex
100
AcDbPolygonMeshVertex
 10
0.0
 20
0.0
 30
3.0
 70
    64
  0
VERTEX
  5
368
330
348
100
AcDbEntity
  8
0
100
AcDbVertex
100
AcDbPolygonMeshVertex
 10
0.0
 20
0.0
 30
3.0
 70
    64
  0
SEQEND
  5
369
330
348
100
AcDbEntity
  8
0
  0
ENDBLK
  5
36A
330
345
100
AcDbEntity
  8
0
100
AcDbBlockEnd
  0
BLOCK
  5
3B5
330
3B4
100
AcDbEntity
  8
DIMENSIONS
100
AcDbBlockBegin
  2
*D11
 70
     1
 10
0.0
 20
0.0
 30
0.0
  3
*D11
  1
 
  0
LINE
  5
3B6
330
3B4
100
AcDbEntity
  8
DIMENSIONS
  6
ByBlock
 62
     9
440
 16777216
100
AcDbLine
 10
0.0
 20
-12.0
 30
0.0
 11
0.0
 21
-56.0
 31
0.0
  0
LINE
  5
3B7
330
3B4
100
AcDbEntity
  8
DIMENSIONS
  6
ByBlock
 62
     9
440
 16777216
100
AcDbLine
 10
36.0
 20
-12.0
 30
0.0
 11
36.0
 21
-56.0
 31
0.0
  0
LINE
  5
3B8
330
3B4
100
AcDbEntity
  8
DIMENSIONS
  6
ByBlock
 62
     0
440
 16777216
100
AcDbLine
 10
0.0
 20
-38.0
 30
0.0
 11
36.0
 21
-38.0
 31
0.0
  0
SOLID
  5
3B9
330
3B4
100
AcDbEntity
  8
0
  6
ByBlock
 62
     1
440
 16777216
100
AcDbTrace
 10
4.772970773281127
 20
-33.22702922726274
 30
0.0
 11
3.712310601827623
 21
-34.28768939936887
 31
0.0
 12
-3.712310601827623
 22
-41.71231060063113
 32
0.0
 13
-4.772970773281127
 23
-42.77297077273727
 33
0.0
  0
SOLID
  5
3BA
330
3B4
100
AcDbEntity
  8
0
  6
ByBlock
 62
     1
440
 16777216
100
AcDbTrace
 10
40.77297077328113
 20
-33.22702922726274
 30
0.0
 11
39.71231060182763
 21
-34.28768939936887
 31
0.0
 12
32.28768939817237
 22
-41.71231060063113
 32
0.0
 13
31.22702922671887
 23
-42.77297077273727
 33
0.0
  0
MTEXT
  5
3BB
330
3B4
100
AcDbEntity
  8
DIMENSIONS
  6
ByBlock
 62
     0
440
 16777216
100
AcDbMText
 10
18.0
 20
-26.0
 30
0.0
 40
6.0
 41
0.0
 46
0.0
 71
     5
 72
     1
  1
\A1; 3' - 0''
 73
     1
 44
1.0
  0
ENDBLK
  5
3BC
330
3B4
100
AcDbEntity
  8
0
100
AcDbBlockEnd
  0
BLOCK
  5
3BF
330
3BE
100
AcDbEntity
  8
DIMENSIONS
100
AcDbBlockBegin
  2
*D12
 70
     1
 10
0.0
 20
0.0
 30
0.0
  3
*D12
  1
 
  0
LINE
  5
3C0
330
3BE
100
AcDbEntity
  8
DIMENSIONS
  6
ByBlock
 62
     9
440
 16777216
100
AcDbLine
 10
36.0
 20
-12.0
 30
0.0
 11
36.0
 21
-56.0
 31
0.0
  0
LINE
  5
3C1
330
3BE
100
AcDbEntity
  8
DIMENSIONS
  6
ByBlock
 62
     9
440
 16777216
100
AcDbLine
 10
156.0
 20
-12.0
 30
0.0
 11
156.0
 21
-56.0
 31
0.0
  0
LINE
  5
3C2
330
3BE
100
AcDbEntity
  8
DIMENSIONS
  6
ByBlock
 62
     0
440
 16777216
100
AcDbLine
 10
36.0
 20
-38.0
 30
0.0
 11
156.0
 21
-38.0
 31
0.0
  0
SOLID
  5
3C3
330
3BE
100
AcDbEntity
  8
0
  6
ByBlock
 62
     1
440
 16777216
100
AcDbTrace
 10
40.77297077328113
 20
-33.22702922726274
 30
0.0
 11
39.71231060182763
 21
-34.28768939936887
 31
0.0
 12
32.28768939817237
 22
-41.71231060063113
 32
0.0
 13
31.22702922671887
 23
-42.77297077273727
 33
0.0
  0
SOLID
  5
3C4
330
3BE
100
AcDbEntity
  8
0
  6
ByBlock
 62
     1
440
 16777216
100
AcDbTrace
 10
160.7729707732811
 20
-33.22702922726274
 30
0.0
 11
159.7123106018276
 21
-34.28768939936887
 31
0.0
 12
152.2876893981724
 22
-41.71231060063113
 32
0.0
 13
151.2270292267189
 23
-42.77297077273727
 33
0.0
  0
MTEXT
  5
3C5
330
3BE
100
AcDbEntity
  8
DIMENSIONS
  6
ByBlock
 62
     0
440
 16777216
100
AcDbMText
 10
96.0
 20
-26.0
 30
0.0
 40
6.0
 41
0.0
 46
0.0
 71
     5
 72
     1
  1
\A1; 10' - 0''
 73
     1
 44
1.0
  0
ENDBLK
  5
3C6
330
3BE
100
AcDbEntity
  8
0
100
AcDbBlockEnd
  0
BLOCK
  5
3C9
330
3C8
100
AcDbEntity
  8
DIMENSIONS
100
AcDbBlockBegin
  2
*D13
 70
     1
 10
0.0
 20
0.0
 30
0.0
  3
*D13
  1
 
  0
LINE
  5
3CA
330
3C8
100
AcDbEntity
  8
DIMENSIONS
  6
ByBlock
 62
     9
440
 16777216
100
AcDbLine
 10
156.0
 20
-12.0
 30
0.0
 11
156.0
 21
-56.0
 31
0.0
  0
LINE
  5
3CB
330
3C8
100
AcDbEntity
  8
DIMENSIONS
  6
ByBlock
 62
     9
440
 16777216
100
AcDbLine
 10
378.0
 20
-12.0
 30
0.0
 11
378.0
 21
-56.0
 31
0.0
  0
LINE
  5
3CC
330
3C8
100
AcDbEntity
  8
DIMENSIONS
  6
ByBlock
 62
     0
440
 16777216
100
AcDbLine
 10
156.0
 20
-38.0
 30
0.0
 11
378.0
 21
-38.0
 31
0.0
  0
SOLID
  5
3CD
330
3C8
100
AcDbEntity
  8
0
  6
ByBlock
 62
     1
440
 16777216
100
AcDbTrace
 10
160.7729707732811
 20
-33.22702922726274
 30
0.0
 11
159.7123106018276
 21
-34.28768939936887
 31
0.0
 12
152.2876893981724
 22
-41.71231060063113
 32
0.0
 13
151.2270292267189
 23
-42.77297077273727
 33
0.0
  0
SOLID
  5
3CE
330
3C8
100
AcDbEntity
  8
0
  6
ByBlock
 62
     1
440
 16777216
100
AcDbTrace
 10
382.7729707732811
 20
-33.22702922726274
 30
0.0
 11
381.7123106018277
 21
-34.28768939936887
 31
0.0
 12
374.2876893981724
 22
-41.71231060063113
 32
0.0
 13
373.2270292267189
 23
-42.77297077273727
 33
0.0
  0
MTEXT
  5
3CF
330
3C8
100
AcDbEntity
  8
DIMENSIONS
  6
ByBlock
 62
     0
440
 16777216
100
AcDbMText
 10
267.0
 20
-26.0
 30
0.0
 40
6.0
 41
0.0
 46
0.0
 71
     5
 72
     1
  1
\A1; 18' - 6''
 73
     1
 44
1.0
  0
ENDBLK
  5
3D0
330
3C8
100
AcDbEntity
  8
0
100
AcDbBlockEnd
  0
BLOCK
  5
3D3
330
3D2
100
AcDbEntity
  8
DIMENSIONS
100
AcDbBlockBegin
  2
*D14
 70
     1
 10
0.0
 20
0.0
 30
0.0
  3
*D14
  1
 
  0
LINE
  5
3D4
330
3D2
100
AcDbEntity
  8
DIMENSIONS
  6
ByBlock
 62
     9
440
 16777216
100
AcDbLine
 10
378.0
 20
-12.0
 30
0.0
 11
378.0
 21
-56.0
 31
0.0
  0
LINE
  5
3D5
330
3D2
100
AcDbEntity
  8
DIMENSIONS
  6
ByBlock
 62
     9
440
 16777216
100
AcDbLine
 10
702.0
 20
-12.0
 30
0.0
 11
702.0
 21
-56.0
 31
0.0
  0
LINE
  5
3D6
330
3D2
100
AcDbEntity
  8
DIMENSIONS
  6
ByBlock
 62
     0
440
 16777216
100
AcDbLine
 10
378.0
 20
-38.0
 30
0.0
 11
702.0
 21
-38.0
 31
0.0
  0
SOLID
  5
3D7
330
3D2
100
AcDbEntity
  8
0
  6
ByBlock
 62
     1
440
 16777216
100
AcDbTrace
 10
382.7729707732811
 20
-33.22702922726274
 30
0.0
 11
381.7123106018277
 21
-34.28768939936887
 31
0.0
 12
374.2876893981724
 22
-41.71231060063113
 32
0.0
 13
373.2270292267189
 23
-42.77297077273727
 33
0.0
  0
SOLID
  5
3D8
330
3D2
100
AcDbEntity
  8
0
  6
ByBlock
 62
     1
440
 16777216
100
AcDbTrace
 10
706.7729707732811
 20
-33.22702922726274
 30
0.0
 11
705.7123106018276
 21
-34.28768939936887
 31
0.0
 12
698.2876893981723
 22
-41.71231060063113
 32
0.0
 13
697.2270292267189
 23
-42.77297077273727
 33
0.0
  0
MTEXT
  5
3D9
330
3D2
100
AcDbEntity
  8
DIMENSIONS
  6
ByBlock
 62
     0
440
 16777216
100
AcDbMText
 10
540.0
 20
-26.0
 30
0.0
 40
6.0
 41
0.0
 46
0.0
 71
     5
 72
     1
  1
\A1; 27' - 0''
 73
     1
 44
1.0
  0
ENDBLK
  5
3DA
330
3D2
100
AcDbEntity
  8
0
100
AcDbBlockEnd
  0
BLOCK
  5
3DD
330
3DC
100
AcDbEntity
  8
DIMENSIONS
100
AcDbBlockBegin
  2
*D15
 70
     1
 10
0.0
 20
0.0
 30
0.0
  3
*D15
  1
 
  0
LINE
  5
3DE
330
3DC
100
AcDbEntity
  8
DIMENSIONS
  6
ByBlock
 62
     9
440
 16777216
100
AcDbLine
 10
702.0
 20
-12.0
 30
0.0
 11
702.0
 21
-56.0
 31
0.0
  0
LINE
  5
3DF
330
3DC
100
AcDbEntity
  8
DIMENSIONS
  6
ByBlock
 62
     9
440
 16777216
100
AcDbLine
 10
1026.0
 20
-12.0
 30
0.0
 11
1026.0
 21
-56.0
 31
0.0
  0
LINE
  5
3E0
330
3DC
100
AcDbEntity
  8
DIMENSIONS
  6
ByBlock
 62
     0
440
 16777216
100
AcDbLine
 10
702.0
 20
-38.0
 30
0.0
 11
1026.0
 21
-38.0
 31
0.0
  0
SOLID
  5
3E1
330
3DC
100
AcDbEntity
  8
0
  6
ByBlock
 62
     1
440
 16777216
100
AcDbTrace
 10
706.7729707732811
 20
-33.22702922726274
 30
0.0
 11
705.7123106018276
 21
-34.28768939936887
 31
0.0
 12
698.2876893981723
 22
-41.71231060063113
 32
0.0
 13
697.2270292267189
 23
-42.77297077273727
 33
0.0
  0
SOLID
  5
3E2
330
3DC
100
AcDbEntity
  8
0
  6
ByBlock
 62
     1
440
 16777216
100
AcDbTrace
 10
1030.772970773281
 20
-33.22702922726274
 30
0.0
 11
1029.712310601827
 21
-34.28768939936887
 31
0.0
 12
1022.287689398172
 22
-41.71231060063113
 32
0.0
 13
1021.227029226719
 23
-42.77297077273727
 33
0.0
  0
MTEXT
  5
3E3
330
3DC
100
AcDbEntity
  8
DIMENSIONS
  6
ByBlock
 62
     0
440
 16777216
100
AcDbMText
 10
864.0
 20
-26.0
 30
0.0
 40
6.0
 41
0.0
 46
0.0
 71
     5
 72
     1
  1
\A1; 27' - 0''
 73
     1
 44
1.0
  0
ENDBLK
  5
3E4
330
3DC
100
AcDbEntity
  8
0
100
AcDbBlockEnd
  0
BLOCK
  5
3E7
330
3E6
100
AcDbEntity
  8
DIMENSIONS
100
AcDbBlockBegin
  2
*D16
 70
     1
 10
0.0
 20
0.0
 30
0.0
  3
*D16
  1
 
  0
LINE
  5
3E8
330
3E6
100
AcDbEntity
  8
DIMENSIONS
  6
ByBlock
 62
     9
440
 16777216
100
AcDbLine
 10
1026.0
 20
-12.0
 30
0.0
 11
1026.0
 21
-56.0
 31
0.0
  0
LINE
  5
3E9
330
3E6
100
AcDbEntity
  8
DIMENSIONS
  6
ByBlock
 62
     9
440
 16777216
100
AcDbLine
 10
1368.0
 20
-12.0
 30
0.0
 11
1368.0
 21
-56.0
 31
0.0
  0
LINE
  5
3EA
330
3E6
100
AcDbEntity
  8
DIMENSIONS
  6
ByBlock
 62
     0
440
 16777216
100
AcDbLine
 10
1026.0
 20
-38.0
 30
0.0
 11
1368.0
 21
-38.0
 31
0.0
  0
SOLID
  5
3EB
330
3E6
100
AcDbEntity
  8
0
  6
ByBlock
 62
     1
440
 16777216
100
AcDbTrace
 10
1030.772970773281
 20
-33.22702922726274
 30
0.0
 11
1029.712310601827
 21
-34.28768939936887
 31
0.0
 12
1022.287689398172
 22
-41.71231060063113
 32
0.0
 13
1021.227029226719
 23
-42.77297077273727
 33
0.0
  0
SOLID
  5
3EC
330
3E6
100
AcDbEntity
  8
0
  6
ByBlock
 62
     1
440
 16777216
100
AcDbTrace
 10
1372.772970773281
 20
-33.22702922726274
 30
0.0
 11
1371.712310601827
 21
-34.28768939936887
 31
0.0
 12
1364.287689398172
 22
-41.71231060063113
 32
0.0
 13
1363.227029226719
 23
-42.77297077273727
 33
0.0
  0
MTEXT
  5
3ED
330
3E6
100
AcDbEntity
  8
DIMENSIONS
  6
ByBlock
 62
     0
440
 16777216
100
AcDbMText
 10
1197.0
 20
-26.0
 30
0.0
 40
6.0
 41
0.0
 46
0.0
 71
     5
 72
     1
  1
\A1; 28' - 6''
 73
     1
 44
1.0
  0
ENDBLK
  5
3EE
330
3E6
100
AcDbEntity
  8
0
100
AcDbBlockEnd
  0
BLOCK
  5
3F1
330
3F0
100
AcDbEntity
  8
DIMENSIONS
100
AcDbBlockBegin
  2
*D17
 70
     1
 10
0.0
 20
0.0
 30
0.0
  3
*D17
  1
 
  0
LINE
  5
3F2
330
3F0
100
AcDbEntity
  8
DIMENSIONS
  6
ByBlock
 62
     9
440
 16777216
100
AcDbLine
 10
1368.0
 20
-12.0
 30
0.0
 11
1368.0
 21
-56.0
 31
0.0
  0
LINE
  5
3F3
330
3F0
100
AcDbEntity
  8
DIMENSIONS
  6
ByBlock
 62
     9
440
 16777216
100
AcDbLine
 10
1404.0
 20
-12.0
 30
0.0
 11
1404.0
 21
-56.0
 31
0.0
  0
LINE
  5
3F4
330
3F0
100
AcDbEntity
  8
DIMENSIONS
  6
ByBlock
 62
     0
440
 16777216
100
AcDbLine
 10
1368.0
 20
-38.0
 30
0.0
 11
1404.0
 21
-38.0
 31
0.0
  0
SOLID
  5
3F5
330
3F0
100
AcDbEntity
  8
0
  6
ByBlock
 62
     1
440
 16777216
100
AcDbTrace
 10
1372.772970773281
 20
-33.22702922726274
 30
0.0
 11
1371.712310601827
 21
-34.28768939936887
 31
0.0
 12
1364.287689398172
 22
-41.71231060063113
 32
0.0
 13
1363.227029226719
 23
-42.77297077273727
 33
0.0
  0
SOLID
  5
3F6
330
3F0
100
AcDbEntity
  8
0
  6
ByBlock
 62
     1
440
 16777216
100
AcDbTrace
 10
1408.772970773281
 20
-33.22702922726274
 30
0.0
 11
1407.712310601827
 21
-34.28768939936887
 31
0.0
 12
1400.287689398173
 22
-41.71231060063113
 32
0.0
 13
1399.227029226719
 23
-42.77297077273727
 33
0.0
  0
MTEXT
  5
3F7
330
3F0
100
AcDbEntity
  8
DIMENSIONS
  6
ByBlock
 62
     0
440
 16777216
100
AcDbMText
 10
1386.0
 20
-26.0
 30
0.0
 40
6.0
 41
0.0
 46
0.0
 71
     5
 72
     1
  1
\A1; 3' - 0''
 73
     1
 44
1.0
  0
ENDBLK
  5
3F8
330
3F0
100
AcDbEntity
  8
0
100
AcDbBlockEnd
  0
BLOCK
  5
3FB
330
3FA
100
AcDbEntity
  8
DIMENSIONS
100
AcDbBlockBegin
  2
*D18
 70
     1
 10
0.0
 20
0.0
 30
0.0
  3
*D18
  1
 
  0
LINE
  5
3FC
330
3FA
100
AcDbEntity
  8
DIMENSIONS
  6
ByBlock
 62
     9
440
 16777216
100
AcDbLine
 10
1416.0
 20
0.0
 30
0.0
 11
1460.0
 21
0.0
 31
0.0
  0
LINE
  5
3FD
330
3FA
100
AcDbEntity
  8
DIMENSIONS
  6
ByBlock
 62
     9
440
 16777216
100
AcDbLine
 10
1416.0
 20
36.0
 30
0.0
 11
1460.0
 21
36.0
 31
0.0
  0
LINE
  5
3FE
330
3FA
100
AcDbEntity
  8
DIMENSIONS
  6
ByBlock
 62
     0
440
 16777216
100
AcDbLine
 10
1442.0
 20
0.0
 30
0.0
 11
1442.0
 21
36.0
 31
0.0
  0
SOLID
  5
3FF
330
3FA
100
AcDbEntity
  8
0
  6
ByBlock
 62
     1
440
 16777216
100
AcDbTrace
 10
1445.712310599652
 20
-3.712310602806575
 30
0.0
 11
1446.772970771976
 21
-4.772970774042535
 31
0.0
 12
1437.227029228024
 22
4.772970774042535
 32
0.0
 13
1438.287689400348
 23
3.712310602806575
 33
0.0
  0
SOLID
  5
400
330
3FA
100
AcDbEntity
  8
0
  6
ByBlock
 62
     1
440
 16777216
100
AcDbTrace
 10
1445.712310599652
 20
32.28768939719343
 30
0.0
 11
1446.772970771976
 21
31.22702922595747
 31
0.0
 12
1437.227029228024
 22
40.77297077404252
 32
0.0
 13
1438.287689400348
 23
39.71231060280658
 33
0.0
  0
MTEXT
  5
401
330
3FA
100
AcDbEntity
  8
DIMENSIONS
  6
ByBlock
 62
     0
440
 16777216
100
AcDbMText
 10
1430.0
 20
17.99999999753875
 30
0.0
 40
6.0
 41
0.0
 46
0.0
 71
     5
 72
     1
  1
\A1; 3' - 0''
 11
0.0000000000000001
 21
1.0
 31
0.0
 73
     1
 44
1.0
  0
ENDBLK
  5
402
330
3FA
100
AcDbEntity
  8
0
100
AcDbBlockEnd
  0
BLOCK
  5
405
330
404
100
AcDbEntity
  8
DIMENSIONS
100
AcDbBlockBegin
  2
*D19
 70
     1
 10
0.0
 20
0.0
 30
0.0
  3
*D19
  1
 
  0
LINE
  5
406
330
404
100
AcDbEntity
  8
DIMENSIONS
  6
ByBlock
 62
     9
440
 16777216
100
AcDbLine
 10
1416.0
 20
36.0
 30
0.0
 11
1460.0
 21
36.0
 31
0.0
  0
LINE
  5
407
330
404
100
AcDbEntity
  8
DIMENSIONS
  6
ByBlock
 62
     9
440
 16777216
100
AcDbLine
 10
1416.0
 20
156.0
 30
0.0
 11
1460.0
 21
156.0
 31
0.0
  0
LINE
  5
408
330
404
100
AcDbEntity
  8
DIMENSIONS
  6
ByBlock
 62
     0
440
 16777216
100
AcDbLine
 10
1442.0
 20
36.0
 30
0.0
 11
1442.0
 21
156.0
 31
0.0
  0
SOLID
  5
409
330
404
100
AcDbEntity
  8
0
  6
ByBlock
 62
     1
440
 16777216
100
AcDbTrace
 10
1445.712310599652
 20
32.28768939719343
 30
0.0
 11
1446.772970771976
 21
31.22702922595747
 31
0.0
 12
1437.227029228024
 22
40.77297077404252
 32
0.0
 13
1438.287689400348
 23
39.71231060280658
 33
0.0
  0
SOLID
  5
40A
330
404
100
AcDbEntity
  8
0
  6
ByBlock
 62
     1
440
 16777216
100
AcDbTrace
 10
1445.712310599652
 20
152.2876893971934
 30
0.0
 11
1446.772970771976
 21
151.2270292259574
 31
0.0
 12
1437.227029228024
 22
160.7729707740425
 32
0.0
 13
1438.287689400348
 23
159.7123106028066
 33
0.0
  0
MTEXT
  5
40B
330
404
100
AcDbEntity
  8
DIMENSIONS
  6
ByBlock
 62
     0
440
 16777216
100
AcDbMText
 10
1430.0
 20
95.99999999753874
 30
0.0
 40
6.0
 41
0.0
 46
0.0
 71
     5
 72
     1
  1
\A1; 10' - 0''
 11
0.0000000000000001
 21
1.0
 31
0.0
 73
     1
 44
1.0
  0
ENDBLK
  5
40C
330
404
100
AcDbEntity
  8
0
100
AcDbBlockEnd
  0
BLOCK
  5
40F
330
40E
100
AcDbEntity
  8
DIMENSIONS
100
AcDbBlockBegin
  2
*D20
 70
     1
 10
0.0
 20
0.0
 30
0.0
  3
*D20
  1
 
  0
LINE
  5
410
330
40E
100
AcDbEntity
  8
DIMENSIONS
  6
ByBlock
 62
     9
440
 16777216
100
AcDbLine
 10
1416.0
 20
156.0
 30
0.0
 11
1460.0
 21
156.0
 31
0.0
  0
LINE
  5
411
330
40E
100
AcDbEntity
  8
DIMENSIONS
  6
ByBlock
 62
     9
440
 16777216
100
AcDbLine
 10
1416.0
 20
324.0
 30
0.0
 11
1460.0
 21
324.0
 31
0.0
  0
LINE
  5
412
330
40E
100
AcDbEntity
  8
DIMENSIONS
  6
ByBlock
 62
     0
440
 16777216
100
AcDbLine
 10
1442.0
 20
156.0
 30
0.0
 11
1442.0
 21
324.0
 31
0.0
  0
SOLID
  5
413
330
40E
100
AcDbEntity
  8
0
  6
ByBlock
 62
     1
440
 16777216
100
AcDbTrace
 10
1445.712310599652
 20
152.2876893971934
 30
0.0
 11
1446.772970771976
 21
151.2270292259574
 31
0.0
 12
1437.227029228024
 22
160.7729707740425
 32
0.0
 13
1438.287689400348
 23
159.7123106028066
 33
0.0
  0
SOLID
  5
414
330
40E
100
AcDbEntity
  8
0
  6
ByBlock
 62
     1
440
 16777216
100
AcDbTrace
 10
1445.712310599652
 20
320.2876893971934
 30
0.0
 11
1446.772970771976
 21
319.2270292259574
 31
0.0
 12
1437.227029228024
 22
328.7729707740425
 32
0.0
 13
1438.287689400348
 23
327.7123106028065
 33
0.0
  0
MTEXT
  5
415
330
40E
100
AcDbEntity
  8
DIMENSIONS
  6
ByBlock
 62
     0
440
 16777216
100
AcDbMText
 10
1430.0
 20
239.9999999975388
 30
0.0
 40
6.0
 41
0.0
 46
0.0
 71
     5
 72
     1
  1
\A1; 14' - 0''
 11
0.0000000000000001
 21
1.0
 31
0.0
 73
     1
 44
1.0
  0
ENDBLK
  5
416
330
40E
100
AcDbEntity
  8
0
100
AcDbBlockEnd
  0
BLOCK
  5
419
330
418
100
AcDbEntity
  8
DIMENSIONS
100
AcDbBlockBegin
  2
*D21
 70
     1
 10
0.0
 20
0.0
 30
0.0
  3
*D21
  1
 
  0
LINE
  5
41A
330
418
100
AcDbEntity
  8
DIMENSIONS
  6
ByBlock
 62
     9
440
 16777216
100
AcDbLine
 10
1416.0
 20
324.0
 30
0.0
 11
1460.0
 21
324.0
 31
0.0
  0
LINE
  5
41B
330
418
100
AcDbEntity
  8
DIMENSIONS
  6
ByBlock
 62
     9
440
 16777216
100
AcDbLine
 10
1416.0
 20
504.0
 30
0.0
 11
1460.0
 21
504.0
 31
0.0
  0
LINE
  5
41C
330
418
100
AcDbEntity
  8
DIMENSIONS
  6
ByBlock
 62
     0
440
 16777216
100
AcDbLine
 10
1442.0
 20
324.0
 30
0.0
 11
1442.0
 21
504.0
 31
0.0
  0
SOLID
  5
41D
330
418
100
AcDbEntity
  8
0
  6
ByBlock
 62
     1
440
 16777216
100
AcDbTrace
 10
1445.712310599652
 20
320.2876893971934
 30
0.0
 11
1446.772970771976
 21
319.2270292259574
 31
0.0
 12
1437.227029228024
 22
328.7729707740425
 32
0.0
 13
1438.287689400348
 23
327.7123106028065
 33
0.0
  0
SOLID
  5
41E
330
418
100
AcDbEntity
  8
0
  6
ByBlock
 62
     1
440
 16777216
100
AcDbTrace
 10
1445.712310599652
 20
500.2876893971935
 30
0.0
 11
1446.772970771976
 21
499.2270292259574
 31
0.0
 12
1437.227029228024
 22
508.7729707740423
 32
0.0
 13
1438.287689400348
 23
507.7123106028063
 33
0.0
  0
MTEXT
  5
41F
330
418
100
AcDbEntity
  8
DIMENSIONS
  6
ByBlock
 62
     0
440
 16777216
100
AcDbMText
 10
1430.0
 20
413.9999999975386
 30
0.0
 40
6.0
 41
0.0
 46
0.0
 71
     5
 72
     1
  1
\A1; 15' - 0''
 11
0.0000000000000001
 21
1.0
 31
0.0
 73
     1
 44
1.0
  0
ENDBLK
  5
420
330
418
100
AcDbEntity
  8
0
100
AcDbBlockEnd
  0
BLOCK
  5
423
330
422
100
AcDbEntity
  8
DIMENSIONS
100
AcDbBlockBegin
  2
*D22
 70
     1
 10
0.0
 20
0.0
 30
0.0
  3
*D22
  1
 
  0
LINE
  5
424
330
422
100
AcDbEntity
  8
DIMENSIONS
  6
ByBlock
 62
     9
440
 16777216
100
AcDbLine
 10
1416.0
 20
504.0
 30
0.0
 11
1460.0
 21
504.0
 31
0.0
  0
LINE
  5
425
330
422
100
AcDbEntity
  8
DIMENSIONS
  6
ByBlock
 62
     9
440
 16777216
100
AcDbLine
 10
1416.0
 20
684.0
 30
0.0
 11
1460.0
 21
684.0
 31
0.0
  0
LINE
  5
426
330
422
100
AcDbEntity
  8
DIMENSIONS
  6
ByBlock
 62
     0
440
 16777216
100
AcDbLine
 10
1442.0
 20
504.0
 30
0.0
 11
1442.0
 21
684.0
 31
0.0
  0
SOLID
  5
427
330
422
100
AcDbEntity
  8
0
  6
ByBlock
 62
     1
440
 16777216
100
AcDbTrace
 10
1445.712310599652
 20
500.2876893971935
 30
0.0
 11
1446.772970771976
 21
499.2270292259574
 31
0.0
 12
1437.227029228024
 22
508.7729707740423
 32
0.0
 13
1438.287689400348
 23
507.7123106028063
 33
0.0
  0
SOLID
  5
428
330
422
100
AcDbEntity
  8
0
  6
ByBlock
 62
     1
440
 16777216
100
AcDbTrace
 10
1445.712310599652
 20
680.2876893971934
 30
0.0
 11
1446.772970771976
 21
679.2270292259575
 31
0.0
 12
1437.227029228024
 22
688.7729707740425
 32
0.0
 13
1438.287689400348
 23
687.7123106028065
 33
0.0
  0
MTEXT
  5
429
330
422
100
AcDbEntity
  8
DIMENSIONS
  6
ByBlock
 62
     0
440
 16777216
100
AcDbMText
 10
1430.0
 20
593.9999999975388
 30
0.0
 40
6.0
 41
0.0
 46
0.0
 71
     5
 72
     1
  1
\A1; 15' - 0''
 11
0.0000000000000001
 21
1.0
 31
0.0
 73
     1
 44
1.0
  0
ENDBLK
  5
42A
330
422
100
AcDbEntity
  8
0
100
AcDbBlockEnd
  0
BLOCK
  5
42D
330
42C
100
AcDbEntity
  8
DIMENSIONS
100
AcDbBlockBegin
  2
*D23
 70
     1
 10
0.0
 20
0.0
 30
0.0
  3
*D23
  1
 
  0
LINE
  5
42E
330
42C
100
AcDbEntity
  8
DIMENSIONS
  6
ByBlock
 62
     9
440
 16777216
100
AcDbLine
 10
1416.0
 20
684.0
 30
0.0
 11
1460.0
 21
684.0
 31
0.0
  0
LINE
  5
42F
330
42C
100
AcDbEntity
  8
DIMENSIONS
  6
ByBlock
 62
     9
440
 16777216
100
AcDbLine
 10
1416.0
 20
852.0
 30
0.0
 11
1460.0
 21
852.0
 31
0.0
  0
LINE
  5
430
330
42C
100
AcDbEntity
  8
DIMENSIONS
  6
ByBlock
 62
     0
440
 16777216
100
AcDbLine
 10
1442.0
 20
684.0
 30
0.0
 11
1442.0
 21
852.0
 31
0.0
  0
SOLID
  5
431
330
42C
100
AcDbEntity
  8
0
  6
ByBlock
 62
     1
440
 16777216
100
AcDbTrace
 10
1445.712310599652
 20
680.2876893971934
 30
0.0
 11
1446.772970771976
 21
679.2270292259575
 31
0.0
 12
1437.227029228024
 22
688.7729707740425
 32
0.0
 13
1438.287689400348
 23
687.7123106028065
 33
0.0
  0
SOLID
  5
432
330
42C
100
AcDbEntity
  8
0
  6
ByBlock
 62
     1
440
 16777216
100
AcDbTrace
 10
1445.712310599652
 20
848.2876893971935
 30
0.0
 11
1446.772970771976
 21
847.2270292259574
 31
0.0
 12
1437.227029228024
 22
856.7729707740424
 32
0.0
 13
1438.287689400348
 23
855.7123106028065
 33
0.0
  0
MTEXT
  5
433
330
42C
100
AcDbEntity
  8
DIMENSIONS
  6
ByBlock
 62
     0
440
 16777216
100
AcDbMText
 10
1430.0
 20
767.9999999975388
 30
0.0
 40
6.0
 41
0.0
 46
0.0
 71
     5
 72
     1
  1
\A1; 14' - 0''
 11
0.0000000000000001
 21
1.0
 31
0.0
 73
     1
 44
1.0
  0
ENDBLK
  5
434
330
42C
100
AcDbEntity
  8
0
100
AcDbBlockEnd
  0
BLOCK
  5
437
330
436
100
AcDbEntity
  8
DIMENSIONS
100
AcDbBlockBegin
  2
*D24
 70
     1
 10
0.0
 20
0.0
 30
0.0
  3
*D24
  1
 
  0
LINE
  5
438
330
436
100
AcDbEntity
  8
DIMENSIONS
  6
ByBlock
 62
     9
440
 16777216
100
AcDbLine
 10
1416.0
 20
852.0
 30
0.0
 11
1460.0
 21
852.0
 31
0.0
  0
LINE
  5
439
330
436
100
AcDbEntity
  8
DIMENSIONS
  6
ByBlock
 62
     9
440
 16777216
100
AcDbLine
 10
1416.0
 20
972.0
 30
0.0
 11
1460.0
 21
972.0
 31
0.0
  0
LINE
  5
43A
330
436
100
AcDbEntity
  8
DIMENSIONS
  6
ByBlock
 62
     0
440
 16777216
100
AcDbLine
 10
1442.0
 20
852.0
 30
0.0
 11
1442.0
 21
972.0
 31
0.0
  0
SOLID
  5
43B
330
436
100
AcDbEntity
  8
0
  6
ByBlock
 62
     1
440
 16777216
100
AcDbTrace
 10
1445.712310599652
 20
848.2876893971935
 30
0.0
 11
1446.772970771976
 21
847.2270292259574
 31
0.0
 12
1437.227029228024
 22
856.7729707740424
 32
0.0
 13
1438.287689400348
 23
855.7123106028065
 33
0.0
  0
SOLID
  5
43C
330
436
100
AcDbEntity
  8
0
  6
ByBlock
 62
     1
440
 16777216
100
AcDbTrace
 10
1445.712310599652
 20
968.2876893971934
 30
0.0
 11
1446.772970771976
 21
967.2270292259575
 31
0.0
 12
1437.227029228024
 22
976.7729707740423
 32
0.0
 13
1438.287689400348
 23
975.7123106028064
 33
0.0
  0
MTEXT
  5
43D
330
436
100
AcDbEntity
  8
DIMENSIONS
  6
ByBlock
 62
     0
440
 16777216
100
AcDbMText
 10
1430.0
 20
911.9999999975387
 30
0.0
 40
6.0
 41
0.0
 46
0.0
 71
     5
 72
     1
  1
\A1; 10' - 0''
 11
0.0000000000000001
 21
1.0
 31
0.0
 73
     1
 44
1.0
  0
ENDBLK
  5
43E
330
436
100
AcDbEntity
  8
0
100
AcDbBlockEnd
  0
BLOCK
  5
441
330
440
100
AcDbEntity
  8
DIMENSIONS
100
AcDbBlockBegin
  2
*D25
 70
     1
 10
0.0
 20
0.0
 30
0.0
  3
*D25
  1
 
  0
LINE
  5
442
330
440
100
AcDbEntity
  8
DIMENSIONS
  6
ByBlock
 62
     9
440
 16777216
100
AcDbLine
 10
1416.0
 20
972.0
 30
0.0
 11
1460.0
 21
972.0
 31
0.0
  0
LINE
  5
443
330
440
100
AcDbEntity
  8
DIMENSIONS
  6
ByBlock
 62
     9
440
 16777216
100
AcDbLine
 10
1416.0
 20
1008.0
 30
0.0
 11
1460.0
 21
1008.0
 31
0.0
  0
LINE
  5
444
330
440
100
AcDbEntity
  8
DIMENSIONS
  6
ByBlock
 62
     0
440
 16777216
100
AcDbLine
 10
1442.0
 20
972.0
 30
0.0
 11
1442.0
 21
1008.0
 31
0.0
  0
SOLID
  5
445
330
440
100
AcDbEntity
  8
0
  6
ByBlock
 62
     1
440
 16777216
100
AcDbTrace
 10
1445.712310599652
 20
968.2876893971934
 30
0.0
 11
1446.772970771976
 21
967.2270292259575
 31
0.0
 12
1437.227029228024
 22
976.7729707740423
 32
0.0
 13
1438.287689400348
 23
975.7123106028064
 33
0.0
  0
SOLID
  5
446
330
440
100
AcDbEntity
  8
0
  6
ByBlock
 62
     1
440
 16777216
100
AcDbTrace
 10
1445.712310599652
 20
1004.287689397193
 30
0.0
 11
1446.772970771976
 21
1003.227029225957
 31
0.0
 12
1437.227029228024
 22
1012.772970774042
 32
0.0
 13
1438.287689400348
 23
1011.712310602806
 33
0.0
  0
MTEXT
  5
447
330
440
100
AcDbEntity
  8
DIMENSIONS
  6
ByBlock
 62
     0
440
 16777216
100
AcDbMText
 10
1430.0
 20
989.9999999975388
 30
0.0
 40
6.0
 41
0.0
 46
0.0
 71
     5
 72
     1
  1
\A1; 3' - 0''
 11
0.0000000000000001
 21
1.0
 31
0.0
 73
     1
 44
1.0
  0
ENDBLK
  5
448
330
440
100
AcDbEntity
  8
0
100
AcDbBlockEnd
  0
BLOCK
  5
672
330
671
100
AcDbEntity
  8
0
100
AcDbBlockBegin
  2
*D27
 70
     1
 10
0.0
 20
0.0
 30
0.0
  3
*D27
  1

  0
LINE
  5
674
330
671
100
AcDbEntity
  8
WALL X
 62
     0
440
 16777216
370
    -2
100
AcDbLine
 10
378.0
 20
902.6854959592446
 30
0.0
 11
378.0
 21
922.0332955132931
 31
0.0
  0
LINE
  5
675
330
671
100
AcDbEntity
  8
WALL X
 62
     0
440
 16777216
370
    -2
100
AcDbLine
 10
702.0
 20
902.6854959592446
 30
0.0
 11
702.0
 21
922.0332955132931
 31
0.0
  0
LINE
  5
676
330
671
100
AcDbEntity
  8
WALL X
 62
     0
440
 16777216
370
    -2
100
AcDbLine
 10
378.18
 20
921.8532955132932
 30
0.0
 11
539.34
 21
921.8532955132932
 31
0.0
  0
LINE
  5
677
330
671
100
AcDbEntity
  8
WALL X
 62
     0
440
 16777216
370
    -2
100
AcDbLine
 10
701.82
 20
921.8532955132932
 30
0.0
 11
540.66
 21
921.8532955132932
 31
0.0
  0
SOLID
  5
678
330
671
100
AcDbEntity
  8
WALL X
 62
     0
440
 16777216
100
AcDbTrace
 10
378.18
 20
921.8832955132931
 30
0.0
 11
378.18
 21
921.8232955132933
 31
0.0
 12
378.0
 22
921.8532955132932
 32
0.0
 13
378.0
 23
921.8532955132932
 33
0.0
  0
SOLID
  5
679
330
671
100
AcDbEntity
  8
WALL X
 62
     0
440
 16777216
100
AcDbTrace
 10
701.82
 20
921.8832955132931
 30
0.0
 11
701.82
 21
921.8232955132933
 31
0.0
 12
702.0
 22
921.8532955132932
 32
0.0
 13
702.0
 23
921.8532955132932
 33
0.0
  0
MTEXT
  5
67A
330
671
100
AcDbEntity
  8
WALL X
 62
     0
440
 16777216
100
AcDbMText
 10
540.0
 20
921.8532955132932
 30
0.0
 40
0.18
 41
0.0
 46
0.0
 71
     5
 72
     1
  1
\A1;324.0000
 73
     1
 44
1.0
  0
POINT
  5
67B
330
671
100
AcDbEntity
  8
Defpoints
 62
     0
440
 16777216
100
AcDbPoint
 10
378.0
 20
902.6229959592447
 30
0.0
  0
POINT
  5
67C
330
671
100
AcDbEntity
  8
Defpoints
 62
     0
440
 16777216
100
AcDbPoint
 10
702.0
 20
902.6229959592445
 30
0.0
  0
POINT
  5
67D
330
671
100
AcDbEntity
  8
Defpoints
 62
     0
440
 16777216
100
AcDbPoint
 10
702.0
 20
921.8532955132932
 30
0.0
  0
ENDBLK
  5
673
330
671
100
AcDbEntity
  8
0
100
AcDbBlockEnd
  0
ENDSEC
  0
SECTION
  2
ENTITIES
  0
LINE
  5
370
330
19
100
AcDbEntity
  8
GRID
  6
CENTER
 62
     1
 48
0.5
100
AcDbLine
 10
0.0
 20
0.0
 30
0.0
 11
0.0
 21
1008.0
 31
0.0
  0
LINE
  5
371
330
19
100
AcDbEntity
  8
GRID
  6
Continuous
 62
     0
100
AcDbLine
 10
0.0
 20
1053.0
 30
0.0
 11
0.0
 21
1008.0
 31
0.0
  0
CIRCLE
  5
372
330
19
100
AcDbEntity
  8
GRID
  6
Continuous
 62
     0
100
AcDbCircle
 10
0.0
 20
1062.0
 30
0.0
 40
9.0
  0
TEXT
  5
373
330
19
100
AcDbEntity
  8
TEXT
 62
     0
100
AcDbText
 10
-2.0
 20
1059.0
 30
0.0
 40
6.0
  1
A
 72
     4
 11
0.0
 21
1062.0
 31
0.0
100
AcDbText
  0
LINE
  5
374
330
19
100
AcDbEntity
  8
GRID
  6
CENTER
 62
     1
 48
0.5
100
AcDbLine
 10
36.0
 20
0.0
 30
0.0
 11
36.0
 21
1008.0
 31
0.0
  0
LINE
  5
375
330
19
100
AcDbEntity
  8
GRID
  6
Continuous
 62
     0
100
AcDbLine
 10
36.0
 20
1053.0
 30
0.0
 11
36.0
 21
1008.0
 31
0.0
  0
CIRCLE
  5
376
330
19
100
AcDbEntity
  8
GRID
  6
Continuous
 62
     0
100
AcDbCircle
 10
36.0
 20
1062.0
 30
0.0
 40
9.0
  0
TEXT
  5
377
330
19
100
AcDbEntity
  8
TEXT
 62
     0
100
AcDbText
 10
34.0
 20
1059.0
 30
0.0
 40
6.0
  1
B
 72
     4
 11
36.0
 21
1062.0
 31
0.0
100
AcDbText
  0
LINE
  5
378
330
19
100
AcDbEntity
  8
GRID
  6
CENTER
 62
     1
 48
0.5
100
AcDbLine
 10
156.0
 20
0.0
 30
0.0
 11
156.0
 21
1008.0
 31
0.0
  0
LINE
  5
379
330
19
100
AcDbEntity
  8
GRID
  6
Continuous
 62
     0
100
AcDbLine
 10
156.0
 20
1053.0
 30
0.0
 11
156.0
 21
1008.0
 31
0.0
  0
CIRCLE
  5
37A
330
19
100
AcDbEntity
  8
GRID
  6
Continuous
 62
     0
100
AcDbCircle
 10
156.0
 20
1062.0
 30
0.0
 40
9.0
  0
TEXT
  5
37B
330
19
100
AcDbEntity
  8
TEXT
 62
     0
100
AcDbText
 10
152.5
 20
1059.0
 30
0.0
 40
6.0
  1
B'
 72
     4
 11
156.0
 21
1062.0
 31
0.0
100
AcDbText
  0
LINE
  5
37C
330
19
100
AcDbEntity
  8
GRID
  6
CENTER
 62
     1
 48
0.5
100
AcDbLine
 10
378.0
 20
0.0
 30
0.0
 11
378.0
 21
1008.0
 31
0.0
  0
LINE
  5
37D
330
19
100
AcDbEntity
  8
GRID
  6
Continuous
 62
     0
100
AcDbLine
 10
378.0
 20
1053.0
 30
0.0
 11
378.0
 21
1008.0
 31
0.0
  0
CIRCLE
  5
37E
330
19
100
AcDbEntity
  8
GRID
  6
Continuous
 62
     0
100
AcDbCircle
 10
378.0
 20
1062.0
 30
0.0
 40
9.0
  0
TEXT
  5
37F
330
19
100
AcDbEntity
  8
TEXT
 62
     0
100
AcDbText
 10
376.0
 20
1059.0
 30
0.0
 40
6.0
  1
C
 72
     4
 11
378.0
 21
1062.0
 31
0.0
100
AcDbText
  0
LINE
  5
380
330
19
100
AcDbEntity
  8
GRID
  6
CENTER
 62
     1
 48
0.5
100
AcDbLine
 10
702.0
 20
0.0
 30
0.0
 11
702.0
 21
1008.0
 31
0.0
  0
LINE
  5
381
330
19
100
AcDbEntity
  8
GRID
  6
Continuous
 62
     0
100
AcDbLine
 10
702.0
 20
1053.0
 30
0.0
 11
702.0
 21
1008.0
 31
0.0
  0
CIRCLE
  5
382
330
19
100
AcDbEntity
  8
GRID
  6
Continuous
 62
     0
100
AcDbCircle
 10
702.0
 20
1062.0
 30
0.0
 40
9.0
  0
TEXT
  5
383
330
19
100
AcDbEntity
  8
TEXT
 62
     0
100
AcDbText
 10
700.0
 20
1059.0
 30
0.0
 40
6.0
  1
D
 72
     4
 11
702.0
 21
1062.0
 31
0.0
100
AcDbText
  0
LINE
  5
384
330
19
100
AcDbEntity
  8
GRID
  6
CENTER
 62
     1
 48
0.5
100
AcDbLine
 10
1026.0
 20
0.0
 30
0.0
 11
1026.0
 21
1008.0
 31
0.0
  0
LINE
  5
385
330
19
100
AcDbEntity
  8
GRID
  6
Continuous
 62
     0
100
AcDbLine
 10
1026.0
 20
1053.0
 30
0.0
 11
1026.0
 21
1008.0
 31
0.0
  0
CIRCLE
  5
386
330
19
100
AcDbEntity
  8
GRID
  6
Continuous
 62
     0
100
AcDbCircle
 10
1026.0
 20
1062.0
 30
0.0
 40
9.0
  0
TEXT
  5
387
330
19
100
AcDbEntity
  8
TEXT
 62
     0
100
AcDbText
 10
1018.0
 20
1059.0
 30
0.0
 40
6.0
  1
E-9
 72
     4
 11
1026.0
 21
1062.0
 31
0.0
100
AcDbText
  0
LINE
  5
388
330
19
100
AcDbEntity
  8
GRID
  6
CENTER
 62
     1
 48
0.5
100
AcDbLine
 10
1368.0
 20
0.0
 30
0.0
 11
1368.0
 21
1008.0
 31
0.0
  0
LINE
  5
389
330
19
100
AcDbEntity
  8
GRID
  6
Continuous
 62
     0
100
AcDbLine
 10
1368.0
 20
1053.0
 30
0.0
 11
1368.0
 21
1008.0
 31
0.0
  0
CIRCLE
  5
38A
330
19
100
AcDbEntity
  8
GRID
  6
Continuous
 62
     0
100
AcDbCircle
 10
1368.0
 20
1062.0
 30
0.0
 40
9.0
  0
TEXT
  5
38B
330
19
100
AcDbEntity
  8
TEXT
 62
     0
100
AcDbText
 10
1366.0
 20
1059.0
 30
0.0
 40
6.0
  1
E
 72
     4
 11
1368.0
 21
1062.0
 31
0.0
100
AcDbText
  0
LINE
  5
38C
330
19
100
AcDbEntity
  8
GRID
  6
CENTER
 62
     1
 48
0.5
100
AcDbLine
 10
1404.0
 20
0.0
 30
0.0
 11
1404.0
 21
1008.0
 31
0.0
  0
LINE
  5
38D
330
19
100
AcDbEntity
  8
GRID
  6
Continuous
 62
     0
100
AcDbLine
 10
1404.0
 20
1053.0
 30
0.0
 11
1404.0
 21
1008.0
 31
0.0
  0
CIRCLE
  5
38E
330
19
100
AcDbEntity
  8
GRID
  6
Continuous
 62
     0
100
AcDbCircle
 10
1404.0
 20
1062.0
 30
0.0
 40
9.0
  0
TEXT
  5
38F
330
19
100
AcDbEntity
  8
TEXT
 62
     0
100
AcDbText
 10
1402.0
 20
1059.0
 30
0.0
 40
6.0
  1
F
 72
     4
 11
1404.0
 21
1062.0
 31
0.0
100
AcDbText
  0
LINE
  5
390
330
19
100
AcDbEntity
  8
GRID
  6
CENTER
 62
     1
 48
0.5
100
AcDbLine
 10
0.0
 20
0.0
 30
0.0
 11
1404.0
 21
0.0
 31
0.0
  0
LINE
  5
391
330
19
100
AcDbEntity
  8
GRID
  6
Continuous
 62
     0
100
AcDbLine
 10
0.0
 20
0.0
 30
0.0
 11
-45.0
 21
0.0
 31
0.0
  0
CIRCLE
  5
392
330
19
100
AcDbEntity
  8
GRID
  6
Continuous
 62
     0
100
AcDbCircle
 10
-54.0
 20
0.0
 30
0.0
 40
9.0
  0
TEXT
  5
393
330
19
100
AcDbEntity
  8
TEXT
 62
     0
100
AcDbText
 10
-55.0
 20
-3.0
 30
0.0
 40
6.0
  1
1
 72
     4
 11
-54.0
 21
0.0
 31
0.0
100
AcDbText
  0
LINE
  5
394
330
19
100
AcDbEntity
  8
GRID
  6
CENTER
 62
     1
 48
0.5
100
AcDbLine
 10
0.0
 20
36.0
 30
0.0
 11
1404.0
 21
36.0
 31
0.0
  0
LINE
  5
395
330
19
100
AcDbEntity
  8
GRID
  6
Continuous
 62
     0
100
AcDbLine
 10
0.0
 20
36.0
 30
0.0
 11
-45.0
 21
36.0
 31
0.0
  0
CIRCLE
  5
396
330
19
100
AcDbEntity
  8
GRID
  6
Continuous
 62
     0
100
AcDbCircle
 10
-54.0
 20
36.0
 30
0.0
 40
9.0
  0
TEXT
  5
397
330
19
100
AcDbEntity
  8
TEXT
 62
     0
100
AcDbText
 10
-56.0
 20
33.0
 30
0.0
 40
6.0
  1
2
 72
     4
 11
-54.0
 21
36.0
 31
0.0
100
AcDbText
  0
LINE
  5
398
330
19
100
AcDbEntity
  8
GRID
  6
CENTER
 62
     1
 48
0.5
100
AcDbLine
 10
0.0
 20
156.0
 30
0.0
 11
1404.0
 21
156.0
 31
0.0
  0
LINE
  5
399
330
19
100
AcDbEntity
  8
GRID
  6
Continuous
 62
     0
100
AcDbLine
 10
0.0
 20
156.0
 30
0.0
 11
-45.0
 21
156.0
 31
0.0
  0
CIRCLE
  5
39A
330
19
100
AcDbEntity
  8
GRID
  6
Continuous
 62
     0
100
AcDbCircle
 10
-54.0
 20
156.0
 30
0.0
 40
9.0
  0
TEXT
  5
39B
330
19
100
AcDbEntity
  8
TEXT
 62
     0
100
AcDbText
 10
-57.5
 20
153.0
 30
0.0
 40
6.0
  1
2'
 72
     4
 11
-54.0
 21
156.0
 31
0.0
100
AcDbText
  0
LINE
  5
39C
330
19
100
AcDbEntity
  8
GRID
  6
CENTER
 62
     1
 48
0.5
100
AcDbLine
 10
0.0
 20
324.0
 30
0.0
 11
1404.0
 21
324.0
 31
0.0
  0
LINE
  5
39D
330
19
100
AcDbEntity
  8
GRID
  6
Continuous
 62
     0
100
AcDbLine
 10
0.0
 20
324.0
 30
0.0
 11
-45.0
 21
324.0
 31
0.0
  0
CIRCLE
  5
39E
330
19
100
AcDbEntity
  8
GRID
  6
Continuous
 62
     0
100
AcDbCircle
 10
-54.0
 20
324.0
 30
0.0
 40
9.0
  0
TEXT
  5
39F
330
19
100
AcDbEntity
  8
TEXT
 62
     0
100
AcDbText
 10
-62.0
 20
321.0
 30
0.0
 40
6.0
  1
2-9
 72
     4
 11
-54.0
 21
324.0
 31
0.0
100
AcDbText
  0
LINE
  5
3A0
330
19
100
AcDbEntity
  8
GRID
  6
CENTER
 62
     1
 48
0.5
100
AcDbLine
 10
0.0
 20
504.0
 30
0.0
 11
1404.0
 21
504.0
 31
0.0
  0
LINE
  5
3A1
330
19
100
AcDbEntity
  8
GRID
  6
Continuous
 62
     0
100
AcDbLine
 10
0.0
 20
504.0
 30
0.0
 11
-45.0
 21
504.0
 31
0.0
  0
CIRCLE
  5
3A2
330
19
100
AcDbEntity
  8
GRID
  6
Continuous
 62
     0
100
AcDbCircle
 10
-54.0
 20
504.0
 30
0.0
 40
9.0
  0
TEXT
  5
3A3
330
19
100
AcDbEntity
  8
TEXT
 62
     0
100
AcDbText
 10
-56.0
 20
501.0
 30
0.0
 40
6.0
  1
6
 72
     4
 11
-54.0
 21
504.0
 31
0.0
100
AcDbText
  0
LINE
  5
3A4
330
19
100
AcDbEntity
  8
GRID
  6
CENTER
 62
     1
 48
0.5
100
AcDbLine
 10
0.0
 20
684.0
 30
0.0
 11
1404.0
 21
684.0
 31
0.0
  0
LINE
  5
3A5
330
19
100
AcDbEntity
  8
GRID
  6
Continuous
 62
     0
100
AcDbLine
 10
0.0
 20
684.0
 30
0.0
 11
-45.0
 21
684.0
 31
0.0
  0
CIRCLE
  5
3A6
330
19
100
AcDbEntity
  8
GRID
  6
Continuous
 62
     0
100
AcDbCircle
 10
-54.0
 20
684.0
 30
0.0
 40
9.0
  0
TEXT
  5
3A7
330
19
100
AcDbEntity
  8
TEXT
 62
     0
100
AcDbText
 10
-56.0
 20
681.0
 30
0.0
 40
6.0
  1
3
 72
     4
 11
-54.0
 21
684.0
 31
0.0
100
AcDbText
  0
LINE
  5
3A8
330
19
100
AcDbEntity
  8
GRID
  6
CENTER
 62
     1
 48
0.5
100
AcDbLine
 10
0.0
 20
852.0
 30
0.0
 11
1404.0
 21
852.0
 31
0.0
  0
LINE
  5
3A9
330
19
100
AcDbEntity
  8
GRID
  6
Continuous
 62
     0
100
AcDbLine
 10
0.0
 20
852.0
 30
0.0
 11
-45.0
 21
852.0
 31
0.0
  0
CIRCLE
  5
3AA
330
19
100
AcDbEntity
  8
GRID
  6
Continuous
 62
     0
100
AcDbCircle
 10
-54.0
 20
852.0
 30
0.0
 40
9.0
  0
TEXT
  5
3AB
330
19
100
AcDbEntity
  8
TEXT
 62
     0
100
AcDbText
 10
-56.0
 20
849.0
 30
0.0
 40
6.0
  1
6
 72
     4
 11
-54.0
 21
852.0
 31
0.0
100
AcDbText
  0
LINE
  5
3AC
330
19
100
AcDbEntity
  8
GRID
  6
CENTER
 62
     1
 48
0.5
100
AcDbLine
 10
0.0
 20
972.0
 30
0.0
 11
1404.0
 21
972.0
 31
0.0
  0
LINE
  5
3AD
330
19
100
AcDbEntity
  8
GRID
  6
Continuous
 62
     0
100
AcDbLine
 10
0.0
 20
972.0
 30
0.0
 11
-45.0
 21
972.0
 31
0.0
  0
CIRCLE
  5
3AE
330
19
100
AcDbEntity
  8
GRID
  6
Continuous
 62
     0
100
AcDbCircle
 10
-54.0
 20
972.0
 30
0.0
 40
9.0
  0
TEXT
  5
3AF
330
19
100
AcDbEntity
  8
TEXT
 62
     0
100
AcDbText
 10
-56.0
 20
969.0
 30
0.0
 40
6.0
  1
4
 72
     4
 11
-54.0
 21
972.0
 31
0.0
100
AcDbText
  0
LINE
  5
3B0
330
19
100
AcDbEntity
  8
GRID
  6
CENTER
 62
     1
 48
0.5
100
AcDbLine
 10
0.0
 20
1008.0
 30
0.0
 11
1404.0
 21
1008.0
 31
0.0
  0
LINE
  5
3B1
330
19
100
AcDbEntity
  8
GRID
  6
Continuous
 62
     0
100
AcDbLine
 10
0.0
 20
1008.0
 30
0.0
 11
-45.0
 21
1008.0
 31
0.0
  0
CIRCLE
  5
3B2
330
19
100
AcDbEntity
  8
GRID
  6
Continuous
 62
     0
100
AcDbCircle
 10
-54.0
 20
1008.0
 30
0.0
 40
9.0
  0
TEXT
  5
3B3
330
19
100
AcDbEntity
  8
TEXT
 62
     0
100
AcDbText
 10
-62.0
 20
1005.0
 30
0.0
 40
6.0
  1
5-9
 72
     4
 11
-54.0
 21
1008.0
 31
0.0
100
AcDbText
  0
LINE
  5
45F
330
19
100
AcDbEntity
  8
BEAM
  6
Continuous
 62
     2
100
AcDbLine
 10
-0.0000002067442555
 20
1008.0
 30
0.0
 11
1403.999999793256
 21
1008.0
 31
0.0
  0
LINE
  5
467
330
19
100
AcDbEntity
  8
BEAM
  6
Continuous
 62
     2
100
AcDbLine
 10
1404.0
 20
0.0
 30
0.0
 11
1403.999999793256
 21
1008.0
 31
0.0
  0
LINE
  5
46F
330
19
100
AcDbEntity
  8
BEAM
  6
Continuous
 62
     2
100
AcDbLine
 10
-0.0000000000000009
 20
0.0
 30
0.0
 11
1404.0
 21
0.0
 31
0.0
  0
LINE
  5
477
330
19
100
AcDbEntity
  8
BEAM
  6
Continuous
 62
     2
100
AcDbLine
 10
0.0
 20
0.0
 30
0.0
 11
-0.0000002067442559
 21
1008.0
 31
0.0
  0
LINE
  5
52F
330
19
100
AcDbEntity
  8
WALL Y
100
AcDbLine
 10
378.0000000001189
 20
624.0000000000208
 30
0.0
 11
378.0000000001189
 21
714.0
 31
0.0
  0
LINE
  5
530
330
19
100
AcDbEntity
  8
WALL X
100
AcDbLine
 10
378.0000000001189
 20
714.0
 30
0.0
 11
1026.0
 21
714.0
 31
0.0
  0
LINE
  5
531
330
19
100
AcDbEntity
  8
WALL Y
100
AcDbLine
 10
1026.0
 20
714.0
 30
0.0
 11
1025.99999999994
 21
623.9999999999894
 31
0.0
  0
LWPOLYLINE
  5
56A
330
19
100
AcDbEntity
  8
SLAB
100
AcDbPolyline
 90
        4
 70
     1
 43
0.0
 10
0.0
 20
1008.0
 10
1404.0
 20
1008.0
 10
1404.0
 20
0.0
 10
0.0
 20
0.0
  0
POINT
  5
582
330
19
100
AcDbEntity
  8
REC COLS
100
AcDbPoint
 10
156.0
 20
972.0
 30
0.0
  0
POINT
  5
583
330
19
100
AcDbEntity
  8
REC COLS
100
AcDbPoint
 10
378.0
 20
972.0
 30
0.0
  0
POINT
  5
584
330
19
100
AcDbEntity
  8
REC COLS
100
AcDbPoint
 10
702.0
 20
972.0
 30
0.0
  0
POINT
  5
585
330
19
100
AcDbEntity
  8
REC COLS
100
AcDbPoint
 10
1026.0
 20
972.0
 30
0.0
  0
POINT
  5
586
330
19
100
AcDbEntity
  8
REC COLS
100
AcDbPoint
 10
156.0
 20
35.99999999999989
 30
0.0
  0
POINT
  5
587
330
19
100
AcDbEntity
  8
REC COLS
100
AcDbPoint
 10
378.0
 20
35.99999999999989
 30
0.0
  0
POINT
  5
588
330
19
100
AcDbEntity
  8
REC COLS
100
AcDbPoint
 10
702.0
 20
35.99999999999989
 30
0.0
  0
POINT
  5
589
330
19
100
AcDbEntity
  8
REC COLS
100
AcDbPoint
 10
1026.0
 20
35.99999999999989
 30
0.0
  0
POINT
  5
58A
330
19
100
AcDbEntity
  8
REC COLS
100
AcDbPoint
 10
36.0
 20
852.0
 30
0.0
  0
POINT
  5
58B
330
19
100
AcDbEntity
  8
REC COLS
100
AcDbPoint
 10
36.0
 20
504.0
 30
0.0
  0
POINT
  5
58C
330
19
100
AcDbEntity
  8
REC COLS
100
AcDbPoint
 10
36.0
 20
156.0
 30
0.0
  0
POINT
  5
58D
330
19
100
AcDbEntity
  8
REC COLS
100
AcDbPoint
 10
1368.0
 20
684.0
 30
0.0
  0
POINT
  5
58E
330
19
100
AcDbEntity
  8
REC COLS
100
AcDbPoint
 10
1368.0
 20
324.0
 30
0.0
  0
POINT
  5
58F
330
19
100
AcDbEntity
  8
CIR COLS
100
AcDbPoint
 10
1368.0
 20
972.0
 30
0.0
  0
POINT
  5
591
330
19
100
AcDbEntity
  8
CIR COLS
100
AcDbPoint
 10
1368.0
 20
36.0
 30
0.0
  0
LINE
  5
5BB
330
19
100
AcDbEntity
  8
WALL Y
100
AcDbLine
 10
378.0
 20
564.0
 30
0.0
 11
378.0
 21
324.0
 31
0.0
  0
LINE
  5
5BC
330
19
100
AcDbEntity
  8
WALL X
100
AcDbLine
 10
378.0
 20
324.0
 30
0.0
 11
1026.0
 21
324.0
 31
0.0
  0
LINE
  5
5BD
330
19
100
AcDbEntity
  8
WALL Y
100
AcDbLine
 10
1026.0
 20
324.0
 30
0.0
 11
1025.999999999879
 21
564.0
 31
0.0
  0
LINE
  5
5E0
330
19
100
AcDbEntity
  8
CB Y
100
AcDbLine
 10
378.0000000001189
 20
624.0000000000208
 30
0.0
 11
378.0
 21
564.0
 31
0.0
  0
LINE
  5
5E1
330
19
100
AcDbEntity
  8
CB Y
100
AcDbLine
 10
1025.99999999994
 20
623.9999999999894
 30
0.0
 11
1025.999999999879
 21
564.0
 31
0.0
  0
ENDSEC
  0
SECTION
  2
OBJECTS
  0
DICTIONARY
  5
C
330
0
100
AcDbDictionary
281
     1
  3
ACAD_BACKGROUND
350
5A9
  3
ACAD_CIP_PREVIOUS_PRODUCT_INFO
350
50B
  3
ACAD_COLOR
350
4EB
  3
ACAD_DETAILVIEWSTYLE
350
505
  3
ACAD_GROUP
350
D
  3
ACAD_LAYOUT
350
4EC
  3
ACAD_MATERIAL
350
4B9
  3
ACAD_MLEADERSTYLE
350
501
  3
ACAD_MLINESTYLE
350
E
  3
ACAD_PLOTSETTINGS
350
507
  3
ACAD_PLOTSTYLENAME
350
4B7
  3
ACAD_SCALELIST
350
4EF
  3
ACAD_SECTIONVIEWSTYLE
350
503
  3
ACAD_TABLESTYLE
350
4ED
  3
ACAD_VISUALSTYLE
350
4D2
  3
ACDB_RECOMPOSE_DATA
350
67F
  3
AcDbVariableDictionary
350
553
  0
DICTIONARY
  5
50C
330
2
100
AcDbDictionary
280
     1
281
     1
  3
ACAD_LAYERSTATES
360
50D
  0
DICTIONARY
  5
53D
330
F
100
AcDbDictionary
280
     1
281
     1
  3
ADSK_XREC_LAYER_RECONCILED
360
53E
  0
DICTIONARY
  5
53F
330
50
100
AcDbDictionary
280
     1
281
     1
  3
ADSK_XREC_LAYER_RECONCILED
360
540
  0
DICTIONARY
  5
541
330
51
100
AcDbDictionary
280
     1
281
     1
  3
ADSK_XREC_LAYER_RECONCILED
360
542
  0
DICTIONARY
  5
543
330
52
100
AcDbDictionary
280
     1
281
     1
  3
ADSK_XREC_LAYER_RECONCILED
360
544
  0
DICTIONARY
  5
545
330
53
100
AcDbDictionary
280
     1
281
     1
  3
ADSK_XREC_LAYER_RECONCILED
360
546
  0
DICTIONARY
  5
547
330
54
100
AcDbDictionary
280
     1
281
     1
  3
ADSK_XREC_LAYER_RECONCILED
360
548
  0
DICTIONARY
  5
549
330
55
100
AcDbDictionary
280
     1
281
     1
  3
ADSK_XREC_LAYER_RECONCILED
360
54A
  0
DICTIONARY
  5
54B
330
56
100
AcDbDictionary
280
     1
281
     1
  3
ADSK_XREC_LAYER_RECONCILED
360
54C
  0
DICTIONARY
  5
54D
330
57
100
AcDbDictionary
280
     1
281
     1
  3
ADSK_XREC_LAYER_RECONCILED
360
54E
  0
DICTIONARY
  5
54F
330
58
100
AcDbDictionary
280
     1
281
     1
  3
ADSK_XREC_LAYER_RECONCILED
360
550
  0
DICTIONARY
  5
551
330
59
100
AcDbDictionary
280
     1
281
     1
  3
ADSK_XREC_LAYER_RECONCILED
360
552
  0
DICTIONARY
  5
5BE
330
19
100
AcDbDictionary
280
     1
281
     1
  3
ACAD_SORTENTS
360
5BF
  0
DICTIONARY
  5
5A9
102
{ACAD_REACTORS
330
C
102
}
330
C
100
AcDbDictionary
281
     1
  0
XRECORD
  5
50B
102
{ACAD_REACTORS
330
C
102
}
330
C
100
AcDbXrecord
280
     1
300
ACD
300
2022
300
87545ACD_2022_0F
  0
DICTIONARY
  5
4EB
102
{ACAD_REACTORS
330
C
102
}
330
C
100
AcDbDictionary
281
     1
  0
DICTIONARY
  5
505
102
{ACAD_REACTORS
330
C
102
}
330
C
100
AcDbDictionary
281
     1
  3
Imperial24
350
506
  0
DICTIONARY
  5
D
102
{ACAD_REACTORS
330
C
102
}
330
C
100
AcDbDictionary
281
     1
  0
DICTIONARY
  5
4EC
102
{ACAD_REACTORS
330
C
102
}
330
C
100
AcDbDictionary
281
     1
  3
Layout1
350
509
  3
Model
350
508
  0
DICTIONARY
  5
4B9
102
{ACAD_REACTORS
330
C
102
}
330
C
100
AcDbDictionary
281
     1
  3
ByBlock
350
4C2
  3
ByLayer
350
4BA
  3
Global
350
4CA
  0
DICTIONARY
  5
501
102
{ACAD_REACTORS
330
C
102
}
330
C
100
AcDbDictionary
281
     1
  3
Standard
350
502
  0
DICTIONARY
  5
E
102
{ACAD_REACTORS
330
C
102
}
330
C
100
AcDbDictionary
281
     1
  3
STANDARD
350
1C
  0
DICTIONARY
  5
507
102
{ACAD_REACTORS
330
C
102
}
330
C
100
AcDbDictionary
281
     1
  0
ACDBDICTIONARYWDFLT
  5
4B7
102
{ACAD_REACTORS
330
C
102
}
330
C
100
AcDbDictionary
281
     1
  3
Normal
350
4B8
100
AcDbDictionaryWithDefault
340
4B8
  0
DICTIONARY
  5
4EF
102
{ACAD_REACTORS
330
C
102
}
330
C
100
AcDbDictionary
281
     1
  3
A0
350
4F0
  3
A1
350
4F1
  3
A2
350
4F2
  3
A3
350
4F3
  3
A4
350
4F4
  3
A5
350
4F5
  3
A6
350
4F6
  3
A7
350
4F7
  3
A8
350
4F8
  3
A9
350
4F9
  3
B0
350
4FA
  3
B1
350
4FB
  3
B2
350
4FC
  3
B3
350
4FD
  3
B4
350
4FE
  3
B5
350
4FF
  3
B6
350
500
  0
DICTIONARY
  5
503
102
{ACAD_REACTORS
330
C
102
}
330
C
100
AcDbDictionary
281
     1
  3
Imperial24
350
504
  0
DICTIONARY
  5
4ED
102
{ACAD_REACTORS
330
C
102
}
330
C
100
AcDbDictionary
281
     1
  3
Standard
350
4EE
  0
DICTIONARY
  5
4D2
102
{ACAD_REACTORS
330
C
102
}
330
C
100
AcDbDictionary
281
     1
  3
2dWireframe
350
4D8
  3
Basic
350
4D7
  3
Brighten
350
4DE
  3
ColorChange
350
4E2
  3
Conceptual
350
4DB
  3
Dim
350
4DD
  3
EdgeColorOff
350
4EA
  3
Facepattern
350
4E1
  3
Flat
350
4D3
  3
FlatWithEdges
350
4D4
  3
Gouraud
350
4D5
  3
GouraudWithEdges
350
4D6
  3
Hidden
350
4DA
  3
JitterOff
350
4E8
  3
Linepattern
350
4E0
  3
OverhangOff
350
4E9
  3
Realistic
350
4DC
  3
Shaded
350
4E7
  3
Shaded with edges
350
4E6
  3
Shades of Gray
350
4E3
  3
Sketchy
350
4E4
  3
Thicken
350
4DF
  3
Wireframe
350
4D9
  3
X-Ray
350
4E5
  0
XRECORD
  5
67F
102
{ACAD_REACTORS
330
C
102
}
330
C
100
AcDbXrecord
280
     1
 90
        1
330
4EE
  0
DICTIONARY
  5
553
102
{ACAD_REACTORS
330
C
102
}
330
C
100
AcDbDictionary
281
     1
  3
CANNOSCALE
350
559
  3
CMLEADERSTYLE
350
555
  3
CTABLESTYLE
350
554
  3
CVIEWDETAILSTYLE
350
556
  3
CVIEWSECTIONSTYLE
350
557
  3
LAYEREVAL
350
55B
  3
LAYERNOTIFY
350
55C
  3
LIGHTINGUNITS
350
55A
  3
MSLTSCALE
350
558
  0
DICTIONARY
  5
50D
102
{ACAD_REACTORS
330
50C
102
}
330
50C
100
AcDbDictionary
281
     1
  3
_LAYISO_STATE
350
622
1001
AcLayerTools
1000
508
1000
0
  0
XRECORD
  5
53E
102
{ACAD_REACTORS
330
53D
102
}
330
53D
100
AcDbXrecord
280
     1
290
     1
  0
XRECORD
  5
540
102
{ACAD_REACTORS
330
53F
102
}
330
53F
100
AcDbXrecord
280
     1
290
     1
  0
XRECORD
  5
542
102
{ACAD_REACTORS
330
541
102
}
330
541
100
AcDbXrecord
280
     1
290
     1
  0
XRECORD
  5
544
102
{ACAD_REACTORS
330
543
102
}
330
543
100
AcDbXrecord
280
     1
290
     1
  0
XRECORD
  5
546
102
{ACAD_REACTORS
330
545
102
}
330
545
100
AcDbXrecord
280
     1
290
     1
  0
XRECORD
  5
548
102
{ACAD_REACTORS
330
547
102
}
330
547
100
AcDbXrecord
280
     1
290
     1
  0
XRECORD
  5
54A
102
{ACAD_REACTORS
330
549
102
}
330
549
100
AcDbXrecord
280
     1
290
     1
  0
XRECORD
  5
54C
102
{ACAD_REACTORS
330
54B
102
}
330
54B
100
AcDbXrecord
280
     1
290
     1
  0
XRECORD
  5
54E
102
{ACAD_REACTORS
330
54D
102
}
330
54D
100
AcDbXrecord
280
     1
290
     1
  0
XRECORD
  5
550
102
{ACAD_REACTORS
330
54F
102
}
330
54F
100
AcDbXrecord
280
     1
290
     1
  0
XRECORD
  5
552
102
{ACAD_REACTORS
330
551
102
}
330
551
100
AcDbXrecord
280
     1
290
     1
  0
SORTENTSTABLE
  5
5BF
102
{ACAD_REACTORS
330
5BE
102
}
330
5BE
100
AcDbSortentsTable
330
19
331
56A
  5
584
331
582
  5
585
331
583
  5
586
331
584
  5
587
331
585
  5
588
331
586
  5
589
331
587
  5
58A
331
588
  5
58B
331
589
  5
58C
331
58A
  5
58D
331
58B
  5
58E
331
58C
  5
58F
331
58D
  5
591
331
58E
  5
5BB
331
58F
  5
5BC
331
591
  5
5BD
331
5BB
  5
56A
331
5BC
  5
582
331
5BD
  5
583
  0
ACDBDETAILVIEWSTYLE
  5
506
102
{ACAD_REACTORS
330
505
102
}
330
505
100
AcDbModelDocViewStyle
 70
     0
  3
Imperial24
290
     0
300
Imperial24
 90
        0
100
AcDbDetailViewStyle
 70
     0
 71
     0
 90
        3
 71
     1
340
10
 62
   256
 40
0.24
340
0
 62
   256
 40
0.24
300

 40
0.36
280
     3
 71
     2
340
15
 90
       25
 62
   256
 71
     3
340
10
 62
   256
 40
0.24
 90
        1
 40
0.75
 90
        1
300
%<\AcVar ViewType \f "%tc1">% %<\AcVar ViewDetailId>%\PSCALE %<\AcVar ViewScale \f "%sn">%
 71
     4
340
15
 90
       25
 62
   256
340
15
 90
       25
 62
   256
280
     0
  0
LAYOUT
  5
509
102
{ACAD_REACTORS
330
4EC
102
}
330
4EC
100
AcDbPlotSettings
  1

  2
Bluebeam PDF
  4

  6

 40
0.0
 41
0.0
 42
0.0
 43
0.0
 44
0.0
 45
0.0
 46
0.0
 47
0.0
 48
0.0
 49
0.0
140
0.0
141
0.0
142
1.0
143
1.0
 70
   688
 72
     0
 73
     0
 74
     5
  7

 75
    16
147
1.0
 76
     0
 77
     2
 78
   300
148
0.0
149
0.0
100
AcDbLayout
  1
Layout1
 70
     1
 71
     1
 10
0.0
 20
0.0
 11
12.0
 21
9.0
 12
0.0
 22
0.0
 32
0.0
 14
1.000000000000000E+20
 24
1.000000000000000E+20
 34
1.000000000000000E+20
 15
-1.000000000000000E+20
 25
-1.000000000000000E+20
 35
-1.000000000000000E+20
146
0.0
 13
0.0
 23
0.0
 33
0.0
 16
1.0
 26
0.0
 36
0.0
 17
0.0
 27
1.0
 37
0.0
 76
     0
330
16
  0
LAYOUT
  5
508
102
{ACAD_REACTORS
330
4EC
102
}
330
4EC
100
AcDbPlotSettings
  1

  2
Bluebeam PDF
  4

  6

 40
0.0
 41
0.0
 42
0.0
 43
0.0
 44
0.0
 45
0.0
 46
0.0
 47
0.0
 48
0.0
 49
0.0
140
0.0
141
0.0
142
1.0
143
1.0
 70
  1712
 72
     0
 73
     0
 74
     0
  7

 75
     0
147
1.0
 76
     0
 77
     2
 78
   300
148
0.0
149
0.0
100
AcDbLayout
  1
Model
 70
     1
 71
     0
 10
0.0
 20
0.0
 11
12.0
 21
9.0
 12
0.0
 22
0.0
 32
0.0
 14
0.0
 24
0.0
 34
0.0
 15
0.0
 25
0.0
 35
0.0
146
0.0
 13
0.0
 23
0.0
 33
0.0
 16
1.0
 26
0.0
 36
0.0
 17
0.0
 27
1.0
 37
0.0
 76
     0
330
19
331
5A
  0
MATERIAL
  5
4C2
102
{ACAD_XDICTIONARY
360
4C3
102
}
102
{ACAD_REACTORS
330
4B9
102
}
330
4B9
100
AcDbMaterial
  1
ByBlock
 72
     0
 43
0.0208333333333333
 43
0.0
 43
0.0
 43
0.0
 43
0.0
 43
0.0208333333333333
 43
0.0
 43
0.0
 43
0.0
 43
0.0
 43
1.0
 43
0.0
 43
0.0
 43
0.0
 43
0.0
 43
1.0
 77
     0
 47
0.0208333333333333
 47
0.0
 47
0.0
 47
0.0
 47
0.0
 47
0.0208333333333333
 47
0.0
 47
0.0
 47
0.0
 47
0.0
 47
1.0
 47
0.0
 47
0.0
 47
0.0
 47
0.0
 47
1.0
171
     0
 49
0.0208333333333333
 49
0.0
 49
0.0
 49
0.0
 49
0.0
 49
0.0208333333333333
 49
0.0
 49
0.0
 49
0.0
 49
0.0
 49
1.0
 49
0.0
 49
0.0
 49
0.0
 49
0.0
 49
1.0
175
     0
142
0.0208333333333333
142
0.0
142
0.0
142
0.0
142
0.0
142
0.0208333333333333
142
0.0
142
0.0
142
0.0
142
0.0
142
1.0
142
0.0
142
0.0
142
0.0
142
0.0
142
1.0
179
     0
144
0.0208333333333333
144
0.0
144
0.0
144
0.0
144
0.0
144
0.0208333333333333
144
0.0
144
0.0
144
0.0
144
0.0
144
1.0
144
0.0
144
0.0
144
0.0
144
0.0
144
1.0
147
0.0208333333333333
147
0.0
147
0.0
147
0.0
147
0.0
147
0.0208333333333333
147
0.0
147
0.0
147
0.0
147
0.0
147
1.0
147
0.0
147
0.0
147
0.0
147
0.0
147
1.0
  0
MATERIAL
  5
4BA
102
{ACAD_XDICTIONARY
360
4BB
102
}
102
{ACAD_REACTORS
330
4B9
102
}
330
4B9
100
AcDbMaterial
  1
ByLayer
 72
     0
 43
0.0208333333333333
 43
0.0
 43
0.0
 43
0.0
 43
0.0
 43
0.0208333333333333
 43
0.0
 43
0.0
 43
0.0
 43
0.0
 43
1.0
 43
0.0
 43
0.0
 43
0.0
 43
0.0
 43
1.0
 77
     0
 47
0.0208333333333333
 47
0.0
 47
0.0
 47
0.0
 47
0.0
 47
0.0208333333333333
 47
0.0
 47
0.0
 47
0.0
 47
0.0
 47
1.0
 47
0.0
 47
0.0
 47
0.0
 47
0.0
 47
1.0
171
     0
 49
0.0208333333333333
 49
0.0
 49
0.0
 49
0.0
 49
0.0
 49
0.0208333333333333
 49
0.0
 49
0.0
 49
0.0
 49
0.0
 49
1.0
 49
0.0
 49
0.0
 49
0.0
 49
0.0
 49
1.0
175
     0
142
0.0208333333333333
142
0.0
142
0.0
142
0.0
142
0.0
142
0.0208333333333333
142
0.0
142
0.0
142
0.0
142
0.0
142
1.0
142
0.0
142
0.0
142
0.0
142
0.0
142
1.0
179
     0
144
0.0208333333333333
144
0.0
144
0.0
144
0.0
144
0.0
144
0.0208333333333333
144
0.0
144
0.0
144
0.0
144
0.0
144
1.0
144
0.0
144
0.0
144
0.0
144
0.0
144
1.0
147
0.0208333333333333
147
0.0
147
0.0
147
0.0
147
0.0
147
0.0208333333333333
147
0.0
147
0.0
147
0.0
147
0.0
147
1.0
147
0.0
147
0.0
147
0.0
147
0.0
147
1.0
  0
MATERIAL
  5
4CA
102
{ACAD_XDICTIONARY
360
4CB
102
}
102
{ACAD_REACTORS
330
4B9
102
}
330
4B9
100
AcDbMaterial
  1
Global
 72
     0
 43
0.0208333333333333
 43
0.0
 43
0.0
 43
0.0
 43
0.0
 43
0.0208333333333333
 43
0.0
 43
0.0
 43
0.0
 43
0.0
 43
1.0
 43
0.0
 43
0.0
 43
0.0
 43
0.0
 43
1.0
 77
     0
 47
0.0208333333333333
 47
0.0
 47
0.0
 47
0.0
 47
0.0
 47
0.0208333333333333
 47
0.0
 47
0.0
 47
0.0
 47
0.0
 47
1.0
 47
0.0
 47
0.0
 47
0.0
 47
0.0
 47
1.0
171
     0
 49
0.0208333333333333
 49
0.0
 49
0.0
 49
0.0
 49
0.0
 49
0.0208333333333333
 49
0.0
 49
0.0
 49
0.0
 49
0.0
 49
1.0
 49
0.0
 49
0.0
 49
0.0
 49
0.0
 49
1.0
175
     0
142
0.0208333333333333
142
0.0
142
0.0
142
0.0
142
0.0
142
0.0208333333333333
142
0.0
142
0.0
142
0.0
142
0.0
142
1.0
142
0.0
142
0.0
142
0.0
142
0.0
142
1.0
179
     0
144
0.0208333333333333
144
0.0
144
0.0
144
0.0
144
0.0
144
0.0208333333333333
144
0.0
144
0.0
144
0.0
144
0.0
144
1.0
144
0.0
144
0.0
144
0.0
144
0.0
144
1.0
147
0.0208333333333333
147
0.0
147
0.0
147
0.0
147
0.0
147
0.0208333333333333
147
0.0
147
0.0
147
0.0
147
0.0
147
1.0
147
0.0
147
0.0
147
0.0
147
0.0
147
1.0
  0
MLEADERSTYLE
  5
502
102
{ACAD_REACTORS
330
501
102
}
330
501
100
AcDbMLeaderStyle
179
     2
170
     2
171
     1
172
     0
 90
        2
 40
0.0
 41
0.0
173
     1
 91
-1056964608
340
13
 92
       -2
290
     1
 42
0.09
291
     1
 43
0.36
  3
Standard
 44
0.18
300

342
10
174
     1
178
     6
175
     1
176
     0
 93
-1056964608
 45
0.18
292
     0
297
     0
 46
0.18
 94
-1056964608
 47
1.0
 49
1.0
140
1.0
293
     1
141
0.0
294
     1
177
     0
142
1.0
295
     0
296
     0
143
0.125
271
     0
272
     9
273
     9
298
     0
  0
MLINESTYLE
  5
1C
102
{ACAD_REACTORS
330
E
102
}
330
E
100
AcDbMlineStyle
  2
STANDARD
 70
     0
  3

 62
     0
 51
90.0
 52
90.0
 71
     2
 49
0.5
 62
   256
  6
BYLAYER
 49
-0.5
 62
   256
  6
BYLAYER
  0
ACDBPLACEHOLDER
  5
4B8
102
{ACAD_REACTORS
330
4B7
102
}
330
4B7
  0
SCALE
  5
4F0
102
{ACAD_REACTORS
330
4EF
102
}
330
4EF
100
AcDbScale
 70
     0
300
1:1
140
1.0
141
1.0
290
     1
  0
SCALE
  5
4F1
102
{ACAD_REACTORS
330
4EF
102
}
330
4EF
100
AcDbScale
 70
     0
300
1/128" = 1'-0"
140
0.0078125
141
12.0
290
     0
  0
SCALE
  5
4F2
102
{ACAD_REACTORS
330
4EF
102
}
330
4EF
100
AcDbScale
 70
     0
300
1/64" = 1'-0"
140
0.015625
141
12.0
290
     0
  0
SCALE
  5
4F3
102
{ACAD_REACTORS
330
4EF
102
}
330
4EF
100
AcDbScale
 70
     0
300
1/32" = 1'-0"
140
0.03125
141
12.0
290
     0
  0
SCALE
  5
4F4
102
{ACAD_REACTORS
330
4EF
102
}
330
4EF
100
AcDbScale
 70
     0
300
1/16" = 1'-0"
140
0.0625
141
12.0
290
     0
  0
SCALE
  5
4F5
102
{ACAD_REACTORS
330
4EF
102
}
330
4EF
100
AcDbScale
 70
     0
300
3/32" = 1'-0"
140
0.09375
141
12.0
290
     0
  0
SCALE
  5
4F6
102
{ACAD_REACTORS
330
4EF
102
}
330
4EF
100
AcDbScale
 70
     0
300
1/8" = 1'-0"
140
0.125
141
12.0
290
     0
  0
SCALE
  5
4F7
102
{ACAD_REACTORS
330
4EF
102
}
330
4EF
100
AcDbScale
 70
     0
300
3/16" = 1'-0"
140
0.1875
141
12.0
290
     0
  0
SCALE
  5
4F8
102
{ACAD_REACTORS
330
4EF
102
}
330
4EF
100
AcDbScale
 70
     0
300
1/4" = 1'-0"
140
0.25
141
12.0
290
     0
  0
SCALE
  5
4F9
102
{ACAD_REACTORS
330
4EF
102
}
330
4EF
100
AcDbScale
 70
     0
300
3/8" = 1'-0"
140
0.375
141
12.0
290
     0
  0
SCALE
  5
4FA
102
{ACAD_REACTORS
330
4EF
102
}
330
4EF
100
AcDbScale
 70
     0
300
1/2" = 1'-0"
140
0.5
141
12.0
290
     0
  0
SCALE
  5
4FB
102
{ACAD_REACTORS
330
4EF
102
}
330
4EF
100
AcDbScale
 70
     0
300
3/4" = 1'-0"
140
0.75
141
12.0
290
     0
  0
SCALE
  5
4FC
102
{ACAD_REACTORS
330
4EF
102
}
330
4EF
100
AcDbScale
 70
     0
300
1" = 1'-0"
140
1.0
141
12.0
290
     0
  0
SCALE
  5
4FD
102
{ACAD_REACTORS
330
4EF
102
}
330
4EF
100
AcDbScale
 70
     0
300
1-1/2" = 1'-0"
140
1.5
141
12.0
290
     0
  0
SCALE
  5
4FE
102
{ACAD_REACTORS
330
4EF
102
}
330
4EF
100
AcDbScale
 70
     0
300
3" = 1'-0"
140
3.0
141
12.0
290
     0
  0
SCALE
  5
4FF
102
{ACAD_REACTORS
330
4EF
102
}
330
4EF
100
AcDbScale
 70
     0
300
6" = 1'-0"
140
6.0
141
12.0
290
     0
  0
SCALE
  5
500
102
{ACAD_REACTORS
330
4EF
102
}
330
4EF
100
AcDbScale
 70
     0
300
1'-0" = 1'-0"
140
12.0
141
12.0
290
     0
  0
ACDBSECTIONVIEWSTYLE
  5
504
102
{ACAD_REACTORS
330
503
102
}
330
503
100
AcDbModelDocViewStyle
 70
     0
  3
Imperial24
290
     0
300
Imperial24
 90
        0
100
AcDbSectionViewStyle
 70
     0
 71
     0
 90
       78
 71
     1
340
10
 62
   256
 40
0.24
340
0
340
0
 62
   256
 40
0.24
300
I, O, Q, S, X, Z
 40
0.48
 90
        3
 40
0.18
 90
        1
 71
     2
340
15
 90
       25
 62
   256
340
15
 90
       50
 62
   256
 40
0.24
 40
0.0
 40
0.24
 71
     3
340
10
 62
   256
 40
0.24
 90
        1
 40
0.75
 90
        1
300
%<\AcVar ViewType \f "%tc1">% %<\AcVar ViewSectionStartId>%-%<\AcVar ViewSectionEndId>%\PSCALE %<\AcVar ViewScale \f "%sn">%
 71
     4
 62
   256
 62
   257
300
ANSI31
 40
1.0
 90
        0
290
     0
290
     0
 90
        6
 40
0.0
 40
1.570796326794896
 40
0.2617993877991494
 40
1.308996938995747
 40
-0.2617993877991494
 40
1.832595714594044
  0
TABLESTYLE
  5
4EE
102
{ACAD_XDICTIONARY
360
59C
102
}
102
{ACAD_REACTORS
330
4ED
102
}
330
4ED
100
AcDbTableStyle
280
     0
  3
Standard
 70
     0
 71
     0
 40
0.06
 41
0.06
280
     0
281
     0
  7
STANDARD
140
0.18
170
     2
 62
     0
 63
     7
283
     0
 90
      512
 91
        0
  1

274
    -2
284
     1
 64
     0
275
    -2
285
     1
 65
     0
276
    -2
286
     1
 66
     0
277
    -2
287
     1
 67
     0
278
    -2
288
     1
 68
     0
279
    -2
289
     1
 69
     0
  7
STANDARD
140
0.25
170
     5
 62
     0
 63
     7
283
     0
 90
      512
 91
        0
  1

274
    -2
284
     1
 64
     0
275
    -2
285
     1
 65
     0
276
    -2
286
     1
 66
     0
277
    -2
287
     1
 67
     0
278
    -2
288
     1
 68
     0
279
    -2
289
     1
 69
     0
  7
STANDARD
140
0.18
170
     5
 62
     0
 63
     7
283
     0
 90
      512
 91
        0
  1

274
    -2
284
     1
 64
     0
275
    -2
285
     1
 65
     0
276
    -2
286
     1
 66
     0
277
    -2
287
     1
 67
     0
278
    -2
288
     1
 68
     0
279
    -2
289
     1
 69
     0
  0
VISUALSTYLE
  5
4D8
102
{ACAD_REACTORS
330
4D2
102
}
330
4D2
100
AcDbVisualStyle
  2
2dWireframe
 70
     4
177
     3
291
     0
 70
    58
 90
        0
176
     1
 90
        2
176
     1
 90
        0
176
     1
 90
        0
176
     1
 40
0.6
176
     1
 40
30.0
176
     1
 62
     7
420
 16777215
176
     1
 90
        1
176
     1
 90
        4
176
     1
 62
     7
176
     1
 62
   257
176
     1
 90
        1
176
     1
 90
        1
176
     1
 40
1.0
176
     1
 90
        0
176
     1
 62
   257
176
     1
 40
1.0
176
     1
 90
        1
176
     1
 90
        6
176
     1
 90
        2
176
     1
 62
     7
176
     1
 90
        5
176
     1
 90
        0
176
     1
 90
        0
176
     1
290
     0
176
     1
 90
        1
176
     1
 40
0.0
176
     1
 90
        0
176
     1
290
     1
176
     1
290
     1
176
     1
290
     0
176
     1
290
     0
176
     1
290
     0
176
     1
290
     0
176
     1
290
     0
176
     1
290
     0
176
     1
290
     0
176
     1
 90
       50
176
     1
 40
0.0
176
     1
 40
1.0
176
     1
 90
        0
176
     1
 62
    18
176
     1
 90
       50
176
     1
 90
        3
176
     1
 62
     5
420
      255
176
     1
290
     0
176
     1
 90
       50
176
     1
 90
       50
176
     1
 90
       50
176
     1
290
     0
176
     1
 90
       50
176
     1
 62
   256
176
     0
 40
1.0
176
     0
 90
        2
176
     1
  1
strokes_ogs.tif
176
     1
290
     0
176
     1
 40
1.0
176
     1
 40
1.0
176
     1
  0
VISUALSTYLE
  5
4D7
102
{ACAD_REACTORS
330
4D2
102
}
330
4D2
100
AcDbVisualStyle
  2
Basic
 70
     7
177
     3
291
     1
 70
    58
 90
        1
176
     1
 90
        0
176
     1
 90
        1
176
     1
 90
        0
176
     1
 40
0.6
176
     1
 40
30.0
176
     1
 62
     7
420
 16777215
176
     1
 90
        0
176
     1
 90
        4
176
     1
 62
     7
176
     1
 62
   257
176
     1
 90
        1
176
     1
 90
        1
176
     1
 40
1.0
176
     1
 90
        8
176
     1
 62
     7
176
     1
 40
1.0
176
     1
 90
        1
176
     1
 90
        6
176
     1
 90
        2
176
     1
 62
     7
176
     1
 90
        5
176
     1
 90
        0
176
     1
 90
        0
176
     1
290
     0
176
     1
 90
        1
176
     1
 40
0.0
176
     1
 90
        0
176
     1
290
     0
176
     1
290
     1
176
     1
290
     1
176
     1
290
     0
176
     1
290
     0
176
     1
290
     0
176
     1
290
     0
176
     1
290
     0
176
     1
290
     0
176
     1
 90
       50
176
     1
 40
0.0
176
     1
 40
1.0
176
     1
 90
        0
176
     1
 62
    18
176
     1
 90
       50
176
     1
 90
        3
176
     1
 62
     5
420
      255
176
     1
290
     0
176
     1
 90
       50
176
     1
 90
       50
176
     1
 90
       50
176
     1
290
     0
176
     1
 90
       50
176
     1
 62
   256
176
     0
 40
1.0
176
     0
 90
        2
176
     1
  1
strokes_ogs.tif
176
     1
290
     0
176
     1
 40
1.0
176
     1
 40
1.0
176
     1
  0
VISUALSTYLE
  5
4DE
102
{ACAD_REACTORS
330
4D2
102
}
330
4D2
100
AcDbVisualStyle
  2
Brighten
 70
    12
177
     3
291
     1
 70
    58
 90
        2
176
     1
 90
        2
176
     1
 90
        0
176
     1
 90
        0
176
     1
 40
0.6
176
     1
 40
30.0
176
     1
 62
     7
420
 16777215
176
     1
 90
        1
176
     1
 90
        4
176
     1
 62
     7
176
     1
 62
   257
176
     1
 90
        1
176
     1
 90
        1
176
     1
 40
1.0
176
     1
 90
        8
176
     1
 62
     7
176
     1
 40
1.0
176
     1
 90
        1
176
     1
 90
        6
176
     1
 90
        2
176
     1
 62
     7
176
     1
 90
        5
176
     1
 90
        0
176
     1
 90
        0
176
     1
290
     0
176
     1
 90
        1
176
     1
 40
50.0
176
     1
 90
        0
176
     1
290
     0
176
     1
290
     1
176
     1
290
     1
176
     1
290
     0
176
     1
290
     0
176
     1
290
     0
176
     1
290
     0
176
     1
290
     0
176
     1
290
     0
176
     1
 90
       50
176
     1
 40
0.0
176
     1
 40
1.0
176
     1
 90
        0
176
     1
 62
    18
176
     1
 90
       50
176
     1
 90
        3
176
     1
 62
     5
420
      255
176
     1
290
     0
176
     1
 90
       50
176
     1
 90
       50
176
     1
 90
       50
176
     1
290
     0
176
     1
 90
       50
176
     1
 62
   256
176
     0
 40
1.0
176
     0
 90
        2
176
     1
  1
strokes_ogs.tif
176
     1
290
     0
176
     1
 40
1.0
176
     1
 40
1.0
176
     1
  0
VISUALSTYLE
  5
4E2
102
{ACAD_REACTORS
330
4D2
102
}
330
4D2
100
AcDbVisualStyle
  2
ColorChange
 70
    16
177
     3
291
     1
 70
    58
 90
        2
176
     1
 90
        2
176
     1
 90
        3
176
     1
 90
        0
176
     1
 40
0.6
176
     1
 40
30.0
176
     1
 62
     8
420
  8421504
176
     1
 90
        1
176
     1
 90
        4
176
     1
 62
     7
176
     1
 62
   257
176
     1
 90
        1
176
     1
 90
        1
176
     1
 40
1.0
176
     1
 90
        8
176
     1
 62
     8
420
  8421504
176
     1
 40
1.0
176
     1
 90
        1
176
     1
 90
        6
176
     1
 90
        2
176
     1
 62
     7
176
     1
 90
        5
176
     1
 90
        0
176
     1
 90
        0
176
     1
290
     0
176
     1
 90
        1
176
     1
 40
0.0
176
     1
 90
        0
176
     1
290
     0
176
     1
290
     1
176
     1
290
     1
176
     1
290
     0
176
     1
290
     0
176
     1
290
     0
176
     1
290
     0
176
     1
290
     0
176
     1
290
     0
176
     1
 90
       50
176
     1
 40
0.0
176
     1
 40
1.0
176
     1
 90
        0
176
     1
 62
    18
176
     1
 90
       50
176
     1
 90
        3
176
     1
 62
     5
420
      255
176
     1
290
     0
176
     1
 90
       50
176
     1
 90
       50
176
     1
 90
       50
176
     1
290
     0
176
     1
 90
       50
176
     1
 62
   256
176
     0
 40
1.0
176
     0
 90
        2
176
     1
  1
strokes_ogs.tif
176
     1
290
     0
176
     1
 40
1.0
176
     1
 40
1.0
176
     1
  0
VISUALSTYLE
  5
4DB
102
{ACAD_REACTORS
330
4D2
102
}
330
4D2
100
AcDbVisualStyle
  2
Conceptual
 70
     9
177
     3
291
     0
 70
    58
 90
        3
176
     1
 90
        2
176
     1
 90
        0
176
     1
 90
        0
176
     1
 40
0.6
176
     1
 40
30.0
176
     1
 62
     7
420
 16777215
176
     1
 90
        2
176
     1
 90
        2
176
     1
 62
     7
176
     1
 62
   257
176
     1
 90
        1
176
     1
 90
        1
176
     1
 40
179.0
176
     1
 90
        8
176
     1
 62
     7
176
     1
 40
1.0
176
     1
 90
        1
176
     1
 90
        6
176
     1
 90
        2
176
     1
 62
     7
176
     1
 90
        3
176
     1
 90
        0
176
     1
 90
        0
176
     1
290
     0
176
     1
 90
        1
176
     1
 40
0.0
176
     1
 90
        0
176
     1
290
     0
176
     1
290
     1
176
     1
290
     1
176
     1
290
     0
176
     1
290
     0
176
     1
290
     0
176
     1
290
     0
176
     1
290
     0
176
     1
290
     0
176
     1
 90
       50
176
     1
 40
0.0
176
     1
 40
1.0
176
     1
 90
        0
176
     1
 62
    18
176
     1
 90
       50
176
     1
 90
        3
176
     1
 62
     5
420
      255
176
     1
290
     0
176
     1
 90
       50
176
     1
 90
       50
176
     1
 90
       50
176
     1
290
     0
176
     1
 90
       50
176
     1
 62
   256
176
     0
 40
1.0
176
     0
 90
        2
176
     1
  1
strokes_ogs.tif
176
     1
290
     0
176
     1
 40
1.0
176
     1
 40
1.0
176
     1
  0
VISUALSTYLE
  5
4DD
102
{ACAD_REACTORS
330
4D2
102
}
330
4D2
100
AcDbVisualStyle
  2
Dim
 70
    11
177
     3
291
     1
 70
    58
 90
        2
176
     1
 90
        2
176
     1
 90
        0
176
     1
 90
        0
176
     1
 40
0.6
176
     1
 40
30.0
176
     1
 62
     7
420
 16777215
176
     1
 90
        1
176
     1
 90
        4
176
     1
 62
     7
176
     1
 62
   257
176
     1
 90
        1
176
     1
 90
        1
176
     1
 40
1.0
176
     1
 90
        8
176
     1
 62
     7
176
     1
 40
1.0
176
     1
 90
        1
176
     1
 90
        6
176
     1
 90
        2
176
     1
 62
     7
176
     1
 90
        5
176
     1
 90
        0
176
     1
 90
        0
176
     1
290
     0
176
     1
 90
        1
176
     1
 40
-50.0
176
     1
 90
        0
176
     1
290
     0
176
     1
290
     1
176
     1
290
     1
176
     1
290
     0
176
     1
290
     0
176
     1
290
     0
176
     1
290
     0
176
     1
290
     0
176
     1
290
     0
176
     1
 90
       50
176
     1
 40
0.0
176
     1
 40
1.0
176
     1
 90
        0
176
     1
 62
    18
176
     1
 90
       50
176
     1
 90
        3
176
     1
 62
     5
420
      255
176
     1
290
     0
176
     1
 90
       50
176
     1
 90
       50
176
     1
 90
       50
176
     1
290
     0
176
     1
 90
       50
176
     1
 62
   256
176
     0
 40
1.0
176
     0
 90
        2
176
     1
  1
strokes_ogs.tif
176
     1
290
     0
176
     1
 40
1.0
176
     1
 40
1.0
176
     1
  0
VISUALSTYLE
  5
4EA
102
{ACAD_REACTORS
330
4D2
102
}
330
4D2
100
AcDbVisualStyle
  2
EdgeColorOff
 70
    22
177
     3
291
     1
 70
    58
 90
        2
176
     0
 90
        2
176
     0
 90
        0
176
     0
 90
        0
176
     0
 40
0.6
176
     0
 40
30.0
176
     0
 62
     7
420
 16777215
176
     0
 90
        1
176
     0
 90
        4
176
     0
 62
     7
176
     0
 62
   257
176
     0
 90
        1
176
     0
 90
        1
176
     0
 40
1.0
176
     0
 90
        8
176
     2
 62
     7
176
     0
 40
1.0
176
     0
 90
        1
176
     0
 90
        6
176
     0
 90
        2
176
     0
 62
     7
176
     0
 90
        5
176
     0
 90
        0
176
     0
 90
        0
176
     0
290
     0
176
     0
 90
        1
176
     0
 40
0.0
176
     0
 90
        0
176
     0
290
     0
176
     1
290
     1
176
     1
290
     1
176
     1
290
     0
176
     1
290
     0
176
     1
290
     0
176
     1
290
     0
176
     1
290
     0
176
     1
290
     0
176
     1
 90
       50
176
     0
 40
0.0
176
     0
 40
1.0
176
     0
 90
        0
176
     0
 62
    18
176
     0
 90
       50
176
     0
 90
        3
176
     0
 62
     5
420
      255
176
     0
290
     0
176
     1
 90
       50
176
     0
 90
       50
176
     0
 90
       50
176
     0
290
     0
176
     1
 90
       50
176
     0
 62
   256
176
     0
 40
1.0
176
     0
 90
        2
176
     0
  1
strokes_ogs.tif
176
     0
290
     0
176
     1
 40
1.0
176
     0
 40
1.0
176
     0
  0
VISUALSTYLE
  5
4E1
102
{ACAD_REACTORS
330
4D2
102
}
330
4D2
100
AcDbVisualStyle
  2
Facepattern
 70
    15
177
     3
291
     1
 70
    58
 90
        2
176
     1
 90
        2
176
     1
 90
        0
176
     1
 90
        0
176
     1
 40
0.6
176
     1
 40
30.0
176
     1
 62
     7
420
 16777215
176
     1
 90
        1
176
     1
 90
        4
176
     1
 62
     7
176
     1
 62
   257
176
     1
 90
        1
176
     1
 90
        1
176
     1
 40
1.0
176
     1
 90
        8
176
     1
 62
     7
176
     1
 40
1.0
176
     1
 90
        1
176
     1
 90
        6
176
     1
 90
        2
176
     1
 62
     7
176
     1
 90
        5
176
     1
 90
        0
176
     1
 90
        0
176
     1
290
     0
176
     1
 90
        1
176
     1
 40
0.0
176
     1
 90
        0
176
     1
290
     0
176
     1
290
     1
176
     1
290
     1
176
     1
290
     0
176
     1
290
     0
176
     1
290
     0
176
     1
290
     0
176
     1
290
     0
176
     1
290
     0
176
     1
 90
       50
176
     1
 40
0.0
176
     1
 40
1.0
176
     1
 90
        0
176
     1
 62
    18
176
     1
 90
       50
176
     1
 90
        3
176
     1
 62
     5
420
      255
176
     1
290
     0
176
     1
 90
       50
176
     1
 90
       50
176
     1
 90
       50
176
     1
290
     0
176
     1
 90
       50
176
     1
 62
   256
176
     0
 40
1.0
176
     0
 90
        2
176
     1
  1
strokes_ogs.tif
176
     1
290
     0
176
     1
 40
1.0
176
     1
 40
1.0
176
     1
  0
VISUALSTYLE
  5
4D3
102
{ACAD_REACTORS
330
4D2
102
}
330
4D2
100
AcDbVisualStyle
  2
Flat
 70
     0
177
     3
291
     1
 70
    58
 90
        2
176
     1
 90
        1
176
     1
 90
        1
176
     1
 90
        2
176
     1
 40
0.6
176
     1
 40
30.0
176
     1
 62
     7
420
 16777215
176
     1
 90
        0
176
     1
 90
        0
176
     1
 62
     7
176
     1
 62
   257
176
     1
 90
        1
176
     1
 90
        1
176
     1
 40
1.0
176
     1
 90
        8
176
     1
 62
     7
176
     1
 40
1.0
176
     1
 90
        1
176
     1
 90
        6
176
     1
 90
        2
176
     1
 62
     7
176
     1
 90
        5
176
     1
 90
        0
176
     1
 90
        0
176
     1
290
     0
176
     1
 90
       13
176
     1
 40
0.0
176
     1
 90
        0
176
     1
290
     0
176
     1
290
     1
176
     1
290
     1
176
     1
290
     0
176
     1
290
     0
176
     1
290
     0
176
     1
290
     0
176
     1
290
     0
176
     1
290
     0
176
     1
 90
       50
176
     1
 40
0.0
176
     1
 40
1.0
176
     1
 90
        0
176
     1
 62
    18
176
     1
 90
       50
176
     1
 90
        3
176
     1
 62
     5
420
      255
176
     1
290
     0
176
     1
 90
       50
176
     1
 90
       50
176
     1
 90
       50
176
     1
290
     0
176
     1
 90
       50
176
     1
 62
   256
176
     0
 40
1.0
176
     0
 90
        2
176
     1
  1
strokes_ogs.tif
176
     1
290
     0
176
     1
 40
1.0
176
     1
 40
1.0
176
     1
  0
VISUALSTYLE
  5
4D4
102
{ACAD_REACTORS
330
4D2
102
}
330
4D2
100
AcDbVisualStyle
  2
FlatWithEdges
 70
     1
177
     3
291
     1
 70
    58
 90
        2
176
     1
 90
        1
176
     1
 90
        1
176
     1
 90
        2
176
     1
 40
0.6
176
     1
 40
30.0
176
     1
 62
     7
420
 16777215
176
     1
 90
        1
176
     1
 90
        0
176
     1
 62
     7
176
     1
 62
   257
176
     1
 90
        1
176
     1
 90
        1
176
     1
 40
1.0
176
     1
 90
        0
176
     1
 62
   257
176
     1
 40
1.0
176
     1
 90
        1
176
     1
 90
        6
176
     1
 90
        2
176
     1
 62
     7
176
     1
 90
        5
176
     1
 90
        0
176
     1
 90
        0
176
     1
290
     0
176
     1
 90
       13
176
     1
 40
0.0
176
     1
 90
        0
176
     1
290
     0
176
     1
290
     1
176
     1
290
     1
176
     1
290
     0
176
     1
290
     0
176
     1
290
     0
176
     1
290
     0
176
     1
290
     0
176
     1
290
     0
176
     1
 90
       50
176
     1
 40
0.0
176
     1
 40
1.0
176
     1
 90
        0
176
     1
 62
    18
176
     1
 90
       50
176
     1
 90
        3
176
     1
 62
     5
420
      255
176
     1
290
     0
176
     1
 90
       50
176
     1
 90
       50
176
     1
 90
       50
176
     1
290
     0
176
     1
 90
       50
176
     1
 62
   256
176
     0
 40
1.0
176
     0
 90
        2
176
     1
  1
strokes_ogs.tif
176
     1
290
     0
176
     1
 40
1.0
176
     1
 40
1.0
176
     1
  0
VISUALSTYLE
  5
4D5
102
{ACAD_REACTORS
330
4D2
102
}
330
4D2
100
AcDbVisualStyle
  2
Gouraud
 70
     2
177
     3
291
     1
 70
    58
 90
        2
176
     1
 90
        2
176
     1
 90
        1
176
     1
 90
        2
176
     1
 40
0.6
176
     1
 40
30.0
176
     1
 62
     7
420
 16777215
176
     1
 90
        0
176
     1
 90
        0
176
     1
 62
     7
176
     1
 62
   257
176
     1
 90
        1
176
     1
 90
        1
176
     1
 40
1.0
176
     1
 90
        0
176
     1
 62
     7
176
     1
 40
1.0
176
     1
 90
        1
176
     1
 90
        6
176
     1
 90
        2
176
     1
 62
     7
176
     1
 90
        5
176
     1
 90
        0
176
     1
 90
        0
176
     1
290
     0
176
     1
 90
       13
176
     1
 40
0.0
176
     1
 90
        0
176
     1
290
     0
176
     1
290
     1
176
     1
290
     1
176
     1
290
     0
176
     1
290
     0
176
     1
290
     0
176
     1
290
     0
176
     1
290
     0
176
     1
290
     0
176
     1
 90
       50
176
     1
 40
0.0
176
     1
 40
1.0
176
     1
 90
        0
176
     1
 62
    18
176
     1
 90
       50
176
     1
 90
        3
176
     1
 62
     5
420
      255
176
     1
290
     0
176
     1
 90
       50
176
     1
 90
       50
176
     1
 90
       50
176
     1
290
     0
176
     1
 90
       50
176
     1
 62
   256
176
     0
 40
1.0
176
     0
 90
        2
176
     1
  1
strokes_ogs.tif
176
     1
290
     0
176
     1
 40
1.0
176
     1
 40
1.0
176
     1
  0
VISUALSTYLE
  5
4D6
102
{ACAD_REACTORS
330
4D2
102
}
330
4D2
100
AcDbVisualStyle
  2
GouraudWithEdges
 70
     3
177
     3
291
     1
 70
    58
 90
        2
176
     1
 90
        2
176
     1
 90
        1
176
     1
 90
        2
176
     1
 40
0.6
176
     1
 40
30.0
176
     1
 62
     7
420
 16777215
176
     1
 90
        1
176
     1
 90
        0
176
     1
 62
     7
176
     1
 62
   257
176
     1
 90
        1
176
     1
 90
        1
176
     1
 40
1.0
176
     1
 90
        0
176
     1
 62
   257
176
     1
 40
1.0
176
     1
 90
        1
176
     1
 90
        6
176
     1
 90
        2
176
     1
 62
     7
176
     1
 90
        5
176
     1
 90
        0
176
     1
 90
        0
176
     1
290
     0
176
     1
 90
       13
176
     1
 40
0.0
176
     1
 90
        0
176
     1
290
     0
176
     1
290
     1
176
     1
290
     1
176
     1
290
     0
176
     1
290
     0
176
     1
290
     0
176
     1
290
     0
176
     1
290
     0
176
     1
290
     0
176
     1
 90
       50
176
     1
 40
0.0
176
     1
 40
1.0
176
     1
 90
        0
176
     1
 62
    18
176
     1
 90
       50
176
     1
 90
        3
176
     1
 62
     5
420
      255
176
     1
290
     0
176
     1
 90
       50
176
     1
 90
       50
176
     1
 90
       50
176
     1
290
     0
176
     1
 90
       50
176
     1
 62
   256
176
     0
 40
1.0
176
     0
 90
        2
176
     1
  1
strokes_ogs.tif
176
     1
290
     0
176
     1
 40
1.0
176
     1
 40
1.0
176
     1
  0
VISUALSTYLE
  5
4DA
102
{ACAD_REACTORS
330
4D2
102
}
330
4D2
100
AcDbVisualStyle
  2
Hidden
 70
     6
177
     3
291
     0
 70
    58
 90
        1
176
     1
 90
        2
176
     1
 90
        2
176
     1
 90
        0
176
     1
 40
0.6
176
     1
 40
30.0
176
     1
 62
     7
420
 16777215
176
     1
 90
        2
176
     1
 90
        2
176
     1
 62
     7
176
     1
 62
   257
176
     1
 90
        2
176
     1
 90
        1
176
     1
 40
40.0
176
     1
 90
        0
176
     1
 62
   257
176
     1
 40
1.0
176
     1
 90
        1
176
     1
 90
        6
176
     1
 90
        2
176
     1
 62
     7
176
     1
 90
        3
176
     1
 90
        0
176
     1
 90
        0
176
     1
290
     0
176
     1
 90
        1
176
     1
 40
0.0
176
     1
 90
        0
176
     1
290
     0
176
     1
290
     1
176
     1
290
     1
176
     1
290
     0
176
     1
290
     0
176
     1
290
     0
176
     1
290
     0
176
     1
290
     0
176
     1
290
     0
176
     1
 90
       50
176
     1
 40
0.0
176
     1
 40
1.0
176
     1
 90
        0
176
     1
 62
    18
176
     1
 90
       50
176
     1
 90
        3
176
     1
 62
     5
420
      255
176
     1
290
     0
176
     1
 90
       50
176
     1
 90
       50
176
     1
 90
       50
176
     1
290
     0
176
     1
 90
       50
176
     1
 62
   256
176
     0
 40
1.0
176
     0
 90
        2
176
     1
  1
strokes_ogs.tif
176
     1
290
     0
176
     1
 40
1.0
176
     1
 40
1.0
176
     1
  0
VISUALSTYLE
  5
4E8
102
{ACAD_REACTORS
330
4D2
102
}
330
4D2
100
AcDbVisualStyle
  2
JitterOff
 70
    20
177
     3
291
     1
 70
    58
 90
        2
176
     0
 90
        2
176
     0
 90
        0
176
     0
 90
        0
176
     0
 40
0.6
176
     0
 40
30.0
176
     0
 62
     7
420
 16777215
176
     0
 90
        1
176
     0
 90
        4
176
     0
 62
     7
176
     0
 62
   257
176
     0
 90
        1
176
     0
 90
        1
176
     0
 40
1.0
176
     0
 90
       10
176
     2
 62
     7
176
     0
 40
1.0
176
     0
 90
        1
176
     0
 90
        6
176
     0
 90
        2
176
     0
 62
     7
176
     0
 90
        5
176
     0
 90
        0
176
     0
 90
        0
176
     0
290
     0
176
     0
 90
        1
176
     0
 40
0.0
176
     0
 90
        0
176
     0
290
     0
176
     1
290
     1
176
     1
290
     1
176
     1
290
     0
176
     1
290
     0
176
     1
290
     0
176
     1
290
     0
176
     1
290
     0
176
     1
290
     0
176
     1
 90
       50
176
     0
 40
0.0
176
     0
 40
1.0
176
     0
 90
        0
176
     0
 62
    18
176
     0
 90
       50
176
     0
 90
        3
176
     0
 62
     5
420
      255
176
     0
290
     0
176
     1
 90
       50
176
     0
 90
       50
176
     0
 90
       50
176
     0
290
     0
176
     1
 90
       50
176
     0
 62
   256
176
     0
 40
1.0
176
     0
 90
        2
176
     0
  1
strokes_ogs.tif
176
     0
290
     0
176
     1
 40
1.0
176
     0
 40
1.0
176
     0
  0
VISUALSTYLE
  5
4E0
102
{ACAD_REACTORS
330
4D2
102
}
330
4D2
100
AcDbVisualStyle
  2
Linepattern
 70
    14
177
     3
291
     1
 70
    58
 90
        2
176
     1
 90
        2
176
     1
 90
        0
176
     1
 90
        0
176
     1
 40
0.6
176
     1
 40
30.0
176
     1
 62
     7
420
 16777215
176
     1
 90
        1
176
     1
 90
        4
176
     1
 62
     7
176
     1
 62
   257
176
     1
 90
        7
176
     1
 90
        7
176
     1
 40
1.0
176
     1
 90
        8
176
     1
 62
     7
176
     1
 40
1.0
176
     1
 90
        1
176
     1
 90
        6
176
     1
 90
        2
176
     1
 62
     7
176
     1
 90
        5
176
     1
 90
        0
176
     1
 90
        0
176
     1
290
     0
176
     1
 90
        1
176
     1
 40
0.0
176
     1
 90
        0
176
     1
290
     0
176
     1
290
     1
176
     1
290
     1
176
     1
290
     0
176
     1
290
     0
176
     1
290
     0
176
     1
290
     0
176
     1
290
     0
176
     1
290
     0
176
     1
 90
       50
176
     1
 40
0.0
176
     1
 40
1.0
176
     1
 90
        0
176
     1
 62
    18
176
     1
 90
       50
176
     1
 90
        3
176
     1
 62
     5
420
      255
176
     1
290
     0
176
     1
 90
       50
176
     1
 90
       50
176
     1
 90
       50
176
     1
290
     0
176
     1
 90
       50
176
     1
 62
   256
176
     0
 40
1.0
176
     0
 90
        2
176
     1
  1
strokes_ogs.tif
176
     1
290
     0
176
     1
 40
1.0
176
     1
 40
1.0
176
     1
  0
VISUALSTYLE
  5
4E9
102
{ACAD_REACTORS
330
4D2
102
}
330
4D2
100
AcDbVisualStyle
  2
OverhangOff
 70
    21
177
     3
291
     1
 70
    58
 90
        2
176
     0
 90
        2
176
     0
 90
        0
176
     0
 90
        0
176
     0
 40
0.6
176
     0
 40
30.0
176
     0
 62
     7
420
 16777215
176
     0
 90
        1
176
     0
 90
        4
176
     0
 62
     7
176
     0
 62
   257
176
     0
 90
        1
176
     0
 90
        1
176
     0
 40
1.0
176
     0
 90
        9
176
     2
 62
     7
176
     0
 40
1.0
176
     0
 90
        1
176
     0
 90
        6
176
     0
 90
        2
176
     0
 62
     7
176
     0
 90
        5
176
     0
 90
        0
176
     0
 90
        0
176
     0
290
     0
176
     0
 90
        1
176
     0
 40
0.0
176
     0
 90
        0
176
     0
290
     0
176
     1
290
     1
176
     1
290
     1
176
     1
290
     0
176
     1
290
     0
176
     1
290
     0
176
     1
290
     0
176
     1
290
     0
176
     1
290
     0
176
     1
 90
       50
176
     0
 40
0.0
176
     0
 40
1.0
176
     0
 90
        0
176
     0
 62
    18
176
     0
 90
       50
176
     0
 90
        3
176
     0
 62
     5
420
      255
176
     0
290
     0
176
     1
 90
       50
176
     0
 90
       50
176
     0
 90
       50
176
     0
290
     0
176
     1
 90
       50
176
     0
 62
   256
176
     0
 40
1.0
176
     0
 90
        2
176
     0
  1
strokes_ogs.tif
176
     0
290
     0
176
     1
 40
1.0
176
     0
 40
1.0
176
     0
  0
VISUALSTYLE
  5
4DC
102
{ACAD_REACTORS
330
4D2
102
}
330
4D2
100
AcDbVisualStyle
  2
Realistic
 70
     8
177
     3
291
     0
 70
    58
 90
        2
176
     1
 90
        3
176
     1
 90
        0
176
     1
 90
        2
176
     1
 40
0.6
176
     1
 40
30.0
176
     1
 62
     7
420
 16777215
176
     1
 90
        0
176
     1
 90
        0
176
     1
 62
     7
176
     1
 62
   257
176
     1
 90
        1
176
     1
 90
        1
176
     1
 40
1.0
176
     1
 90
        8
176
     1
 62
   257
176
     1
 40
1.0
176
     1
 90
        1
176
     1
 90
        6
176
     1
 90
        2
176
     1
 62
     7
176
     1
 90
        3
176
     1
 90
        0
176
     1
 90
        0
176
     1
290
     0
176
     1
 90
       13
176
     1
 40
0.0
176
     1
 90
        0
176
     1
290
     0
176
     1
290
     1
176
     1
290
     1
176
     1
290
     0
176
     1
290
     0
176
     1
290
     0
176
     1
290
     0
176
     1
290
     0
176
     1
290
     0
176
     1
 90
       50
176
     1
 40
0.0
176
     1
 40
1.0
176
     1
 90
        0
176
     1
 62
    18
176
     1
 90
       50
176
     1
 90
        3
176
     1
 62
     5
420
      255
176
     1
290
     0
176
     1
 90
       50
176
     1
 90
       50
176
     1
 90
       50
176
     1
290
     0
176
     1
 90
       50
176
     1
 62
   256
176
     0
 40
1.0
176
     0
 90
        2
176
     1
  1
strokes_ogs.tif
176
     1
290
     0
176
     1
 40
1.0
176
     1
 40
1.0
176
     1
  0
VISUALSTYLE
  5
4E7
102
{ACAD_REACTORS
330
4D2
102
}
330
4D2
100
AcDbVisualStyle
  2
Shaded
 70
    27
177
     3
291
     0
 70
    58
 90
        2
176
     1
 90
        2
176
     1
 90
        1
176
     1
 90
        2
176
     1
 40
0.6
176
     1
 40
30.0
176
     1
 62
     7
420
 16777215
176
     1
 90
        0
176
     1
 90
        4
176
     1
 62
     7
176
     1
 62
   257
176
     1
 90
        1
176
     1
 90
        1
176
     1
 40
1.0
176
     1
 90
        8
176
     1
 62
   257
176
     1
 40
1.0
176
     1
 90
        1
176
     1
 90
        6
176
     1
 90
        2
176
     1
 62
     8
420
  7895160
176
     1
 90
        3
176
     1
 90
        0
176
     1
 90
        0
176
     1
290
     0
176
     1
 90
        5
176
     1
 40
0.0
176
     1
 90
        0
176
     1
290
     0
176
     1
290
     1
176
     1
290
     1
176
     1
290
     0
176
     1
290
     0
176
     1
290
     0
176
     1
290
     0
176
     1
290
     0
176
     1
290
     0
176
     1
 90
       50
176
     1
 40
0.0
176
     1
 40
1.0
176
     1
 90
        0
176
     1
 62
    18
176
     1
 90
       50
176
     1
 90
        3
176
     1
 62
     5
420
      255
176
     1
290
     0
176
     1
 90
       50
176
     1
 90
       50
176
     1
 90
       50
176
     1
290
     0
176
     1
 90
       50
176
     1
 62
   256
176
     0
 40
1.0
176
     0
 90
        2
176
     1
  1
strokes_ogs.tif
176
     1
290
     0
176
     1
 40
1.0
176
     1
 40
1.0
176
     1
  0
VISUALSTYLE
  5
4E6
102
{ACAD_REACTORS
330
4D2
102
}
330
4D2
100
AcDbVisualStyle
  2
Shaded with edges
 70
    26
177
     3
291
     0
 70
    58
 90
        2
176
     1
 90
        2
176
     1
 90
        1
176
     1
 90
        2
176
     1
 40
0.6
176
     1
 40
30.0
176
     1
 62
     7
420
 16777215
176
     1
 90
        1
176
     1
 90
        2
176
     1
 62
     7
176
     1
 62
   257
176
     1
 90
        2
176
     1
 90
        1
176
     1
 40
1.0
176
     1
 90
        8
176
     1
 62
   257
176
     1
 40
1.0
176
     1
 90
        1
176
     1
 90
        6
176
     1
 90
        2
176
     1
 62
     7
176
     1
 90
        3
176
     1
 90
        0
176
     1
 90
        0
176
     1
290
     0
176
     1
 90
        5
176
     1
 40
0.0
176
     1
 90
        0
176
     1
290
     0
176
     1
290
     1
176
     1
290
     1
176
     1
290
     0
176
     1
290
     0
176
     1
290
     0
176
     1
290
     0
176
     1
290
     0
176
     1
290
     0
176
     1
 90
       50
176
     1
 40
0.0
176
     1
 40
1.0
176
     1
 90
        0
176
     1
 62
    18
176
     1
 90
       50
176
     1
 90
        3
176
     1
 62
     5
420
      255
176
     1
290
     0
176
     1
 90
       50
176
     1
 90
       50
176
     1
 90
       50
176
     1
290
     0
176
     1
 90
       50
176
     1
 62
   256
176
     0
 40
1.0
176
     0
 90
        2
176
     1
  1
strokes_ogs.tif
176
     1
290
     0
176
     1
 40
1.0
176
     1
 40
1.0
176
     1
  0
VISUALSTYLE
  5
4E3
102
{ACAD_REACTORS
330
4D2
102
}
330
4D2
100
AcDbVisualStyle
  2
Shades of Gray
 70
    23
177
     3
291
     0
 70
    58
 90
        2
176
     1
 90
        2
176
     1
 90
        3
176
     1
 90
        0
176
     1
 40
0.6
176
     1
 40
30.0
176
     1
 62
     7
420
 16777215
176
     1
 90
        2
176
     1
 90
        2
176
     1
 62
     7
176
     1
 62
     7
176
     1
 90
        1
176
     1
 90
        1
176
     1
 40
40.0
176
     1
 90
        8
176
     1
 62
     7
176
     1
 40
1.0
176
     1
 90
        1
176
     1
 90
        6
176
     1
 90
        2
176
     1
 62
     7
176
     1
 90
        3
176
     1
 90
        0
176
     1
 90
        0
176
     1
290
     0
176
     1
 90
        1
176
     1
 40
0.0
176
     1
 90
        0
176
     1
290
     0
176
     1
290
     1
176
     1
290
     1
176
     1
290
     0
176
     1
290
     0
176
     1
290
     0
176
     1
290
     0
176
     1
290
     0
176
     1
290
     0
176
     1
 90
       50
176
     1
 40
0.0
176
     1
 40
1.0
176
     1
 90
        0
176
     1
 62
    18
176
     1
 90
       50
176
     1
 90
        3
176
     1
 62
     5
420
      255
176
     1
290
     0
176
     1
 90
       50
176
     1
 90
       50
176
     1
 90
       50
176
     1
290
     0
176
     1
 90
       50
176
     1
 62
   256
176
     0
 40
1.0
176
     0
 90
        2
176
     1
  1
strokes_ogs.tif
176
     1
290
     0
176
     1
 40
1.0
176
     1
 40
1.0
176
     1
  0
VISUALSTYLE
  5
4E4
102
{ACAD_REACTORS
330
4D2
102
}
330
4D2
100
AcDbVisualStyle
  2
Sketchy
 70
    24
177
     3
291
     0
 70
    58
 90
        1
176
     1
 90
        2
176
     1
 90
        2
176
     1
 90
        0
176
     1
 40
0.6
176
     1
 40
30.0
176
     1
 62
     7
420
 16777215
176
     1
 90
        2
176
     1
 90
        2
176
     1
 62
     7
176
     1
 62
     7
176
     1
 90
        1
176
     1
 90
        1
176
     1
 40
40.0
176
     1
 90
       11
176
     1
 62
     7
176
     1
 40
1.0
176
     1
 90
        1
176
     1
 90
        6
176
     1
 90
        2
176
     1
 62
     7
176
     1
 90
        6
176
     1
 90
        0
176
     1
 90
        0
176
     1
290
     0
176
     1
 90
        1
176
     1
 40
0.0
176
     1
 90
        0
176
     1
290
     0
176
     1
290
     1
176
     1
290
     1
176
     1
290
     0
176
     1
290
     0
176
     1
290
     0
176
     1
290
     0
176
     1
290
     0
176
     1
290
     0
176
     1
 90
       50
176
     1
 40
0.0
176
     1
 40
1.0
176
     1
 90
        0
176
     1
 62
    18
176
     1
 90
       50
176
     1
 90
        3
176
     1
 62
     5
420
      255
176
     1
290
     0
176
     1
 90
       50
176
     1
 90
       50
176
     1
 90
       50
176
     1
290
     0
176
     1
 90
       50
176
     1
 62
   256
176
     0
 40
1.0
176
     0
 90
        2
176
     1
  1
strokes_ogs.tif
176
     1
290
     0
176
     1
 40
1.0
176
     1
 40
1.0
176
     1
  0
VISUALSTYLE
  5
4DF
102
{ACAD_REACTORS
330
4D2
102
}
330
4D2
100
AcDbVisualStyle
  2
Thicken
 70
    13
177
     3
291
     1
 70
    58
 90
        2
176
     1
 90
        2
176
     1
 90
        0
176
     1
 90
        0
176
     1
 40
0.6
176
     1
 40
30.0
176
     1
 62
     7
420
 16777215
176
     1
 90
        1
176
     1
 90
        4
176
     1
 62
     7
176
     1
 62
   257
176
     1
 90
        1
176
     1
 90
        1
176
     1
 40
1.0
176
     1
 90
       12
176
     1
 62
     7
176
     1
 40
1.0
176
     1
 90
        1
176
     1
 90
        6
176
     1
 90
        2
176
     1
 62
     7
176
     1
 90
        5
176
     1
 90
        0
176
     1
 90
        0
176
     1
290
     0
176
     1
 90
        1
176
     1
 40
0.0
176
     1
 90
        0
176
     1
290
     0
176
     1
290
     1
176
     1
290
     1
176
     1
290
     0
176
     1
290
     0
176
     1
290
     0
176
     1
290
     0
176
     1
290
     0
176
     1
290
     0
176
     1
 90
       50
176
     1
 40
0.0
176
     1
 40
1.0
176
     1
 90
        0
176
     1
 62
    18
176
     1
 90
       50
176
     1
 90
        3
176
     1
 62
     5
420
      255
176
     1
290
     0
176
     1
 90
       50
176
     1
 90
       50
176
     1
 90
       50
176
     1
290
     0
176
     1
 90
       50
176
     1
 62
   256
176
     0
 40
1.0
176
     0
 90
        2
176
     1
  1
strokes_ogs.tif
176
     1
290
     0
176
     1
 40
1.0
176
     1
 40
1.0
176
     1
  0
VISUALSTYLE
  5
4D9
102
{ACAD_REACTORS
330
4D2
102
}
330
4D2
100
AcDbVisualStyle
  2
Wireframe
 70
     5
177
     3
291
     0
 70
    58
 90
        0
176
     1
 90
        2
176
     1
 90
        0
176
     1
 90
        0
176
     1
 40
0.6
176
     1
 40
30.0
176
     1
 62
     7
420
 16777215
176
     1
 90
        1
176
     1
 90
        4
176
     1
 62
     7
176
     1
 62
   257
176
     1
 90
        1
176
     1
 90
        1
176
     1
 40
1.0
176
     1
 90
        0
176
     1
 62
   257
176
     1
 40
1.0
176
     1
 90
        1
176
     1
 90
        6
176
     1
 90
        2
176
     1
 62
     7
176
     1
 90
        3
176
     1
 90
        0
176
     1
 90
        0
176
     1
290
     0
176
     1
 90
        1
176
     1
 40
0.0
176
     1
 90
        0
176
     1
290
     0
176
     1
290
     1
176
     1
290
     1
176
     1
290
     0
176
     1
290
     0
176
     1
290
     0
176
     1
290
     0
176
     1
290
     0
176
     1
290
     0
176
     1
 90
       50
176
     1
 40
0.0
176
     1
 40
1.0
176
     1
 90
        0
176
     1
 62
    18
176
     1
 90
       50
176
     1
 90
        3
176
     1
 62
     5
420
      255
176
     1
290
     0
176
     1
 90
       50
176
     1
 90
       50
176
     1
 90
       50
176
     1
290
     0
176
     1
 90
       50
176
     1
 62
   256
176
     0
 40
1.0
176
     0
 90
        2
176
     1
  1
strokes_ogs.tif
176
     1
290
     0
176
     1
 40
1.0
176
     1
 40
1.0
176
     1
  0
VISUALSTYLE
  5
4E5
102
{ACAD_REACTORS
330
4D2
102
}
330
4D2
100
AcDbVisualStyle
  2
X-Ray
 70
    25
177
     3
291
     0
 70
    58
 90
        2
176
     1
 90
        2
176
     1
 90
        1
176
     1
 90
        1
176
     1
 40
0.5
176
     1
 40
30.0
176
     1
 62
     7
420
 16777215
176
     1
 90
        1
176
     1
 90
        0
176
     1
 62
     7
176
     1
 62
   257
176
     1
 90
        1
176
     1
 90
        1
176
     1
 40
1.0
176
     1
 90
        8
176
     1
 62
     7
176
     1
 40
1.0
176
     1
 90
        1
176
     1
 90
        6
176
     1
 90
        2
176
     1
 62
     7
176
     1
 90
        3
176
     1
 90
        0
176
     1
 90
        0
176
     1
290
     0
176
     1
 90
       13
176
     1
 40
0.0
176
     1
 90
        0
176
     1
290
     0
176
     1
290
     1
176
     1
290
     1
176
     1
290
     0
176
     1
290
     0
176
     1
290
     0
176
     1
290
     0
176
     1
290
     0
176
     1
290
     0
176
     1
 90
       50
176
     1
 40
0.0
176
     1
 40
1.0
176
     1
 90
        0
176
     1
 62
    18
176
     1
 90
       50
176
     1
 90
        3
176
     1
 62
     5
420
      255
176
     1
290
     0
176
     1
 90
       50
176
     1
 90
       50
176
     1
 90
       50
176
     1
290
     0
176
     1
 90
       50
176
     1
 62
   256
176
     0
 40
1.0
176
     0
 90
        2
176
     1
  1
strokes_ogs.tif
176
     1
290
     0
176
     1
 40
1.0
176
     1
 40
1.0
176
     1
  0
DICTIONARYVAR
  5
559
102
{ACAD_REACTORS
330
553
102
}
330
553
100
DictionaryVariables
280
     0
  1
1:1
  0
DICTIONARYVAR
  5
555
102
{ACAD_REACTORS
330
553
102
}
330
553
100
DictionaryVariables
280
     0
  1
STANDARD
  0
DICTIONARYVAR
  5
554
102
{ACAD_REACTORS
330
553
102
}
330
553
100
DictionaryVariables
280
     0
  1
STANDARD
  0
DICTIONARYVAR
  5
556
102
{ACAD_REACTORS
330
553
102
}
330
553
100
DictionaryVariables
280
     0
  1
Imperial24
  0
DICTIONARYVAR
  5
557
102
{ACAD_REACTORS
330
553
102
}
330
553
100
DictionaryVariables
280
     0
  1
Imperial24
  0
DICTIONARYVAR
  5
55B
102
{ACAD_REACTORS
330
553
102
}
330
553
100
DictionaryVariables
280
     0
  1
1
  0
DICTIONARYVAR
  5
55C
102
{ACAD_REACTORS
330
553
102
}
330
553
100
DictionaryVariables
280
     0
  1
15
  0
DICTIONARYVAR
  5
55A
102
{ACAD_REACTORS
330
553
102
}
330
553
100
DictionaryVariables
280
     0
  1
0
  0
DICTIONARYVAR
  5
558
102
{ACAD_REACTORS
330
553
102
}
330
553
100
DictionaryVariables
280
     0
  1
0
  0
XRECORD
  5
622
102
{ACAD_XDICTIONARY
360
623
102
}
102
{ACAD_REACTORS
330
50D
102
}
330
50D
100
AcDbXrecord
280
     1
 91
      535
301

290
     0
302
CB Y
330
5D9
 90
        8
 62
   161
370
    -3
331
15
  1
Color_161
440
        0
330
5D8
 90
        8
 62
    11
370
    -3
331
15
  1
Color_11
440
        0
330
57F
 90
        8
 62
    90
370
    -3
331
15
  1
Color_90
440
        0
330
59
 90
        8
 62
     7
370
    -3
331
15
  1
Color_7
440
        0
330
58
 90
        8
 62
     7
370
    -3
331
15
  1
Color_7
440
        0
330
57
 90
        8
 62
     4
370
    -3
331
15
  1
Color_4
440
        0
330
56
 90
        8
 62
     5
370
    -3
331
15
  1
Color_5
440
        0
330
55
 90
        8
 62
     6
370
    -3
331
15
  1
Color_6
440
        0
330
54
 90
        8
 62
    40
370
    -3
331
15
  1
Color_40
440
        0
330
53
 90
        8
 62
     5
370
    -3
331
15
  1
Color_5
440
        0
330
52
 90
        8
 62
     5
370
    -3
331
15
  1
Color_5
440
        0
330
51
 90
        8
 62
    51
370
    -3
331
15
  1
Color_51
440
        0
330
50
 90
        8
 62
     1
370
    -3
331
15
  1
Color_1
440
        0
330
F
 90
        8
 62
     7
370
    -3
331
15
  1
Color_7
440
        0
  0
DICTIONARY
  5
4C3
330
4C2
100
AcDbDictionary
280
     1
281
     1
  3
BUMPTILE
360
4C5
  3
DIFFUSETILE
360
4C4
  3
OPACITYTILE
360
4C8
  3
REFLECTIONTILE
360
4C7
  3
REFRACTIONTILE
360
4C9
  3
SPECULARTILE
360
4C6
  0
DICTIONARY
  5
4BB
330
4BA
100
AcDbDictionary
280
     1
281
     1
  3
BUMPTILE
360
4BD
  3
DIFFUSETILE
360
4BC
  3
OPACITYTILE
360
4C0
  3
REFLECTIONTILE
360
4BF
  3
REFRACTIONTILE
360
4C1
  3
SPECULARTILE
360
4BE
  0
DICTIONARY
  5
4CB
330
4CA
100
AcDbDictionary
280
     1
281
     1
  3
BUMPTILE
360
4CD
  3
DIFFUSETILE
360
4CC
  3
OPACITYTILE
360
4D0
  3
REFLECTIONTILE
360
4CF
  3
REFRACTIONTILE
360
4D1
  3
SPECULARTILE
360
4CE
  0
DICTIONARY
  5
59C
330
4EE
100
AcDbDictionary
280
     1
281
     1
  3
ACAD_ROUNDTRIP_2008_TABLESTYLE_CELLSTYLEMAP
360
67E
  0
DICTIONARY
  5
623
330
622
100
AcDbDictionary
280
     1
281
     1
  3
AcadLayerStateAnnoScale
360
624
  0
XRECORD
  5
4C5
102
{ACAD_REACTORS
330
4C3
102
}
330
4C3
100
AcDbXrecord
280
     1
270
     1
271
     1
  0
XRECORD
  5
4C4
102
{ACAD_REACTORS
330
4C3
102
}
330
4C3
100
AcDbXrecord
280
     1
270
     1
271
     1
  0
XRECORD
  5
4C8
102
{ACAD_REACTORS
330
4C3
102
}
330
4C3
100
AcDbXrecord
280
     1
270
     1
271
     1
  0
XRECORD
  5
4C7
102
{ACAD_REACTORS
330
4C3
102
}
330
4C3
100
AcDbXrecord
280
     1
270
     1
271
     1
  0
XRECORD
  5
4C9
102
{ACAD_REACTORS
330
4C3
102
}
330
4C3
100
AcDbXrecord
280
     1
270
     1
271
     1
  0
XRECORD
  5
4C6
102
{ACAD_REACTORS
330
4C3
102
}
330
4C3
100
AcDbXrecord
280
     1
270
     1
271
     1
  0
XRECORD
  5
4BD
102
{ACAD_REACTORS
330
4BB
102
}
330
4BB
100
AcDbXrecord
280
     1
270
     1
271
     1
  0
XRECORD
  5
4BC
102
{ACAD_REACTORS
330
4BB
102
}
330
4BB
100
AcDbXrecord
280
     1
270
     1
271
     1
  0
XRECORD
  5
4C0
102
{ACAD_REACTORS
330
4BB
102
}
330
4BB
100
AcDbXrecord
280
     1
270
     1
271
     1
  0
XRECORD
  5
4BF
102
{ACAD_REACTORS
330
4BB
102
}
330
4BB
100
AcDbXrecord
280
     1
270
     1
271
     1
  0
XRECORD
  5
4C1
102
{ACAD_REACTORS
330
4BB
102
}
330
4BB
100
AcDbXrecord
280
     1
270
     1
271
     1
  0
XRECORD
  5
4BE
102
{ACAD_REACTORS
330
4BB
102
}
330
4BB
100
AcDbXrecord
280
     1
270
     1
271
     1
  0
XRECORD
  5
4CD
102
{ACAD_REACTORS
330
4CB
102
}
330
4CB
100
AcDbXrecord
280
     1
270
     1
271
     1
  0
XRECORD
  5
4CC
102
{ACAD_REACTORS
330
4CB
102
}
330
4CB
100
AcDbXrecord
280
     1
270
     1
271
     1
  0
XRECORD
  5
4D0
102
{ACAD_REACTORS
330
4CB
102
}
330
4CB
100
AcDbXrecord
280
     1
270
     1
271
     1
  0
XRECORD
  5
4CF
102
{ACAD_REACTORS
330
4CB
102
}
330
4CB
100
AcDbXrecord
280
     1
270
     1
271
     1
  0
XRECORD
  5
4D1
102
{ACAD_REACTORS
330
4CB
102
}
330
4CB
100
AcDbXrecord
280
     1
270
     1
271
     1
  0
XRECORD
  5
4CE
102
{ACAD_REACTORS
330
4CB
102
}
330
4CB
100
AcDbXrecord
280
     1
270
     1
271
     1
  0
CELLSTYLEMAP
  5
67E
102
{ACAD_REACTORS
330
59C
102
}
330
59C
100
AcDbCellStyleMap
 90
        3
300
CELLSTYLE
  1
TABLEFORMAT_BEGIN
 90
        5
170
     1
 91
        0
 92
    32768
 62
   257
 93
        1
300
CONTENTFORMAT
  1
CONTENTFORMAT_BEGIN
 90
        0
 91
        0
 92
      512
 93
        0
300

 40
0.0
140
1.0
 94
        5
 62
     0
340
10
144
0.25
309
CONTENTFORMAT_END
171
     1
301
MARGIN
  1
CELLMARGIN_BEGIN
 40
0.06
 40
0.06
 40
0.06
 40
0.06
 40
0.18
 40
0.18
309
CELLMARGIN_END
 94
        6
 95
        1
302
GRIDFORMAT
  1
GRIDFORMAT_BEGIN
 90
        0
 91
        1
 62
     0
 92
       -2
340
0
 93
        0
 40
0.045
309
GRIDFORMAT_END
 95
        2
302
GRIDFORMAT
  1
GRIDFORMAT_BEGIN
 90
        0
 91
        1
 62
     0
 92
       -2
340
0
 93
        0
 40
0.045
309
GRIDFORMAT_END
 95
        4
302
GRIDFORMAT
  1
GRIDFORMAT_BEGIN
 90
        0
 91
        1
 62
     0
 92
       -2
340
0
 93
        0
 40
0.045
309
GRIDFORMAT_END
 95
        8
302
GRIDFORMAT
  1
GRIDFORMAT_BEGIN
 90
        0
 91
        1
 62
     0
 92
       -2
340
0
 93
        0
 40
0.045
309
GRIDFORMAT_END
 95
       16
302
GRIDFORMAT
  1
GRIDFORMAT_BEGIN
 90
        0
 91
        1
 62
     0
 92
       -2
340
0
 93
        0
 40
0.045
309
GRIDFORMAT_END
 95
       32
302
GRIDFORMAT
  1
GRIDFORMAT_BEGIN
 90
        0
 91
        1
 62
     0
 92
       -2
340
0
 93
        0
 40
0.045
309
GRIDFORMAT_END
309
TABLEFORMAT_END
  1
CELLSTYLE_BEGIN
 90
        1
 91
        1
300
_TITLE
309
CELLSTYLE_END
300
CELLSTYLE
  1
TABLEFORMAT_BEGIN
 90
        5
170
     1
 91
        0
 92
        0
 62
   257
 93
        1
300
CONTENTFORMAT
  1
CONTENTFORMAT_BEGIN
 90
        0
 91
        0
 92
      512
 93
        0
300

 40
0.0
140
1.0
 94
        5
 62
     0
340
10
144
0.18
309
CONTENTFORMAT_END
171
     1
301
MARGIN
  1
CELLMARGIN_BEGIN
 40
0.06
 40
0.06
 40
0.06
 40
0.06
 40
0.18
 40
0.18
309
CELLMARGIN_END
 94
        6
 95
        1
302
GRIDFORMAT
  1
GRIDFORMAT_BEGIN
 90
        0
 91
        1
 62
     0
 92
       -2
340
0
 93
        0
 40
0.045
309
GRIDFORMAT_END
 95
        2
302
GRIDFORMAT
  1
GRIDFORMAT_BEGIN
 90
        0
 91
        1
 62
     0
 92
       -2
340
0
 93
        0
 40
0.045
309
GRIDFORMAT_END
 95
        4
302
GRIDFORMAT
  1
GRIDFORMAT_BEGIN
 90
        0
 91
        1
 62
     0
 92
       -2
340
0
 93
        0
 40
0.045
309
GRIDFORMAT_END
 95
        8
302
GRIDFORMAT
  1
GRIDFORMAT_BEGIN
 90
        0
 91
        1
 62
     0
 92
       -2
340
0
 93
        0
 40
0.045
309
GRIDFORMAT_END
 95
       16
302
GRIDFORMAT
  1
GRIDFORMAT_BEGIN
 90
        0
 91
        1
 62
     0
 92
       -2
340
0
 93
        0
 40
0.045
309
GRIDFORMAT_END
 95
       32
302
GRIDFORMAT
  1
GRIDFORMAT_BEGIN
 90
        0
 91
        1
 62
     0
 92
       -2
340
0
 93
        0
 40
0.045
309
GRIDFORMAT_END
309
TABLEFORMAT_END
  1
CELLSTYLE_BEGIN
 90
        2
 91
        1
300
_HEADER
309
CELLSTYLE_END
300
CELLSTYLE
  1
TABLEFORMAT_BEGIN
 90
        5
170
     1
 91
        0
 92
        0
 62
   257
 93
        1
300
CONTENTFORMAT
  1
CONTENTFORMAT_BEGIN
 90
        0
 91
        0
 92
      512
 93
        0
300

 40
0.0
140
1.0
 94
        2
 62
     0
340
10
144
0.18
309
CONTENTFORMAT_END
171
     1
301
MARGIN
  1
CELLMARGIN_BEGIN
 40
0.06
 40
0.06
 40
0.06
 40
0.06
 40
0.18
 40
0.18
309
CELLMARGIN_END
 94
        6
 95
        1
302
GRIDFORMAT
  1
GRIDFORMAT_BEGIN
 90
        0
 91
        1
 62
     0
 92
       -2
340
0
 93
        0
 40
0.045
309
GRIDFORMAT_END
 95
        2
302
GRIDFORMAT
  1
GRIDFORMAT_BEGIN
 90
        0
 91
        1
 62
     0
 92
       -2
340
0
 93
        0
 40
0.045
309
GRIDFORMAT_END
 95
        4
302
GRIDFORMAT
  1
GRIDFORMAT_BEGIN
 90
        0
 91
        1
 62
     0
 92
       -2
340
0
 93
        0
 40
0.045
309
GRIDFORMAT_END
 95
        8
302
GRIDFORMAT
  1
GRIDFORMAT_BEGIN
 90
        0
 91
        1
 62
     0
 92
       -2
340
0
 93
        0
 40
0.045
309
GRIDFORMAT_END
 95
       16
302
GRIDFORMAT
  1
GRIDFORMAT_BEGIN
 90
        0
 91
        1
 62
     0
 92
       -2
340
0
 93
        0
 40
0.045
309
GRIDFORMAT_END
 95
       32
302
GRIDFORMAT
  1
GRIDFORMAT_BEGIN
 90
        0
 91
        1
 62
     0
 92
       -2
340
0
 93
        0
 40
0.045
309
GRIDFORMAT_END
309
TABLEFORMAT_END
  1
CELLSTYLE_BEGIN
 90
        3
 91
        2
300
_DATA
309
CELLSTYLE_END
  0
XRECORD
  5
624
102
{ACAD_REACTORS
330
623
102
}
330
623
100
AcDbXrecord
280
     1
330
4F0
  0
ENDSEC
  0
SECTION
  2
ACDSDATA
 70
     2
 71
     8
  0
ACDSSCHEMA
 90
        0
  1
AcDb3DSolid_ASM_Data
  2
AcDbDs::ID
280
    10
 91
        8
  2
ASM_Data
280
    15
 91
        0
101
ACDSRECORD
 95
        0
 90
        1
  2
AcDbDs::TreatedAsObjectData
280
     1
291
     1
101
ACDSRECORD
 95
        0
 90
        2
  2
AcDbDs::Legacy
280
     1
291
     1
101
ACDSRECORD
  1
AcDbDs::ID
 90
        3
  2
AcDs:Indexable
280
     1
291
     1
101
ACDSRECORD
  1
AcDbDs::ID
 90
        4
  2
AcDbDs::HandleAttribute
280
     7
282
     1
  0
ACDSSCHEMA
 90
        1
  1
AcDbDs::TreatedAsObjectDataSchema
  2
AcDbDs::TreatedAsObjectData
280
     1
 91
        0
  0
ACDSSCHEMA
 90
        2
  1
AcDbDs::LegacySchema
  2
AcDbDs::Legacy
280
     1
 91
        0
  0
ACDSSCHEMA
 90
        3
  1
AcDbDs::IndexedPropertySchema
  2
AcDs:Indexable
280
     1
 91
        0
  0
ACDSSCHEMA
 90
        4
  1
AcDbDs::HandleAttributeSchema
  2
AcDbDs::HandleAttribute
280
     7
 91
        1
284
     1
  0
ACDSRECORD
 90
        0
  2
AcDbDs::ID
280
    10
320
2FB
  2
ASM_Data
280
    15
 94
     1763
310
41534D2042696E61727946696C65341C57000000000000020000000400000007104175746F6465736B204175746F434144071541534D203232372E372E31302E3635353335204E540718547565204175672032362031303A34323A31322032303235066666666666663940068DEDB5A0F7C6B03E06BBBDD7D9DF7CDB3D0D09
310
61736D6865616465720CFFFFFFFF04FFFFFFFF070E3232372E372E31302E3635353335110D04626F64790CFFFFFFFF04FFFFFFFF0CFFFFFFFF0C020000000CFFFFFFFF0CFFFFFFFF110D046C756D700CFFFFFFFF04FFFFFFFF0CFFFFFFFF0CFFFFFFFF0C030000000C01000000110D057368656C6C0CFFFFFFFF04FFFFFFFF
310
0CFFFFFFFF0CFFFFFFFF0CFFFFFFFF0C040000000CFFFFFFFF0C02000000110D04666163650CFFFFFFFF04FFFFFFFF0CFFFFFFFF0C050000000C060000000C030000000CFFFFFFFF0C070000000B0B110D04666163650CFFFFFFFF04FFFFFFFF0CFFFFFFFF0C080000000C090000000C030000000CFFFFFFFF0C0A0000000B
310
0B110D046C6F6F700CFFFFFFFF04FFFFFFFF0CFFFFFFFF0C0B0000000C0C0000000C04000000110E04636F6E650D07737572666163650CFFFFFFFF04FFFFFFFF0CFFFFFFFF13000000000000F03F0000000000000000000000000000A03C14000000000000F03F00000000000000000000000000A6913C14CDCCCCCCCC3C4C
310
3C00000000000000009A9999999999A9BF06000000000000F03F0B0B06000000000000000006000000000000F03F069A9999999999A93F0B0B0B0B0B110D04666163650CFFFFFFFF04FFFFFFFF0CFFFFFFFF0CFFFFFFFF0C0D0000000C030000000CFFFFFFFF0C0E0000000B0B110D046C6F6F700CFFFFFFFF04FFFFFFFF0C
310
FFFFFFFF0CFFFFFFFF0C0F0000000C05000000110E05706C616E650D07737572666163650CFFFFFFFF04FFFFFFFF0CFFFFFFFF1300000000000000000000000000000000000000000000000014000000000000F0BF00000000000000000000000000A691BC140000000000A691BC0000000000000000000000000000F03F0B
310
0B0B0B0B110D046C6F6F700CFFFFFFFF04FFFFFFFF0CFFFFFFFF0CFFFFFFFF0C100000000C04000000110D06636F656467650CFFFFFFFF04FFFFFFFF0CFFFFFFFF0C0C0000000C0C0000000C0F0000000C110000000A0C0600000004000000000CFFFFFFFF110D046C6F6F700CFFFFFFFF04FFFFFFFF0CFFFFFFFF0CFFFFFF
310
FF0C120000000C08000000110E05706C616E650D07737572666163650CFFFFFFFF04FFFFFFFF0CFFFFFFFF1300000000000000400000000000000000000000000000A03C14000000000000F03F00000000000000000000000000A6913C140000000000A6913C0000000000000000000000000000F0BF0B0B0B0B0B110D0663
310
6F656467650CFFFFFFFF04FFFFFFFF0CFFFFFFFF0C0F0000000C0F0000000C0C0000000C110000000B0C0900000004000000000CFFFFFFFF110D06636F656467650CFFFFFFFF04FFFFFFFF0CFFFFFFFF0C100000000C100000000C120000000C130000000A0C0B00000004000000000CFFFFFFFF110D04656467650CFFFFFF
310
FF04FFFFFFFF0CFFFFFFFF0C140000000600000000000000000C1400000006182D4454FB2119400C0F0000000C150000000B0707756E6B6E6F776E110D06636F656467650CFFFFFFFF04FFFFFFFF0CFFFFFFFF0C120000000C120000000C100000000C130000000B0C0D00000004000000000CFFFFFFFF110D04656467650C
310
FFFFFFFF04FFFFFFFF0CFFFFFFFF0C160000000600000000000000000C1600000006182D4454FB2119400C120000000C170000000B0707756E6B6E6F776E110D067665727465780CFFFFFFFF04FFFFFFFF0CFFFFFFFF0C1100000004020000000C18000000110E07656C6C697073650D0563757276650CFFFFFFFF04FFFFFF
310
FF0CFFFFFFFF1300000000000000000000000000000000000000000000000014000000000000F0BF00000000000000000000000000A691BC14CDCCCCCCCC3C4C3C00000000000000009A9999999999A9BF06000000000000F03F0B0B110D067665727465780CFFFFFFFF04FFFFFFFF0CFFFFFFFF0C1300000004020000000C
310
19000000110E07656C6C697073650D0563757276650CFFFFFFFF04FFFFFFFF0CFFFFFFFF1300000000000000400000000000000000000000000000A03C14000000000000F03F00000000000000000000000000A6913C14CDCCCCCCCC3C4C3C00000000000000009A9999999999A9BF06000000000000F03F0B0B110D05706F
310
696E740CFFFFFFFF04FFFFFFFF0CFFFFFFFF13D0CCCCCCCC3C4C3C0000000000000000A09999999999A9BF110D05706F696E740CFFFFFFFF04FFFFFFFF0CFFFFFFFF1300000000000000400000000000000000909999999999A9BF110E03456E640E026F660E0341534D0D0464617461
  0
ACDSRECORD
 90
        0
  2
AcDbDs::ID
280
    10
320
321
  2
ASM_Data
280
    15
 94
     1763
310
41534D2042696E61727946696C65341C57000000000000020000000400000007104175746F6465736B204175746F434144071541534D203232372E372E31302E3635353335204E540718547565204175672032362031303A34323A31322032303235066666666666663940068DEDB5A0F7C6B03E06BBBDD7D9DF7CDB3D0D09
310
61736D6865616465720CFFFFFFFF04FFFFFFFF070E3232372E372E31302E3635353335110D04626F64790CFFFFFFFF04FFFFFFFF0CFFFFFFFF0C020000000CFFFFFFFF0CFFFFFFFF110D046C756D700CFFFFFFFF04FFFFFFFF0CFFFFFFFF0CFFFFFFFF0C030000000C01000000110D057368656C6C0CFFFFFFFF04FFFFFFFF
310
0CFFFFFFFF0CFFFFFFFF0CFFFFFFFF0C040000000CFFFFFFFF0C02000000110D04666163650CFFFFFFFF04FFFFFFFF0CFFFFFFFF0C050000000C060000000C030000000CFFFFFFFF0C070000000B0B110D04666163650CFFFFFFFF04FFFFFFFF0CFFFFFFFF0C080000000C090000000C030000000CFFFFFFFF0C0A0000000B
310
0B110D046C6F6F700CFFFFFFFF04FFFFFFFF0CFFFFFFFF0C0B0000000C0C0000000C04000000110E04636F6E650D07737572666163650CFFFFFFFF04FFFFFFFF0CFFFFFFFF130000000000000000000000000000F03F000000000000A03C140000000000A6913C000000000000F03F0000000000A6913C14676666669025EF
310
38CDCCCCCCCC3C4C3C9A9999999999A9BF06000000000000F03F0B0B06000000000000000006000000000000F03F069A9999999999A93F0B0B0B0B0B110D04666163650CFFFFFFFF04FFFFFFFF0CFFFFFFFF0CFFFFFFFF0C0D0000000C030000000CFFFFFFFF0C0E0000000B0B110D046C6F6F700CFFFFFFFF04FFFFFFFF0C
310
FFFFFFFF0CFFFFFFFF0C0F0000000C05000000110E05706C616E650D07737572666163650CFFFFFFFF04FFFFFFFF0CFFFFFFFF13000000000000000000000000000000000000000000000000140000000000A691BC000000000000F0BF0000000000A691BC14000000407A7733B90000000000A691BC000000000000F03F0B
310
0B0B0B0B110D046C6F6F700CFFFFFFFF04FFFFFFFF0CFFFFFFFF0CFFFFFFFF0C100000000C04000000110D06636F656467650CFFFFFFFF04FFFFFFFF0CFFFFFFFF0C0C0000000C0C0000000C0F0000000C110000000A0C0600000004000000000CFFFFFFFF110D046C6F6F700CFFFFFFFF04FFFFFFFF0CFFFFFFFF0CFFFFFF
310
FF0C120000000C08000000110E05706C616E650D07737572666163650CFFFFFFFF04FFFFFFFF0CFFFFFFFF130000000000000000FFFFFFFFFFFFFF3F000000000000A03C140000000000A6913C000000000000F03F0000000000A6913C14000000407A7733390000000000A6913C000000000000F0BF0B0B0B0B0B110D0663
310
6F656467650CFFFFFFFF04FFFFFFFF0CFFFFFFFF0C0F0000000C0F0000000C0C0000000C110000000B0C0900000004000000000CFFFFFFFF110D06636F656467650CFFFFFFFF04FFFFFFFF0CFFFFFFFF0C100000000C100000000C120000000C130000000A0C0B00000004000000000CFFFFFFFF110D04656467650CFFFFFF
310
FF04FFFFFFFF0CFFFFFFFF0C140000000600000000000000000C1400000006182D4454FB2119400C0F0000000C150000000B0707756E6B6E6F776E110D06636F656467650CFFFFFFFF04FFFFFFFF0CFFFFFFFF0C120000000C120000000C100000000C130000000B0C0D00000004000000000CFFFFFFFF110D04656467650C
310
FFFFFFFF04FFFFFFFF0CFFFFFFFF0C160000000600000000000000000C1600000006182D4454FB2119400C120000000C170000000B0707756E6B6E6F776E110D067665727465780CFFFFFFFF04FFFFFFFF0CFFFFFFFF0C1100000004020000000C18000000110E07656C6C697073650D0563757276650CFFFFFFFF04FFFFFF
310
FF0CFFFFFFFF13000000000000000000000000000000000000000000000000140000000000A691BC000000000000F0BF0000000000A691BC14676666669025EF38CDCCCCCCCC3C4C3C9A9999999999A9BF06000000000000F03F0B0B110D067665727465780CFFFFFFFF04FFFFFFFF0CFFFFFFFF0C1300000004020000000C
310
19000000110E07656C6C697073650D0563757276650CFFFFFFFF04FFFFFFFF0CFFFFFFFF130000000000000000FFFFFFFFFFFFFF3F000000000000A03C140000000000A6913C000000000000F03F0000000000A6913C14676666669025EF38CDCCCCCCCC3C4C3C9A9999999999A9BF06000000000000F03F0B0B110D05706F
310
696E740CFFFFFFFF04FFFFFFFF0CFFFFFFFF1300000000000000000000000000000000A09999999999A9BF110D05706F696E740CFFFFFFFF04FFFFFFFF0CFFFFFFFF130000000000000000FFFFFFFFFFFFFF3F909999999999A9BF110E03456E640E026F660E0341534D0D0464617461
  0
ACDSRECORD
 90
        0
  2
AcDbDs::ID
280
    10
320
347
  2
ASM_Data
280
    15
 94
     1763
310
41534D2042696E61727946696C65341C57000000000000020000000400000007104175746F6465736B204175746F434144071541534D203232372E372E31302E3635353335204E540718547565204175672032362031303A34323A31322032303235066666666666663940068DEDB5A0F7C6B03E06BBBDD7D9DF7CDB3D0D09
310
61736D6865616465720CFFFFFFFF04FFFFFFFF070E3232372E372E31302E3635353335110D04626F64790CFFFFFFFF04FFFFFFFF0CFFFFFFFF0C020000000CFFFFFFFF0CFFFFFFFF110D046C756D700CFFFFFFFF04FFFFFFFF0CFFFFFFFF0CFFFFFFFF0C030000000C01000000110D057368656C6C0CFFFFFFFF04FFFFFFFF
310
0CFFFFFFFF0CFFFFFFFF0CFFFFFFFF0C040000000CFFFFFFFF0C02000000110D04666163650CFFFFFFFF04FFFFFFFF0CFFFFFFFF0C050000000C060000000C030000000CFFFFFFFF0C070000000B0B110D04666163650CFFFFFFFF04FFFFFFFF0CFFFFFFFF0C080000000C090000000C030000000CFFFFFFFF0C0A0000000B
310
0B110D046C6F6F700CFFFFFFFF04FFFFFFFF0CFFFFFFFF0C0B0000000C0C0000000C04000000110E04636F6E650D07737572666163650CFFFFFFFF04FFFFFFFF0CFFFFFFFF1300000000000000000000000000000000000000000000F03F1400000000000000000000000000000000000000000000F03F149A9999999999A9
310
3F0000000000000000000000000000000006000000000000F03F0B0B06000000000000000006000000000000F03F069A9999999999A93F0B0B0B0B0B110D04666163650CFFFFFFFF04FFFFFFFF0CFFFFFFFF0CFFFFFFFF0C0D0000000C030000000CFFFFFFFF0C0E0000000B0B110D046C6F6F700CFFFFFFFF04FFFFFFFF0C
310
FFFFFFFF0CFFFFFFFF0C0F0000000C05000000110E05706C616E650D07737572666163650CFFFFFFFF04FFFFFFFF0CFFFFFFFF130000000000000000000000000000000000000000000000001400000000000000000000000000000000000000000000F0BF14000000000000F0BF000000000000000000000000000000000B
310
0B0B0B0B110D046C6F6F700CFFFFFFFF04FFFFFFFF0CFFFFFFFF0CFFFFFFFF0C100000000C04000000110D06636F656467650CFFFFFFFF04FFFFFFFF0CFFFFFFFF0C0C0000000C0C0000000C0F0000000C110000000A0C0600000004000000000CFFFFFFFF110D046C6F6F700CFFFFFFFF04FFFFFFFF0CFFFFFFFF0CFFFFFF
310
FF0C120000000C08000000110E05706C616E650D07737572666163650CFFFFFFFF04FFFFFFFF0CFFFFFFFF130000000000000000000000000000000000000000000000401400000000000000000000000000000000000000000000F03F14000000000000F03F000000000000000000000000000000000B0B0B0B0B110D0663
310
6F656467650CFFFFFFFF04FFFFFFFF0CFFFFFFFF0C0F0000000C0F0000000C0C0000000C110000000B0C0900000004000000000CFFFFFFFF110D06636F656467650CFFFFFFFF04FFFFFFFF0CFFFFFFFF0C100000000C100000000C120000000C130000000A0C0B00000004000000000CFFFFFFFF110D04656467650CFFFFFF
310
FF04FFFFFFFF0CFFFFFFFF0C140000000600000000000000000C1400000006182D4454FB2119400C0F0000000C150000000B0707756E6B6E6F776E110D06636F656467650CFFFFFFFF04FFFFFFFF0CFFFFFFFF0C120000000C120000000C100000000C130000000B0C0D00000004000000000CFFFFFFFF110D04656467650C
310
FFFFFFFF04FFFFFFFF0CFFFFFFFF0C160000000600000000000000000C1600000006182D4454FB2119400C120000000C170000000B0707756E6B6E6F776E110D067665727465780CFFFFFFFF04FFFFFFFF0CFFFFFFFF0C1100000004020000000C18000000110E07656C6C697073650D0563757276650CFFFFFFFF04FFFFFF
310
FF0CFFFFFFFF130000000000000000000000000000000000000000000000001400000000000000000000000000000000000000000000F0BF149A9999999999A93F0000000000000000000000000000000006000000000000F03F0B0B110D067665727465780CFFFFFFFF04FFFFFFFF0CFFFFFFFF0C1300000004020000000C
310
19000000110E07656C6C697073650D0563757276650CFFFFFFFF04FFFFFFFF0CFFFFFFFF130000000000000000000000000000000000000000000000401400000000000000000000000000000000000000000000F03F149A9999999999A93F0000000000000000000000000000000006000000000000F03F0B0B110D05706F
310
696E740CFFFFFFFF04FFFFFFFF0CFFFFFFFF139A9999999999A93F00000000000000000000000000000000110D05706F696E740CFFFFFFFF04FFFFFFFF0CFFFFFFFF139A9999999999A93F00000000000000000000000000000040110E03456E640E026F660E0341534D0D0464617461
  0
ACDSRECORD
 90
        0
  2
AcDbDs::ID
280
    10
320
63
  2
ASM_Data
280
    15
 94
     5489
310
41534D2042696E61727946696C65341C57000000000000020000000400000007104175746F6465736B204175746F434144071541534D203232372E372E31302E3635353335204E540718547565204175672032362031303A34323A31322032303235066666666666663940068DEDB5A0F7C6B03E06BBBDD7D9DF7CDB3D0D09
310
61736D6865616465720CFFFFFFFF04FFFFFFFF070E3232372E372E31302E3635353335110D04626F64790CFFFFFFFF04FFFFFFFF0CFFFFFFFF0C020000000CFFFFFFFF0CFFFFFFFF110D046C756D700CFFFFFFFF04FFFFFFFF0CFFFFFFFF0CFFFFFFFF0C030000000C01000000110D057368656C6C0CFFFFFFFF04FFFFFFFF
310
0CFFFFFFFF0CFFFFFFFF0CFFFFFFFF0C040000000CFFFFFFFF0C02000000110D04666163650CFFFFFFFF04FFFFFFFF0CFFFFFFFF0C050000000C060000000C030000000CFFFFFFFF0C070000000B0B110D04666163650CFFFFFFFF04FFFFFFFF0CFFFFFFFF0C080000000C090000000C030000000CFFFFFFFF0C0A0000000A
310
0B110D046C6F6F700CFFFFFFFF04FFFFFFFF0CFFFFFFFF0CFFFFFFFF0C0B0000000C04000000110E05706C616E650D07737572666163650CFFFFFFFF04FFFFFFFF0CFFFFFFFF1300000000000000000000000000000000000000000000E03F1400000000000000000000000000000000000000000000F03F14000000000000
310
F03F000000000000000000000000000000000B0B0B0B0B110D04666163650CFFFFFFFF04FFFFFFFF0CFFFFFFFF0C0C0000000C0D0000000C030000000CFFFFFFFF0C0E0000000A0B110D046C6F6F700CFFFFFFFF04FFFFFFFF0CFFFFFFFF0CFFFFFFFF0C0F0000000C05000000110E05706C616E650D07737572666163650C
310
FFFFFFFF04FFFFFFFF0CFFFFFFFF1300000000000000000000000000000000000000000000E0BF1400000000000000000000000000000000000000000000F03F14000000000000F03F000000000000000000000000000000000B0B0B0B0B110D06636F656467650CFFFFFFFF04FFFFFFFF0CFFFFFFFF0C100000000C110000
310
000C120000000C130000000B0C0600000004000000000CFFFFFFFF110D04666163650CFFFFFFFF04FFFFFFFF0CFFFFFFFF0C140000000C150000000C030000000CFFFFFFFF0C160000000A0B110D046C6F6F700CFFFFFFFF04FFFFFFFF0CFFFFFFFF0CFFFFFFFF0C170000000C08000000110E05706C616E650D0773757266
310
6163650CFFFFFFFF04FFFFFFFF0CFFFFFFFF130000000000000000000000000000E0BF0000000000000000140000000000000000000000000000F03F00000000000000001400000000000000000000000000000000000000000000F03F0B0B0B0B0B110D06636F656467650CFFFFFFFF04FFFFFFFF0CFFFFFFFF0C18000000
310
0C190000000C1A0000000C1B0000000B0C0900000004000000000CFFFFFFFF110D06636F656467650CFFFFFFFF04FFFFFFFF0CFFFFFFFF0C1C0000000C0B0000000C1D0000000C1E0000000B0C0600000004000000000CFFFFFFFF110D06636F656467650CFFFFFFFF04FFFFFFFF0CFFFFFFFF0C0B0000000C1C0000000C1F
310
0000000C200000000B0C0600000004000000000CFFFFFFFF110D06636F656467650CFFFFFFFF04FFFFFFFF0CFFFFFFFF0C210000000C220000000C0B0000000C130000000A0C2300000004000000000CFFFFFFFF110D04656467650CFFFFFFFF04FFFFFFFF0CFFFFFFFF0C2400000006000000000000E0BF0C250000000600
310
0000000000E03F0C120000000C260000000B0707756E6B6E6F776E110D04666163650CFFFFFFFF04FFFFFFFF0CFFFFFFFF0C270000000C280000000C030000000CFFFFFFFF0C290000000A0B110D046C6F6F700CFFFFFFFF04FFFFFFFF0CFFFFFFFF0CFFFFFFFF0C2A0000000C0C000000110E05706C616E650D0773757266
310
6163650CFFFFFFFF04FFFFFFFF0CFFFFFFFF13000000000000E0BF0000000000000000000000000000000014000000000000F03F000000000000000000000000000000001400000000000000000000000000000000000000000000F0BF0B0B0B0B0B110D06636F656467650CFFFFFFFF04FFFFFFFF0CFFFFFFFF0C2B000000
310
0C1F0000000C2C0000000C2D0000000B0C0D00000004000000000CFFFFFFFF110D06636F656467650CFFFFFFFF04FFFFFFFF0CFFFFFFFF0C2E0000000C0F0000000C2B0000000C2F0000000B0C0900000004000000000CFFFFFFFF110D06636F656467650CFFFFFFFF04FFFFFFFF0CFFFFFFFF0C0F0000000C2E0000000C30
310
0000000C310000000B0C0900000004000000000CFFFFFFFF110D06636F656467650CFFFFFFFF04FFFFFFFF0CFFFFFFFF0C220000000C210000000C0F0000000C1B0000000A0C2300000004000000000CFFFFFFFF110D04656467650CFFFFFFFF04FFFFFFFF0CFFFFFFFF0C3200000006000000000000E0BF0C330000000600
310
0000000000E03F0C1A0000000C340000000B0707756E6B6E6F776E110D06636F656467650CFFFFFFFF04FFFFFFFF0CFFFFFFFF0C110000000C100000000C350000000C360000000B0C0600000004000000000CFFFFFFFF110D06636F656467650CFFFFFFFF04FFFFFFFF0CFFFFFFFF0C370000000C380000000C100000000C
310
1E0000000A0C2800000004000000000CFFFFFFFF110D04656467650CFFFFFFFF04FFFFFFFF0CFFFFFFFF0C2500000006000000000000E0BF0C3900000006000000000000E03F0C1D0000000C3A0000000B0707756E6B6E6F776E110D06636F656467650CFFFFFFFF04FFFFFFFF0CFFFFFFFF0C170000000C3B0000000C1100
310
00000C200000000A0C0D00000004000000000CFFFFFFFF110D04656467650CFFFFFFFF04FFFFFFFF0CFFFFFFFF0C3C00000006000000000000E0BF0C2400000006000000000000E03F0C1F0000000C3D0000000B0707756E6B6E6F776E110D06636F656467650CFFFFFFFF04FFFFFFFF0CFFFFFFFF0C1A0000000C12000000
310
0C3B0000000C3E0000000B0C2300000004000000000CFFFFFFFF110D06636F656467650CFFFFFFFF04FFFFFFFF0CFFFFFFFF0C120000000C1A0000000C370000000C3F0000000A0C2300000004000000000CFFFFFFFF110D046C6F6F700CFFFFFFFF04FFFFFFFF0CFFFFFFFF0CFFFFFFFF0C210000000C27000000110D0676
310
65727465780CFFFFFFFF04FFFFFFFF0CFFFFFFFF0C1300000004020000000C40000000110D067665727465780CFFFFFFFF04FFFFFFFF0CFFFFFFFF0C1300000004020000000C41000000110E0873747261696768740D0563757276650CFFFFFFFF04FFFFFFFF0CFFFFFFFF13000000000000E03F0000000000000000000000
310
000000E03F140000000000000000000000000000F03F00000000000000000B0B110D04666163650CFFFFFFFF04FFFFFFFF0CFFFFFFFF0CFFFFFFFF0C230000000C030000000CFFFFFFFF0C420000000A0B110D046C6F6F700CFFFFFFFF04FFFFFFFF0CFFFFFFFF0CFFFFFFFF0C370000000C14000000110E05706C616E650D
310
07737572666163650CFFFFFFFF04FFFFFFFF0CFFFFFFFF130000000000000000000000000000E03F0000000000000000140000000000000000000000000000F0BF00000000000000001400000000000000000000000000000000000000000000F0BF0B0B0B0B0B110D06636F656467650CFFFFFFFF04FFFFFFFF0CFFFFFFFF
310
0C430000000C350000000C380000000C440000000B0C1500000004000000000CFFFFFFFF110D06636F656467650CFFFFFFFF04FFFFFFFF0CFFFFFFFF0C3B0000000C170000000C180000000C2F0000000A0C0D00000004000000000CFFFFFFFF110D06636F656467650CFFFFFFFF04FFFFFFFF0CFFFFFFFF0C350000000C43
310
0000000C170000000C2D0000000A0C1500000004000000000CFFFFFFFF110D04656467650CFFFFFFFF04FFFFFFFF0CFFFFFFFF0C3C00000006000000000000E0BF0C4500000006000000000000E03F0C2C0000000C460000000B0707756E6B6E6F776E110D06636F656467650CFFFFFFFF04FFFFFFFF0CFFFFFFFF0C190000
310
000C180000000C430000000C470000000B0C0900000004000000000CFFFFFFFF110D04656467650CFFFFFFFF04FFFFFFFF0CFFFFFFFF0C3300000006000000000000E0BF0C4500000006000000000000E03F0C2B0000000C480000000B0707756E6B6E6F776E110D06636F656467650CFFFFFFFF04FFFFFFFF0CFFFFFFFF0C
310
380000000C370000000C190000000C310000000A0C2800000004000000000CFFFFFFFF110D04656467650CFFFFFFFF04FFFFFFFF0CFFFFFFFF0C4900000006000000000000E0BF0C3200000006000000000000E03F0C300000000C4A0000000B0707756E6B6E6F776E110D067665727465780CFFFFFFFF04FFFFFFFF0CFFFF
310
FFFF0C1B00000004020000000C4B000000110D067665727465780CFFFFFFFF04FFFFFFFF0CFFFFFFFF0C3E00000004020000000C4C000000110E0873747261696768740D0563757276650CFFFFFFFF04FFFFFFFF0CFFFFFFFF13000000000000E03F0000000000000000000000000000E0BF14000000000000000000000000
310
0000F0BF00000000000000000B0B110D06636F656467650CFFFFFFFF04FFFFFFFF0CFFFFFFFF0C2A0000000C2C0000000C1C0000000C360000000A0C1500000004000000000CFFFFFFFF110D04656467650CFFFFFFFF04FFFFFFFF0CFFFFFFFF0C3900000006000000000000E0BF0C3C00000006000000000000E03F0C3500
310
00000C4D0000000B0707756E6B6E6F776E110D06636F656467650CFFFFFFFF04FFFFFFFF0CFFFFFFFF0C300000000C1D0000000C220000000C3F0000000B0C2800000004000000000CFFFFFFFF110D06636F656467650CFFFFFFFF04FFFFFFFF0CFFFFFFFF0C1D0000000C300000000C2A0000000C440000000A0C28000000
310
04000000000CFFFFFFFF110D067665727465780CFFFFFFFF04FFFFFFFF0CFFFFFFFF0C1E00000004020000000C4E000000110E0873747261696768740D0563757276650CFFFFFFFF04FFFFFFFF0CFFFFFFFF130000000000000000000000000000E03F000000000000E03F14000000000000F0BF0000000000000000000000
310
00000000000B0B110D06636F656467650CFFFFFFFF04FFFFFFFF0CFFFFFFFF0C1F0000000C2B0000000C210000000C3E0000000A0C0D00000004000000000CFFFFFFFF110D067665727465780CFFFFFFFF04FFFFFFFF0CFFFFFFFF0C3600000004020000000C4F000000110E0873747261696768740D0563757276650CFFFF
310
FFFF04FFFFFFFF0CFFFFFFFF130000000000000000000000000000E0BF000000000000E03F14000000000000F03F000000000000000000000000000000000B0B110D04656467650CFFFFFFFF04FFFFFFFF0CFFFFFFFF0C2400000006000000000000E0BF0C3300000006000000000000E03F0C210000000C500000000B0707
310
756E6B6E6F776E110D04656467650CFFFFFFFF04FFFFFFFF0CFFFFFFFF0C2500000006000000000000E0BF0C3200000006000000000000E03F0C220000000C510000000B0707756E6B6E6F776E110D05706F696E740CFFFFFFFF04FFFFFFFF0CFFFFFFFF13000000000000E03F000000000000E0BF000000000000E03F110D
310
05706F696E740CFFFFFFFF04FFFFFFFF0CFFFFFFFF13000000000000E03F000000000000E03F000000000000E03F110E05706C616E650D07737572666163650CFFFFFFFF04FFFFFFFF0CFFFFFFFF13000000000000E03F0000000000000000000000000000000014000000000000F0BF000000000000000000000000000000
310
001400000000000000000000000000000000000000000000F03F0B0B0B0B0B110D06636F656467650CFFFFFFFF04FFFFFFFF0CFFFFFFFF0C2C0000000C2A0000000C2E0000000C470000000A0C1500000004000000000CFFFFFFFF110D04656467650CFFFFFFFF04FFFFFFFF0CFFFFFFFF0C3900000006000000000000E0BF
310
0C4900000006000000000000E03F0C380000000C520000000B0707756E6B6E6F776E110D067665727465780CFFFFFFFF04FFFFFFFF0CFFFFFFFF0C4700000004020000000C53000000110E0873747261696768740D0563757276650CFFFFFFFF04FFFFFFFF0CFFFFFFFF13000000000000E0BF000000000000E0BF00000000
310
000000001400000000000000000000000000000000000000000000F0BF0B0B110D04656467650CFFFFFFFF04FFFFFFFF0CFFFFFFFF0C4500000006000000000000E0BF0C4900000006000000000000E03F0C430000000C540000000B0707756E6B6E6F776E110E0873747261696768740D0563757276650CFFFFFFFF04FFFF
310
FFFF0CFFFFFFFF130000000000000000000000000000E0BF000000000000E0BF14000000000000F0BF000000000000000000000000000000000B0B110D067665727465780CFFFFFFFF04FFFFFFFF0CFFFFFFFF0C3100000004020000000C55000000110E0873747261696768740D0563757276650CFFFFFFFF04FFFFFFFF0C
310
FFFFFFFF130000000000000000000000000000E03F000000000000E0BF14000000000000F03F000000000000000000000000000000000B0B110D05706F696E740CFFFFFFFF04FFFFFFFF0CFFFFFFFF13000000000000E03F000000000000E03F000000000000E0BF110D05706F696E740CFFFFFFFF04FFFFFFFF0CFFFFFFFF
310
13000000000000E03F000000000000E0BF000000000000E0BF110E0873747261696768740D0563757276650CFFFFFFFF04FFFFFFFF0CFFFFFFFF13000000000000E0BF0000000000000000000000000000E03F140000000000000000000000000000F0BF00000000000000000B0B110D05706F696E740CFFFFFFFF04FFFFFF
310
FF0CFFFFFFFF13000000000000E0BF000000000000E03F000000000000E03F110D05706F696E740CFFFFFFFF04FFFFFFFF0CFFFFFFFF13000000000000E0BF000000000000E0BF000000000000E03F110E0873747261696768740D0563757276650CFFFFFFFF04FFFFFFFF0CFFFFFFFF13000000000000E03F000000000000
310
E0BF00000000000000001400000000000000000000000000000000000000000000F0BF0B0B110E0873747261696768740D0563757276650CFFFFFFFF04FFFFFFFF0CFFFFFFFF13000000000000E03F000000000000E03F00000000000000001400000000000000000000000000000000000000000000F0BF0B0B110E087374
310
7261696768740D0563757276650CFFFFFFFF04FFFFFFFF0CFFFFFFFF13000000000000E0BF000000000000E03F00000000000000001400000000000000000000000000000000000000000000F0BF0B0B110D05706F696E740CFFFFFFFF04FFFFFFFF0CFFFFFFFF13000000000000E0BF000000000000E0BF000000000000E0
310
BF110E0873747261696768740D0563757276650CFFFFFFFF04FFFFFFFF0CFFFFFFFF13000000000000E0BF0000000000000000000000000000E0BF140000000000000000000000000000F03F00000000000000000B0B110D05706F696E740CFFFFFFFF04FFFFFFFF0CFFFFFFFF13000000000000E0BF000000000000E03F00
310
0000000000E0BF110E03456E640E026F660E0341534D0D0464617461
  0
ACDSRECORD
 90
        0
  2
AcDbDs::ID
280
    10
320
68
  2
ASM_Data
280
    15
 94
      476
310
41534D2042696E61727946696C65341C57000000000000020000000400000007104175746F6465736B204175746F434144071541534D203232372E372E31302E3635353335204E540718547565204175672032362031303A34323A31322032303235066666666666663940068DEDB5A0F7C6B03E06BBBDD7D9DF7CDB3D0D09
310
61736D6865616465720CFFFFFFFF04FFFFFFFF070E3232372E372E31302E3635353335110D04626F64790CFFFFFFFF04FFFFFFFF0CFFFFFFFF0C020000000CFFFFFFFF0CFFFFFFFF110D046C756D700CFFFFFFFF04FFFFFFFF0CFFFFFFFF0CFFFFFFFF0C030000000C01000000110D057368656C6C0CFFFFFFFF04FFFFFFFF
310
0CFFFFFFFF0CFFFFFFFF0CFFFFFFFF0C040000000CFFFFFFFF0C02000000110D04666163650CFFFFFFFF04FFFFFFFF0CFFFFFFFF0CFFFFFFFF0CFFFFFFFF0C030000000CFFFFFFFF0C050000000B0B110E067370686572650D07737572666163650CFFFFFFFF04FFFFFFFF0CFFFFFFFF130000000000000000000000000000
310
0000000000000000000006000000000000E03F14000000000000F03F000000000000000000000000000000001400000000000000000000000000000000000000000000F03F0B0B0B0B0B110E03456E640E026F660E0341534D0D0464617461
  0
ENDSEC
  0
EOF
